<svg width="314" height="150" viewBox="0 0 314 150" fill="none" xmlns="http://www.w3.org/2000/svg">
<g opacity="0.3">
<path opacity="0.5" d="M79.4044 77.4608C79.4044 79.6123 78.4793 81.3512 77.3391 81.3512C76.1989 81.3512 75.2773 79.6056 75.2773 77.4608C75.2773 75.3092 76.2024 73.5703 77.3391 73.5703C78.4793 73.5636 79.4044 75.3092 79.4044 77.4608Z" fill="url(#paint0_radial_44_7283)"/>
<path d="M77.3681 71.7988L77.5546 77.4146H77.1602L77.3681 71.7988Z" fill="#FFFAEF"/>
<path d="M77.3466 83.0231L77.1602 77.4141H77.5546L77.3466 83.0231Z" fill="#FFFAEF"/>
<path d="M80.3335 77.4354L77.3574 77.7872V77.043L80.3335 77.4354Z" fill="#FFFAEF"/>
<path d="M74.3848 77.3928L77.3573 77.041V77.7853L74.3848 77.3928Z" fill="#FFFAEF"/>
<path opacity="0.5" d="M122.991 73.6131C122.991 75.7647 122.066 77.5035 120.929 77.5035C119.789 77.5035 118.867 75.7579 118.867 73.6131C118.867 71.4615 119.792 69.7227 120.929 69.7227C122.069 69.7227 122.991 71.4683 122.991 73.6131Z" fill="url(#paint1_radial_44_7283)"/>
<path d="M120.958 67.957L121.144 73.566H120.75L120.958 67.957Z" fill="#FFFAEF"/>
<path d="M120.936 79.1821L120.75 73.5664H121.144L120.936 79.1821Z" fill="#FFFAEF"/>
<path d="M123.925 73.5858L120.949 73.9444V73.1934L123.925 73.5858Z" fill="#FFFAEF"/>
<path d="M117.973 73.552L120.949 73.1934V73.9444L117.973 73.552Z" fill="#FFFAEF"/>
<path opacity="0.5" d="M115.61 85.5076C115.61 87.6592 114.685 89.4048 113.548 89.4048C112.408 89.4048 111.486 87.6592 111.486 85.5076C111.486 83.356 112.411 81.6172 113.548 81.6172C114.685 81.6172 115.61 83.356 115.61 85.5076Z" fill="url(#paint2_radial_44_7283)"/>
<path d="M113.573 79.8516L113.76 85.4606H113.365L113.573 79.8516Z" fill="#FFFAEF"/>
<path d="M113.556 91.0767L113.365 85.4609H113.76L113.556 91.0767Z" fill="#FFFAEF"/>
<path d="M116.539 85.4823L113.562 85.8341V85.0898L116.539 85.4823Z" fill="#FFFAEF"/>
<path d="M110.59 85.4397L113.562 85.0879V85.8321L110.59 85.4397Z" fill="#FFFAEF"/>
<path opacity="0.5" d="M237.459 34.5198C237.459 35.5956 236.997 36.4752 236.423 36.4752C235.853 36.4752 235.387 35.6024 235.387 34.5198C235.387 33.444 235.849 32.5645 236.423 32.5645C236.997 32.5645 237.459 33.4373 237.459 34.5198Z" fill="url(#paint3_radial_44_7283)"/>
<path d="M236.438 31.6777L236.531 34.4924H236.334L236.438 31.6777Z" fill="#FFFAEF"/>
<path d="M236.429 37.3068L236.336 34.4922H236.533L236.429 37.3068Z" fill="#FFFAEF"/>
<path d="M237.927 34.5068L236.436 34.6827V34.3105L237.927 34.5068Z" fill="#FFFAEF"/>
<path d="M234.943 34.4865L236.435 34.3105V34.6827L234.943 34.4865Z" fill="#FFFAEF"/>
<path opacity="0.5" d="M187.686 13.9378C187.686 15.0136 187.223 15.8931 186.65 15.8931C186.079 15.8931 185.613 15.0203 185.613 13.9378C185.613 12.862 186.076 11.9824 186.65 11.9824C187.223 11.9892 187.686 12.862 187.686 13.9378Z" fill="url(#paint4_radial_44_7283)"/>
<path d="M186.663 11.1016L186.759 13.9162H186.559L186.663 11.1016Z" fill="#FFFAEF"/>
<path d="M186.655 16.7326L186.559 13.918H186.759L186.655 16.7326Z" fill="#FFFAEF"/>
<path d="M188.152 13.9228L186.66 14.1055V13.7266L188.152 13.9228Z" fill="#FFFAEF"/>
<path d="M185.168 13.9025L186.66 13.7266V14.1055L185.168 13.9025Z" fill="#FFFAEF"/>
<path opacity="0.5" d="M175.944 58.5862C175.944 59.662 175.481 60.5416 174.907 60.5416C174.337 60.5416 173.871 59.6688 173.871 58.5862C173.871 57.5104 174.334 56.6309 174.907 56.6309C175.481 56.6376 175.944 57.5104 175.944 58.5862Z" fill="url(#paint5_radial_44_7283)"/>
<path d="M174.924 55.75L175.021 58.5646H174.82L174.924 55.75Z" fill="#FFFAEF"/>
<path d="M174.917 61.3791L174.82 58.5645H175.021L174.917 61.3791Z" fill="#FFFAEF"/>
<path d="M176.412 58.5712L174.92 58.7539V58.375L176.412 58.5712Z" fill="#FFFAEF"/>
<path d="M173.428 58.5577L174.919 58.375V58.7539L173.428 58.5577Z" fill="#FFFAEF"/>
<path opacity="0.5" d="M245.319 4.71513C245.319 5.79092 244.856 6.67049 244.282 6.67049C243.712 6.67049 243.246 5.79768 243.246 4.71513C243.246 3.63934 243.709 2.75977 244.282 2.75977C244.856 2.75977 245.319 3.63257 245.319 4.71513Z" fill="url(#paint6_radial_44_7283)"/>
<path d="M244.297 1.87305L244.391 4.68769H244.193L244.297 1.87305Z" fill="#FFFAEF"/>
<path d="M244.285 7.50214L244.191 4.6875H244.389L244.285 7.50214Z" fill="#FFFAEF"/>
<path d="M245.785 4.70207L244.293 4.87798V4.50586L245.785 4.70207Z" fill="#FFFAEF"/>
<path d="M242.797 4.68177L244.292 4.50586V4.87798L242.797 4.68177Z" fill="#FFFAEF"/>
<g opacity="0.5">
<path opacity="0.5" d="M292.694 51.4202C292.694 52.496 292.231 53.3756 291.657 53.3756C291.087 53.3756 290.621 52.5028 290.621 51.4202C290.621 50.3444 291.084 49.4648 291.657 49.4648C292.227 49.4648 292.694 50.3377 292.694 51.4202Z" fill="url(#paint7_radial_44_7283)"/>
<path d="M291.672 48.5781L291.766 51.3928H291.568L291.672 48.5781Z" fill="#FFFAEF"/>
<path d="M291.662 54.2092L291.568 51.3945H291.766L291.662 54.2092Z" fill="#FFFAEF"/>
<path d="M293.156 51.4052L291.664 51.5811V51.209L293.156 51.4052Z" fill="#FFFAEF"/>
<path d="M290.174 51.3868L291.665 51.2109V51.5831L290.174 51.3868Z" fill="#FFFAEF"/>
</g>
<g opacity="0.5">
<path opacity="0.5" d="M76.303 49.6194C76.303 50.6952 75.8404 51.5748 75.2667 51.5748C74.693 51.5748 74.2305 50.702 74.2305 49.6194C74.2305 48.5436 74.693 47.6641 75.2667 47.6641C75.8404 47.6641 76.303 48.5369 76.303 49.6194Z" fill="url(#paint8_radial_44_7283)"/>
<path d="M75.2798 46.7773L75.373 49.592H75.1758L75.2798 46.7773Z" fill="#FFFAEF"/>
<path d="M75.269 52.4045L75.1758 49.5898H75.373L75.269 52.4045Z" fill="#FFFAEF"/>
<path d="M76.769 49.6064L75.2773 49.7823V49.4102L76.769 49.6064Z" fill="#FFFAEF"/>
<path d="M73.7812 49.5861L75.2765 49.4102V49.7823L73.7812 49.5861Z" fill="#FFFAEF"/>
</g>
<g opacity="0.5">
<path opacity="0.5" d="M37.9788 62.8128C37.9788 63.8886 37.5162 64.7681 36.9425 64.7681C36.3724 64.7681 35.9062 63.8953 35.9062 62.8128C35.9062 61.737 36.3688 60.8574 36.9425 60.8574C37.5126 60.8574 37.9788 61.7302 37.9788 62.8128Z" fill="url(#paint9_radial_44_7283)"/>
<path d="M36.9575 59.9707L37.0507 62.7853H36.8535L36.9575 59.9707Z" fill="#FFFAEF"/>
<path d="M36.9448 65.5998L36.8516 62.7852H37.0488L36.9448 65.5998Z" fill="#FFFAEF"/>
<path d="M38.4448 62.7997L36.9531 62.9756V62.6035L38.4448 62.7997Z" fill="#FFFAEF"/>
<path d="M35.457 62.7794L36.9523 62.6035V62.9756L35.457 62.7794Z" fill="#FFFAEF"/>
</g>
<path opacity="0.5" d="M32.7366 86.178C32.7366 87.2538 32.274 88.1334 31.7003 88.1334C31.1302 88.1334 30.6641 87.2606 30.6641 86.178C30.6641 85.1022 31.1266 84.2227 31.7003 84.2227C32.274 84.2227 32.7366 85.1022 32.7366 86.178Z" fill="url(#paint10_radial_44_7283)"/>
<path d="M31.7173 83.3359L31.8141 86.1574H31.6133L31.7173 83.3359Z" fill="#FFFAEF"/>
<path d="M31.7065 88.9709L31.6133 86.1562H31.8141L31.7065 88.9709Z" fill="#FFFAEF"/>
<path d="M33.2026 86.165L31.7109 86.3409V85.9688L33.2026 86.165Z" fill="#FFFAEF"/>
<path d="M30.2207 86.1447L31.7123 85.9688V86.3409L30.2207 86.1447Z" fill="#FFFAEF"/>
<path opacity="0.5" d="M118.653 24.0101C118.653 25.0858 118.19 25.9654 117.616 25.9654C117.043 25.9654 116.58 25.0926 116.58 24.0101C116.58 22.9343 117.043 22.0547 117.616 22.0547C118.19 22.0615 118.653 22.9343 118.653 24.0101Z" fill="url(#paint11_radial_44_7283)"/>
<path d="M117.631 21.1758L117.728 23.9904H117.527L117.631 21.1758Z" fill="#FFFAEF"/>
<path d="M117.624 26.8068L117.527 23.9922H117.728L117.624 26.8068Z" fill="#FFFAEF"/>
<path d="M119.119 23.997L117.627 24.1797V23.8008L119.119 23.997Z" fill="#FFFAEF"/>
<path d="M116.135 23.9835L117.626 23.8008V24.1797L116.135 23.9835Z" fill="#FFFAEF"/>
<path opacity="0.5" d="M145.026 134.127C145.026 135.203 144.563 136.083 143.989 136.083C143.419 136.083 142.953 135.21 142.953 134.127C142.953 133.051 143.416 132.172 143.989 132.172C144.563 132.172 145.026 133.051 145.026 134.127Z" fill="url(#paint12_radial_44_7283)"/>
<path d="M144.004 131.285L144.098 134.107H143.9L144.004 131.285Z" fill="#FFFAEF"/>
<path d="M143.992 136.92L143.898 134.105H144.096L143.992 136.92Z" fill="#FFFAEF"/>
<path d="M145.492 134.114L144 134.29V133.918L145.492 134.114Z" fill="#FFFAEF"/>
<path d="M142.504 134.094L143.999 133.918V134.29L142.504 134.094Z" fill="#FFFAEF"/>
<path opacity="0.5" d="M174.647 121.889C174.647 122.965 174.184 123.844 173.61 123.844C173.04 123.844 172.574 122.971 172.574 121.889C172.574 120.813 173.037 119.934 173.61 119.934C174.181 119.934 174.647 120.813 174.647 121.889Z" fill="url(#paint13_radial_44_7283)"/>
<path d="M173.627 119.053L173.721 121.867H173.523L173.627 119.053Z" fill="#FFFAEF"/>
<path d="M173.617 124.682L173.523 121.867H173.721L173.617 124.682Z" fill="#FFFAEF"/>
<path d="M175.112 121.876L173.617 122.052V121.68L175.112 121.876Z" fill="#FFFAEF"/>
<path d="M172.127 121.854L173.619 121.678V122.05L172.127 121.854Z" fill="#FFFAEF"/>
<path opacity="0.5" d="M242.221 66.4671C242.221 67.5429 241.758 68.4224 241.185 68.4224C240.615 68.4224 240.148 67.5496 240.148 66.4671C240.148 65.3845 240.611 64.5117 241.185 64.5117C241.755 64.5185 242.221 65.3913 242.221 66.4671Z" fill="url(#paint14_radial_44_7283)"/>
<path d="M241.202 63.6328L241.295 66.4475H241.098L241.202 63.6328Z" fill="#FFFAEF"/>
<path d="M241.191 69.2639L241.098 66.4492H241.295L241.191 69.2639Z" fill="#FFFAEF"/>
<path d="M242.687 66.454L241.191 66.6367V66.2578L242.687 66.454Z" fill="#FFFAEF"/>
<path d="M239.701 66.4405L241.193 66.2578V66.6367L239.701 66.4405Z" fill="#FFFAEF"/>
<path opacity="0.5" d="M189.02 143.213C189.02 144.289 188.557 145.169 187.984 145.169C187.413 145.169 186.947 144.296 186.947 143.213C186.947 142.137 187.41 141.258 187.984 141.258C188.557 141.258 189.02 142.131 189.02 143.213Z" fill="url(#paint15_radial_44_7283)"/>
<path d="M188 140.371L188.094 143.186H187.896L188 140.371Z" fill="#FFFAEF"/>
<path d="M187.988 146.002L187.895 143.188H188.092L187.988 146.002Z" fill="#FFFAEF"/>
<path d="M189.488 143.2L187.996 143.376V143.004L189.488 143.2Z" fill="#FFFAEF"/>
<path d="M186.5 143.18L187.995 143.004V143.376L186.5 143.18Z" fill="#FFFAEF"/>
<path opacity="0.5" d="M185.26 3.99982C185.26 6.1514 184.335 7.89025 183.198 7.89025C182.058 7.89025 181.136 6.14463 181.136 3.99982C181.136 1.84825 182.062 0.109395 183.198 0.109395C184.335 0.102629 185.26 1.84825 185.26 3.99982Z" fill="url(#paint16_radial_44_7283)"/>
<path d="M183.224 -1.66406L183.41 3.95169H183.016L183.224 -1.66406Z" fill="#FFFAEF"/>
<path d="M183.206 9.56015L183.016 3.95117H183.41L183.206 9.56015Z" fill="#FFFAEF"/>
<path d="M186.189 3.96574L183.213 4.32434V3.58008L186.189 3.96574Z" fill="#FFFAEF"/>
<path d="M180.24 3.93191L183.213 3.58008V4.32434L180.24 3.93191Z" fill="#FFFAEF"/>
<path opacity="0.5" d="M226.032 85.5076C226.032 87.6592 225.107 89.398 223.97 89.398C222.83 89.398 221.908 87.6524 221.908 85.5076C221.908 83.356 222.833 81.6172 223.97 81.6172C225.107 81.6172 226.032 83.356 226.032 85.5076Z" fill="url(#paint17_radial_44_7283)"/>
<path d="M223.995 79.8438L224.185 85.4595H223.791L223.995 79.8438Z" fill="#FFFAEF"/>
<path d="M223.977 91.0747L223.791 85.459H224.185L223.977 91.0747Z" fill="#FFFAEF"/>
<path d="M226.961 85.4803L223.988 85.8321V85.0879L226.961 85.4803Z" fill="#FFFAEF"/>
<path d="M221.012 85.4397L223.988 85.0879V85.8321L221.012 85.4397Z" fill="#FFFAEF"/>
<path opacity="0.5" d="M285.438 105.148C285.438 107.3 284.513 109.039 283.376 109.039C282.236 109.039 281.314 107.293 281.314 105.148C281.314 102.997 282.24 101.258 283.376 101.258C284.516 101.258 285.438 102.997 285.438 105.148Z" fill="url(#paint18_radial_44_7283)"/>
<path d="M283.405 99.4922L283.592 105.101H283.197L283.405 99.4922Z" fill="#FFFAEF"/>
<path d="M283.382 110.717L283.195 105.102H283.59L283.382 110.717Z" fill="#FFFAEF"/>
<path d="M286.371 105.123L283.395 105.475V104.73L286.371 105.123Z" fill="#FFFAEF"/>
<path d="M280.418 105.08L283.394 104.729V105.473L280.418 105.08Z" fill="#FFFAEF"/>
<g opacity="0.5">
<path opacity="0.5" d="M306.51 71.4881C306.51 73.6397 305.585 75.3785 304.448 75.3785C303.308 75.3785 302.387 73.6329 302.387 71.4881C302.387 69.3365 303.312 67.5977 304.448 67.5977C305.585 67.5977 306.51 69.3365 306.51 71.4881Z" fill="url(#paint19_radial_44_7283)"/>
<path d="M304.474 65.8242L304.66 71.44H304.266L304.474 65.8242Z" fill="#FFFAEF"/>
<path d="M304.456 77.0484L304.266 71.4395H304.66L304.456 77.0484Z" fill="#FFFAEF"/>
<path d="M307.439 71.4608L304.463 71.8126V71.0684L307.439 71.4608Z" fill="#FFFAEF"/>
<path d="M301.49 71.4202L304.463 71.0684V71.8126L301.49 71.4202Z" fill="#FFFAEF"/>
</g>
<path d="M77.2759 63.2677C77.2759 63.4707 77.1899 63.6331 77.0823 63.6331C76.9747 63.6331 76.8887 63.4707 76.8887 63.2677C76.8887 63.0647 76.9747 62.9023 77.0823 62.9023C77.1863 62.9023 77.2759 63.0647 77.2759 63.2677Z" fill="#FFFAEF"/>
<path d="M140.487 1.87904C140.487 2.08202 140.401 2.2444 140.293 2.2444C140.186 2.2444 140.1 2.08202 140.1 1.87904C140.1 1.67606 140.186 1.51367 140.293 1.51367C140.401 1.52044 140.487 1.68283 140.487 1.87904Z" fill="#FFFAEF"/>
<path d="M210.866 25.5743C210.866 25.7773 210.78 25.9397 210.672 25.9397C210.565 25.9397 210.479 25.7773 210.479 25.5743C210.479 25.3714 210.565 25.209 210.672 25.209C210.78 25.209 210.866 25.3714 210.866 25.5743Z" fill="#FFFAEF"/>
<path d="M195.035 14.2327C195.035 14.3207 194.996 14.3951 194.949 14.3951C194.903 14.3951 194.863 14.3207 194.863 14.2327C194.863 14.1447 194.903 14.0703 194.949 14.0703C194.996 14.0703 195.035 14.1447 195.035 14.2327Z" fill="#FFFAEF"/>
<path d="M240.983 90.6428C240.983 90.7308 240.943 90.8052 240.897 90.8052C240.85 90.8052 240.811 90.7308 240.811 90.6428C240.811 90.5549 240.85 90.4805 240.897 90.4805C240.943 90.4805 240.983 90.5549 240.983 90.6428Z" fill="#FFFAEF"/>
<path d="M230.727 109.744C230.727 109.832 230.687 109.907 230.641 109.907C230.594 109.907 230.555 109.832 230.555 109.744C230.555 109.656 230.594 109.582 230.641 109.582C230.691 109.582 230.727 109.656 230.727 109.744Z" fill="#FFFAEF"/>
<path d="M218.313 104.215C218.313 104.303 218.273 104.377 218.227 104.377C218.18 104.377 218.141 104.303 218.141 104.215C218.141 104.127 218.18 104.053 218.227 104.053C218.277 104.053 218.313 104.127 218.313 104.215Z" fill="#FFFAEF"/>
<path d="M216.592 123.274C216.592 123.362 216.553 123.436 216.506 123.436C216.459 123.436 216.42 123.362 216.42 123.274C216.42 123.186 216.459 123.111 216.506 123.111C216.553 123.111 216.592 123.186 216.592 123.274Z" fill="#FFFAEF"/>
<path d="M236.696 104.053C236.696 104.141 236.656 104.215 236.609 104.215C236.563 104.215 236.523 104.141 236.523 104.053C236.523 103.965 236.563 103.891 236.609 103.891C236.656 103.891 236.696 103.965 236.696 104.053Z" fill="#FFFAEF"/>
<path d="M233.508 89.4046C233.508 89.4925 233.469 89.567 233.422 89.567C233.375 89.567 233.336 89.4925 233.336 89.4046C233.336 89.3166 233.375 89.2422 233.422 89.2422C233.472 89.2422 233.508 89.3166 233.508 89.4046Z" fill="#FFFAEF"/>
<path d="M89.4026 33.9222C89.4026 34.0101 89.3631 34.0845 89.3165 34.0845C89.2699 34.0845 89.2305 34.0101 89.2305 33.9222C89.2305 33.8342 89.2699 33.7598 89.3165 33.7598C89.3631 33.7598 89.4026 33.8342 89.4026 33.9222Z" fill="#FFFAEF"/>
<path d="M88.0745 21.3304C88.0745 21.4183 88.035 21.4927 87.9884 21.4927C87.9418 21.4927 87.9023 21.4183 87.9023 21.3304C87.9023 21.2424 87.9418 21.168 87.9884 21.168C88.0386 21.1747 88.0745 21.2424 88.0745 21.3304Z" fill="#FFFAEF"/>
<path d="M102.946 22.5843C102.946 22.6722 102.906 22.7466 102.859 22.7466C102.813 22.7466 102.773 22.6722 102.773 22.5843C102.773 22.4963 102.813 22.4219 102.859 22.4219C102.906 22.4219 102.946 22.4963 102.946 22.5843Z" fill="#FFFAEF"/>
<path d="M96.9924 10.4514C96.9924 10.5394 96.953 10.6138 96.9064 10.6138C96.8598 10.6138 96.8203 10.5394 96.8203 10.4514C96.8203 10.3635 96.8598 10.2891 96.9064 10.2891C96.953 10.2891 96.9924 10.3635 96.9924 10.4514Z" fill="#FFFAEF"/>
<path d="M96.9104 58.3753C96.9104 58.4632 96.8709 58.5376 96.8243 58.5376C96.7777 58.5376 96.7383 58.4632 96.7383 58.3753C96.7383 58.2873 96.7777 58.2129 96.8243 58.2129C96.8709 58.2197 96.9104 58.2873 96.9104 58.3753Z" fill="#FFFAEF"/>
<path d="M99.6099 78.219C99.6099 78.307 99.5705 78.3814 99.5275 78.3814C99.4809 78.3814 99.4414 78.307 99.4414 78.219C99.4414 78.1311 99.4809 78.0566 99.5275 78.0566C99.5741 78.0566 99.6099 78.1311 99.6099 78.219Z" fill="#FFFAEF"/>
<path d="M106.408 67.0686C106.408 67.1566 106.369 67.231 106.322 67.231C106.276 67.231 106.236 67.1566 106.236 67.0686C106.236 66.9807 106.276 66.9062 106.322 66.9062C106.369 66.9062 106.408 66.9807 106.408 67.0686Z" fill="#FFFAEF"/>
<path d="M171.317 99.3499C171.317 99.4378 171.277 99.5123 171.231 99.5123C171.184 99.5123 171.145 99.4378 171.145 99.3499C171.145 99.2619 171.184 99.1875 171.231 99.1875C171.281 99.1875 171.317 99.2619 171.317 99.3499Z" fill="#FFFAEF"/>
<path d="M170.379 81.3518C170.379 81.4398 170.34 81.5142 170.293 81.5142C170.246 81.5142 170.207 81.4398 170.207 81.3518C170.207 81.2639 170.246 81.1895 170.293 81.1895C170.343 81.1962 170.379 81.2639 170.379 81.3518Z" fill="#FFFAEF"/>
<path d="M174.256 88.7405C174.256 88.8285 174.217 88.9029 174.17 88.9029C174.123 88.9029 174.084 88.8285 174.084 88.7405C174.084 88.6526 174.123 88.5781 174.17 88.5781C174.22 88.5849 174.256 88.6526 174.256 88.7405Z" fill="#FFFAEF"/>
<path d="M156.895 88.7405C156.895 88.8285 156.856 88.9029 156.813 88.9029C156.766 88.9029 156.727 88.8285 156.727 88.7405C156.727 88.6526 156.766 88.5781 156.813 88.5781C156.856 88.5849 156.895 88.6526 156.895 88.7405Z" fill="#FFFAEF"/>
<path d="M157.522 99.6663C157.522 99.7542 157.482 99.8287 157.436 99.8287C157.389 99.8287 157.35 99.7542 157.35 99.6663C157.35 99.5783 157.389 99.5039 157.436 99.5039C157.482 99.5107 157.522 99.5783 157.522 99.6663Z" fill="#FFFAEF"/>
<path d="M148.875 99.8303C148.875 99.9183 148.836 99.9927 148.789 99.9927C148.743 99.9927 148.703 99.9183 148.703 99.8303C148.703 99.7424 148.743 99.668 148.789 99.668C148.839 99.668 148.875 99.7424 148.875 99.8303Z" fill="#FFFAEF"/>
<path d="M149.926 109.58C149.926 109.668 149.887 109.743 149.844 109.743C149.797 109.743 149.758 109.668 149.758 109.58C149.758 109.492 149.797 109.418 149.844 109.418C149.887 109.425 149.926 109.492 149.926 109.58Z" fill="#FFFAEF"/>
<path d="M155.586 111.09C155.586 111.178 155.547 111.253 155.5 111.253C155.454 111.253 155.414 111.178 155.414 111.09C155.414 111.002 155.454 110.928 155.5 110.928C155.55 110.928 155.586 111.002 155.586 111.09Z" fill="#FFFAEF"/>
<path d="M149.067 73.6116C149.067 73.6996 149.028 73.774 148.984 73.774C148.938 73.774 148.898 73.6996 148.898 73.6116C148.898 73.5236 148.938 73.4492 148.984 73.4492C149.028 73.456 149.067 73.5236 149.067 73.6116Z" fill="#FFFAEF"/>
<path d="M125.61 95.7229C125.61 95.8109 125.57 95.8853 125.524 95.8853C125.477 95.8853 125.438 95.8109 125.438 95.7229C125.438 95.635 125.477 95.5605 125.524 95.5605C125.57 95.5605 125.61 95.635 125.61 95.7229Z" fill="#FFFAEF"/>
<path d="M122.139 103.735C122.139 103.823 122.099 103.897 122.053 103.897C122.006 103.897 121.967 103.823 121.967 103.735C121.967 103.647 122.006 103.572 122.053 103.572C122.103 103.572 122.139 103.647 122.139 103.735Z" fill="#FFFAEF"/>
<path d="M128.711 120.459C128.711 120.547 128.671 120.622 128.625 120.622C128.578 120.622 128.539 120.547 128.539 120.459C128.539 120.371 128.578 120.297 128.625 120.297C128.671 120.297 128.711 120.371 128.711 120.459Z" fill="#FFFAEF"/>
<path d="M135.625 109.899C135.625 109.987 135.586 110.061 135.539 110.061C135.493 110.061 135.453 109.987 135.453 109.899C135.453 109.811 135.493 109.736 135.539 109.736C135.589 109.743 135.625 109.811 135.625 109.899Z" fill="#FFFAEF"/>
<path d="M125.524 115.44C125.524 115.528 125.485 115.602 125.442 115.602C125.395 115.602 125.355 115.528 125.355 115.44C125.355 115.352 125.395 115.277 125.442 115.277C125.485 115.277 125.524 115.352 125.524 115.44Z" fill="#FFFAEF"/>
<path d="M129.944 128.375C129.944 128.463 129.904 128.538 129.858 128.538C129.811 128.538 129.771 128.463 129.771 128.375C129.771 128.287 129.811 128.213 129.858 128.213C129.908 128.22 129.944 128.287 129.944 128.375Z" fill="#FFFAEF"/>
<path d="M133.329 123.112C133.329 123.2 133.289 123.274 133.246 123.274C133.2 123.274 133.16 123.2 133.16 123.112C133.16 123.024 133.2 122.949 133.246 122.949C133.293 122.949 133.329 123.024 133.329 123.112Z" fill="#FFFAEF"/>
<path d="M104.598 128.221C104.598 128.309 104.559 128.383 104.516 128.383C104.469 128.383 104.43 128.309 104.43 128.221C104.43 128.133 104.469 128.059 104.516 128.059C104.562 128.059 104.598 128.133 104.598 128.221Z" fill="#FFFAEF"/>
<path d="M100.42 123.432C100.42 123.52 100.381 123.594 100.334 123.594C100.287 123.594 100.248 123.52 100.248 123.432C100.248 123.344 100.287 123.27 100.334 123.27C100.384 123.276 100.42 123.344 100.42 123.432Z" fill="#FFFAEF"/>
<path d="M103.333 120.616C103.333 120.703 103.293 120.778 103.25 120.778C103.204 120.778 103.164 120.703 103.164 120.616C103.164 120.528 103.204 120.453 103.25 120.453C103.293 120.46 103.333 120.528 103.333 120.616Z" fill="#FFFAEF"/>
<path d="M89.5982 106.862C89.5982 106.95 89.5588 107.024 89.5157 107.024C89.4691 107.024 89.4297 106.95 89.4297 106.862C89.4297 106.774 89.4691 106.699 89.5157 106.699C89.5588 106.699 89.5982 106.774 89.5982 106.862Z" fill="#FFFAEF"/>
<path d="M89.5982 97.3186C89.5982 97.4066 89.5588 97.481 89.5157 97.481C89.4691 97.481 89.4297 97.4066 89.4297 97.3186C89.4297 97.2307 89.4691 97.1562 89.5157 97.1562C89.5588 97.1562 89.5982 97.2307 89.5982 97.3186Z" fill="#FFFAEF"/>
<path d="M82.5198 99.9925C82.5198 100.08 82.4803 100.155 82.4337 100.155C82.3871 100.155 82.3477 100.08 82.3477 99.9925C82.3477 99.9045 82.3871 99.8301 82.4337 99.8301C82.4839 99.8301 82.5198 99.9045 82.5198 99.9925Z" fill="#FFFAEF"/>
<path d="M73.8694 90.6428C73.8694 90.7308 73.8299 90.8052 73.7833 90.8052C73.7367 90.8052 73.6973 90.7308 73.6973 90.6428C73.6973 90.5549 73.7367 90.4805 73.7833 90.4805C73.8299 90.4805 73.8694 90.5549 73.8694 90.6428Z" fill="#FFFAEF"/>
<path d="M40.1604 110.973C40.1604 111.061 40.121 111.135 40.0743 111.135C40.0277 111.135 39.9883 111.061 39.9883 110.973C39.9883 110.885 40.0277 110.811 40.0743 110.811C40.1245 110.811 40.1604 110.885 40.1604 110.973Z" fill="#FFFAEF"/>
<path d="M54.0803 37.096C54.0803 37.1839 54.0409 37.2584 53.9943 37.2584C53.9476 37.2584 53.9082 37.1839 53.9082 37.096C53.9082 37.008 53.9476 36.9336 53.9943 36.9336C54.0409 36.9336 54.0803 37.008 54.0803 37.096Z" fill="#FFFAEF"/>
<path opacity="0.5" d="M51.6877 44.7288C51.6877 44.8168 51.6483 44.8912 51.6017 44.8912C51.5551 44.8912 51.5156 44.8168 51.5156 44.7288C51.5156 44.6408 51.5551 44.5664 51.6017 44.5664C51.6483 44.5732 51.6877 44.6408 51.6877 44.7288Z" fill="#FFFAEF"/>
<path opacity="0.5" d="M23.2678 32.1975C23.2678 32.2855 23.2284 32.3599 23.1818 32.3599C23.1351 32.3599 23.0957 32.2855 23.0957 32.1975C23.0957 32.1096 23.1351 32.0352 23.1818 32.0352C23.232 32.0419 23.2678 32.1096 23.2678 32.1975Z" fill="#FFFAEF"/>
<path d="M74.0354 28.0764C74.0354 28.1644 73.9959 28.2388 73.9493 28.2388C73.9027 28.2388 73.8633 28.1644 73.8633 28.0764C73.8633 27.9885 73.9027 27.9141 73.9493 27.9141C73.9959 27.9208 74.0354 27.9885 74.0354 28.0764Z" fill="#FFFAEF"/>
<path d="M82.3518 85.9944C82.3518 86.0824 82.3124 86.1568 82.2657 86.1568C82.2191 86.1568 82.1797 86.0824 82.1797 85.9944C82.1797 85.9065 82.2191 85.832 82.2657 85.832C82.3124 85.832 82.3518 85.9065 82.3518 85.9944Z" fill="#FFFAEF"/>
<path d="M82.2662 72.7112C82.2662 72.7992 82.2267 72.8736 82.1837 72.8736C82.1371 72.8736 82.0977 72.7992 82.0977 72.7112C82.0977 72.6232 82.1371 72.5488 82.1837 72.5488C82.2303 72.5556 82.2662 72.6232 82.2662 72.7112Z" fill="#FFFAEF"/>
<path d="M76.385 38.721C76.385 38.8089 76.3456 38.8834 76.2989 38.8834C76.2523 38.8834 76.2129 38.8089 76.2129 38.721C76.2129 38.633 76.2523 38.5586 76.2989 38.5586C76.3491 38.5586 76.385 38.633 76.385 38.721Z" fill="#FFFAEF"/>
<path opacity="0.5" d="M58.1487 42.2054C58.1487 42.2933 58.1092 42.3677 58.0626 42.3677C58.016 42.3677 57.9766 42.2933 57.9766 42.2054C57.9766 42.1174 58.016 42.043 58.0626 42.043C58.1092 42.043 58.1487 42.1174 58.1487 42.2054Z" fill="#FFFAEF"/>
<path opacity="0.5" d="M13.133 61.7171C13.133 61.805 13.0936 61.8795 13.047 61.8795C13.0004 61.8795 12.9609 61.805 12.9609 61.7171C12.9609 61.6291 13.0004 61.5547 13.047 61.5547C13.0936 61.5615 13.133 61.6291 13.133 61.7171Z" fill="#FFFAEF"/>
<path d="M10.9807 42.4202C10.9807 42.5082 10.9413 42.5826 10.8946 42.5826C10.848 42.5826 10.8086 42.5082 10.8086 42.4202C10.8086 42.3322 10.848 42.2578 10.8946 42.2578C10.9448 42.2578 10.9807 42.3322 10.9807 42.4202Z" fill="#FFFAEF"/>
<path d="M20.7678 56.053C20.7678 56.141 20.7284 56.2154 20.6818 56.2154C20.6351 56.2154 20.5957 56.141 20.5957 56.053C20.5957 55.9651 20.6351 55.8906 20.6818 55.8906C20.732 55.8906 20.7678 55.9651 20.7678 56.053Z" fill="#FFFAEF"/>
<path d="M1.03149 47.7718C1.03149 47.8597 0.992044 47.9341 0.945431 47.9341C0.898817 47.9341 0.859375 47.8597 0.859375 47.7718C0.859375 47.6838 0.898817 47.6094 0.945431 47.6094C0.992044 47.6094 1.03149 47.6838 1.03149 47.7718Z" fill="#FFFAEF"/>
<path opacity="0.5" d="M4.06664 34.7132C4.06664 34.8011 4.0272 34.8755 3.98059 34.8755C3.93397 34.8755 3.89453 34.8011 3.89453 34.7132C3.89453 34.6252 3.93397 34.5508 3.98059 34.5508C4.0272 34.5575 4.06664 34.6252 4.06664 34.7132Z" fill="#FFFAEF"/>
<path d="M15.0315 38.6663C15.0315 38.7543 14.992 38.8287 14.9454 38.8287C14.8988 38.8287 14.8594 38.7543 14.8594 38.6663C14.8594 38.5783 14.8988 38.5039 14.9454 38.5039C14.9956 38.5107 15.0315 38.5783 15.0315 38.6663Z" fill="#FFFAEF"/>
<path opacity="0.5" d="M8.01 69.9925C8.01 70.0804 7.97056 70.1548 7.92395 70.1548C7.87733 70.1548 7.83789 70.0804 7.83789 69.9925C7.83789 69.9045 7.87733 69.8301 7.92395 69.8301C7.97056 69.8368 8.01 69.9113 8.01 69.9925Z" fill="#FFFAEF"/>
<path d="M23.7346 74.5374C23.7346 74.6253 23.6952 74.6998 23.6486 74.6998C23.6019 74.6998 23.5625 74.6253 23.5625 74.5374C23.5625 74.4494 23.6019 74.375 23.6486 74.375C23.6952 74.375 23.7346 74.4494 23.7346 74.5374Z" fill="#FFFAEF"/>
<path opacity="0.5" d="M28.7522 72.8069C28.7522 72.8949 28.7127 72.9693 28.6661 72.9693C28.6195 72.9693 28.5801 72.8949 28.5801 72.8069C28.5801 72.719 28.6195 72.6445 28.6661 72.6445C28.7127 72.6445 28.7522 72.719 28.7522 72.8069Z" fill="#FFFAEF"/>
<path d="M31.9866 60.7151C31.9866 60.8031 31.9471 60.8775 31.9005 60.8775C31.8539 60.8775 31.8145 60.8031 31.8145 60.7151C31.8145 60.6272 31.8539 60.5527 31.9005 60.5527C31.9507 60.5527 31.9866 60.6272 31.9866 60.7151Z" fill="#FFFAEF"/>
<path d="M36.9377 78.9358C36.9377 79.0238 36.8983 79.0982 36.8517 79.0982C36.8051 79.0982 36.7656 79.0238 36.7656 78.9358C36.7656 78.8479 36.8051 78.7734 36.8517 78.7734C36.8983 78.7734 36.9377 78.8479 36.9377 78.9358Z" fill="#FFFAEF"/>
<path opacity="0.5" d="M57.4241 46.7796C57.4241 46.8675 57.3846 46.942 57.338 46.942C57.2914 46.942 57.252 46.8675 57.252 46.7796C57.252 46.6916 57.2914 46.6172 57.338 46.6172C57.3846 46.6172 57.4241 46.6916 57.4241 46.7796Z" fill="#FFFAEF"/>
<path opacity="0.5" d="M20.5706 61.2307C20.5706 61.3187 20.5311 61.3931 20.4845 61.3931C20.4379 61.3931 20.3984 61.3187 20.3984 61.2307C20.3984 61.1428 20.4379 61.0684 20.4845 61.0684C20.5347 61.0684 20.5706 61.1428 20.5706 61.2307Z" fill="#FFFAEF"/>
<path opacity="0.5" d="M63.7502 49.1194C63.7502 49.2074 63.7108 49.2818 63.6642 49.2818C63.6176 49.2818 63.5781 49.2074 63.5781 49.1194C63.5781 49.0315 63.6176 48.957 63.6642 48.957C63.7144 48.957 63.7502 49.0315 63.7502 49.1194Z" fill="#FFFAEF"/>
<path d="M116.219 115.116C116.219 115.203 116.18 115.278 116.133 115.278C116.086 115.278 116.047 115.203 116.047 115.116C116.047 115.028 116.086 114.953 116.133 114.953C116.18 114.953 116.219 115.028 116.219 115.116Z" fill="#FFFAEF"/>
<path d="M121.559 128.057C121.559 128.145 121.519 128.219 121.473 128.219C121.426 128.219 121.387 128.145 121.387 128.057C121.387 127.969 121.426 127.895 121.473 127.895C121.519 127.895 121.559 127.969 121.559 128.057Z" fill="#FFFAEF"/>
<path d="M124.258 120.78C124.258 120.868 124.219 120.942 124.172 120.942C124.125 120.942 124.086 120.868 124.086 120.78C124.086 120.692 124.125 120.617 124.172 120.617C124.219 120.617 124.258 120.692 124.258 120.78Z" fill="#FFFAEF"/>
<path d="M120.174 122.049C120.221 122.049 120.26 121.977 120.26 121.887C120.26 121.797 120.221 121.725 120.174 121.725C120.126 121.725 120.088 121.797 120.088 121.887C120.088 121.977 120.126 122.049 120.174 122.049Z" fill="#FFFAEF"/>
<path d="M118.059 104.94C118.059 105.028 118.02 105.102 117.977 105.102C117.93 105.102 117.891 105.028 117.891 104.94C117.891 104.852 117.93 104.777 117.977 104.777C118.02 104.784 118.059 104.852 118.059 104.94Z" fill="#FFFAEF"/>
<path d="M135.625 132.692C135.625 132.78 135.586 132.854 135.539 132.854C135.493 132.854 135.453 132.78 135.453 132.692C135.453 132.604 135.493 132.529 135.539 132.529C135.589 132.536 135.625 132.604 135.625 132.692Z" fill="#FFFAEF"/>
<path d="M141.071 122.049C141.071 122.137 141.031 122.211 140.984 122.211C140.938 122.211 140.898 122.137 140.898 122.049C140.898 121.961 140.938 121.887 140.984 121.887C141.035 121.893 141.071 121.961 141.071 122.049Z" fill="#FFFAEF"/>
<path d="M139.081 143.186C139.081 143.274 139.041 143.348 138.998 143.348C138.952 143.348 138.912 143.274 138.912 143.186C138.912 143.098 138.952 143.023 138.998 143.023C139.041 143.03 139.081 143.098 139.081 143.186Z" fill="#FFFAEF"/>
<path d="M134.895 142.057C134.895 142.145 134.855 142.219 134.809 142.219C134.762 142.219 134.723 142.145 134.723 142.057C134.723 141.969 134.762 141.895 134.809 141.895C134.859 141.895 134.895 141.969 134.895 142.057Z" fill="#FFFAEF"/>
<path d="M130.199 44.2014C130.199 44.2894 130.16 44.3638 130.113 44.3638C130.067 44.3638 130.027 44.2894 130.027 44.2014C130.027 44.1135 130.067 44.0391 130.113 44.0391C130.16 44.0391 130.199 44.1135 130.199 44.2014Z" fill="#FFFAEF"/>
<path d="M125.122 36.2034C125.122 36.2914 125.082 36.3658 125.039 36.3658C124.993 36.3658 124.953 36.2914 124.953 36.2034C124.953 36.1154 124.993 36.041 125.039 36.041C125.082 36.041 125.122 36.1154 125.122 36.2034Z" fill="#FFFAEF"/>
<path d="M126.703 22.7405C126.703 22.8285 126.664 22.9029 126.617 22.9029C126.571 22.9029 126.531 22.8285 126.531 22.7405C126.531 22.6526 126.571 22.5781 126.617 22.5781C126.668 22.5849 126.703 22.6526 126.703 22.7405Z" fill="#FFFAEF"/>
<path d="M108.243 107.016C108.243 107.104 108.203 107.178 108.16 107.178C108.114 107.178 108.074 107.104 108.074 107.016C108.074 106.928 108.114 106.854 108.16 106.854C108.207 106.86 108.243 106.928 108.243 107.016Z" fill="#FFFAEF"/>
<path d="M100.336 91.5081C100.336 91.596 100.297 91.6705 100.25 91.6705C100.204 91.6705 100.164 91.596 100.164 91.5081C100.164 91.4201 100.204 91.3457 100.25 91.3457C100.297 91.3457 100.336 91.4201 100.336 91.5081Z" fill="#FFFAEF"/>
<path d="M130.643 66.2581C130.643 66.346 130.604 66.4205 130.561 66.4205C130.514 66.4205 130.475 66.346 130.475 66.2581C130.475 66.1701 130.514 66.0957 130.561 66.0957C130.607 66.1025 130.643 66.1701 130.643 66.2581Z" fill="#FFFAEF"/>
<path d="M154.442 128.221C154.442 128.309 154.402 128.383 154.356 128.383C154.309 128.383 154.27 128.309 154.27 128.221C154.27 128.133 154.309 128.059 154.356 128.059C154.406 128.059 154.442 128.133 154.442 128.221Z" fill="#FFFAEF"/>
<path d="M147.356 123.432C147.356 123.52 147.317 123.594 147.274 123.594C147.227 123.594 147.188 123.52 147.188 123.432C147.188 123.344 147.227 123.27 147.274 123.27C147.32 123.276 147.356 123.344 147.356 123.432Z" fill="#FFFAEF"/>
<path d="M148.598 142.496C148.598 142.584 148.559 142.659 148.516 142.659C148.469 142.659 148.43 142.584 148.43 142.496C148.43 142.408 148.469 142.334 148.516 142.334C148.559 142.341 148.598 142.408 148.598 142.496Z" fill="#FFFAEF"/>
<path d="M157.59 139.471C157.59 139.559 157.551 139.633 157.504 139.633C157.457 139.633 157.418 139.559 157.418 139.471C157.418 139.383 157.457 139.309 157.504 139.309C157.551 139.309 157.59 139.383 157.59 139.471Z" fill="#FFFAEF"/>
<path d="M167.281 149.838C167.281 149.926 167.242 150.001 167.195 150.001C167.149 150.001 167.109 149.926 167.109 149.838C167.109 149.75 167.149 149.676 167.195 149.676C167.246 149.676 167.281 149.75 167.281 149.838Z" fill="#FFFAEF"/>
<path d="M173.51 142.658C173.51 142.746 173.471 142.821 173.424 142.821C173.377 142.821 173.338 142.746 173.338 142.658C173.338 142.571 173.377 142.496 173.424 142.496C173.474 142.496 173.51 142.571 173.51 142.658Z" fill="#FFFAEF"/>
<path d="M180.026 115.276C180.026 115.364 179.986 115.438 179.94 115.438C179.893 115.438 179.854 115.364 179.854 115.276C179.854 115.188 179.893 115.113 179.94 115.113C179.99 115.113 180.026 115.188 180.026 115.276Z" fill="#FFFAEF"/>
<path d="M185.946 119.053C185.946 119.141 185.906 119.215 185.859 119.215C185.813 119.215 185.773 119.141 185.773 119.053C185.773 118.965 185.813 118.891 185.859 118.891C185.91 118.891 185.946 118.965 185.946 119.053Z" fill="#FFFAEF"/>
<path d="M183.119 104.369C183.119 104.457 183.08 104.532 183.033 104.532C182.987 104.532 182.947 104.457 182.947 104.369C182.947 104.281 182.987 104.207 183.033 104.207C183.084 104.214 183.119 104.281 183.119 104.369Z" fill="#FFFAEF"/>
<path d="M184.299 76.3733C184.299 76.4613 184.26 76.5357 184.213 76.5357C184.166 76.5357 184.127 76.4613 184.127 76.3733C184.127 76.2854 184.166 76.2109 184.213 76.2109C184.263 76.2177 184.299 76.2854 184.299 76.3733Z" fill="#FFFAEF"/>
<path d="M185.461 46.7796C185.461 46.8675 185.422 46.942 185.375 46.942C185.329 46.942 185.289 46.8675 185.289 46.7796C185.289 46.6916 185.329 46.6172 185.375 46.6172C185.422 46.6172 185.461 46.6916 185.461 46.7796Z" fill="#FFFAEF"/>
<path d="M203.504 48.3421C203.504 48.43 203.465 48.5044 203.418 48.5044C203.371 48.5044 203.332 48.43 203.332 48.3421C203.332 48.2541 203.371 48.1797 203.418 48.1797C203.465 48.1797 203.504 48.2541 203.504 48.3421Z" fill="#FFFAEF"/>
<path d="M191.535 36.4749C191.535 36.5628 191.496 36.6373 191.449 36.6373C191.403 36.6373 191.363 36.5628 191.363 36.4749C191.363 36.3869 191.403 36.3125 191.449 36.3125C191.5 36.3125 191.535 36.3869 191.535 36.4749Z" fill="#FFFAEF"/>
<path d="M192.385 27.7737C192.385 27.8617 192.346 27.9361 192.299 27.9361C192.252 27.9361 192.213 27.8617 192.213 27.7737C192.213 27.6857 192.252 27.6113 192.299 27.6113C192.346 27.6113 192.385 27.6857 192.385 27.7737Z" fill="#FFFAEF"/>
<path opacity="0.5" d="M0.172112 22.4827C0.172112 22.5707 0.132669 22.6451 0.0860558 22.6451C0.0394422 22.6451 0 22.5707 0 22.4827C0 22.3947 0.0394422 22.3203 0.0860558 22.3203C0.132669 22.3203 0.172112 22.3947 0.172112 22.4827Z" fill="#FFFAEF"/>
<path d="M6.52172 44.4514C6.52172 44.5394 6.48228 44.6138 6.43567 44.6138C6.38905 44.6138 6.34961 44.5394 6.34961 44.4514C6.34961 44.3635 6.38905 44.2891 6.43567 44.2891C6.48228 44.2891 6.52172 44.3635 6.52172 44.4514Z" fill="#FFFAEF"/>
<path d="M230.44 3.57744C230.44 3.61811 230.422 3.65878 230.397 3.65878C230.372 3.65878 230.354 3.62489 230.354 3.57744C230.354 3.53676 230.372 3.49609 230.397 3.49609C230.422 3.49609 230.44 3.52998 230.44 3.57744Z" fill="#FFFAEF"/>
<path d="M133.208 24.181C133.208 24.2216 133.19 24.2623 133.164 24.2623C133.139 24.2623 133.121 24.2284 133.121 24.181C133.121 24.1335 133.139 24.0996 133.164 24.0996C133.19 24.0996 133.208 24.1335 133.208 24.181Z" fill="#FFFAEF"/>
<path d="M190.876 47.0208C190.876 47.0682 190.858 47.1021 190.832 47.1021C190.807 47.1021 190.789 47.0682 190.789 47.0208C190.789 46.9801 190.807 46.9395 190.832 46.9395C190.854 46.9395 190.876 46.9801 190.876 47.0208Z" fill="#FFFAEF"/>
<path d="M194.907 42.5091C194.907 42.5565 194.889 42.5904 194.864 42.5904C194.838 42.5904 194.82 42.5565 194.82 42.5091C194.82 42.4684 194.838 42.4277 194.864 42.4277C194.889 42.4277 194.907 42.4616 194.907 42.5091Z" fill="#FFFAEF"/>
<path d="M186.602 32.5638C186.602 32.6112 186.584 32.6451 186.559 32.6451C186.534 32.6451 186.516 32.6112 186.516 32.5638C186.516 32.5231 186.534 32.4824 186.559 32.4824C186.584 32.4824 186.602 32.5231 186.602 32.5638Z" fill="#FFFAEF"/>
<path d="M192.428 19.2337C192.428 19.2811 192.41 19.315 192.385 19.315C192.36 19.315 192.342 19.2811 192.342 19.2337C192.342 19.193 192.36 19.1523 192.385 19.1523C192.407 19.1523 192.428 19.193 192.428 19.2337Z" fill="#FFFAEF"/>
<path d="M199.12 29.5735C199.12 29.621 199.102 29.6549 199.077 29.6549C199.051 29.6549 199.033 29.621 199.033 29.5735C199.033 29.5329 199.051 29.4922 199.077 29.4922C199.102 29.499 199.12 29.5329 199.12 29.5735Z" fill="#FFFAEF"/>
<path d="M209.208 49.5931C209.208 49.6337 209.19 49.6744 209.164 49.6744C209.139 49.6744 209.121 49.6405 209.121 49.5931C209.121 49.5524 209.139 49.5117 209.164 49.5117C209.19 49.5117 209.208 49.5524 209.208 49.5931Z" fill="#FFFAEF"/>
<path d="M225.686 41.0755C225.686 41.1162 225.668 41.1568 225.643 41.1568C225.618 41.1568 225.6 41.1229 225.6 41.0755C225.6 41.0348 225.618 40.9941 225.643 40.9941C225.668 40.9941 225.686 41.028 225.686 41.0755Z" fill="#FFFAEF"/>
<path d="M233.807 43.5911C233.807 43.6318 233.789 43.6725 233.764 43.6725C233.739 43.6725 233.721 43.6386 233.721 43.5911C233.721 43.5505 233.739 43.5098 233.764 43.5098C233.789 43.5098 233.807 43.5505 233.807 43.5911Z" fill="#FFFAEF"/>
<path d="M216.464 45.5267C216.464 45.5673 216.446 45.608 216.42 45.608C216.395 45.608 216.377 45.5741 216.377 45.5267C216.377 45.486 216.395 45.4453 216.42 45.4453C216.446 45.4453 216.464 45.486 216.464 45.5267Z" fill="#FFFAEF"/>
<path d="M230.696 40.9114C230.696 40.9521 230.678 40.9928 230.653 40.9928C230.627 40.9928 230.609 40.9589 230.609 40.9114C230.609 40.8707 230.627 40.8301 230.653 40.8301C230.678 40.8301 230.696 40.8707 230.696 40.9114Z" fill="#FFFAEF"/>
<path d="M213.544 60.5403C213.544 60.581 213.526 60.6217 213.5 60.6217C213.475 60.6217 213.457 60.5878 213.457 60.5403C213.457 60.4997 213.475 60.459 213.5 60.459C213.522 60.459 213.544 60.4997 213.544 60.5403Z" fill="#FFFAEF"/>
<path d="M219.874 52.0892C219.874 52.1298 219.856 52.1705 219.83 52.1705C219.805 52.1705 219.787 52.1366 219.787 52.0892C219.787 52.0485 219.805 52.0078 219.83 52.0078C219.856 52.0078 219.874 52.0485 219.874 52.0892Z" fill="#FFFAEF"/>
<path d="M210.008 82.8157C210.008 82.8564 209.99 82.8971 209.965 82.8971C209.94 82.8971 209.922 82.8632 209.922 82.8157C209.922 82.775 209.94 82.7344 209.965 82.7344C209.99 82.7344 210.008 82.7683 210.008 82.8157Z" fill="#FFFAEF"/>
<path d="M199.464 96.0423C199.464 96.083 199.446 96.1236 199.42 96.1236C199.395 96.1236 199.377 96.0897 199.377 96.0423C199.377 96.0016 199.395 95.9609 199.42 95.9609C199.446 95.9609 199.464 96.0016 199.464 96.0423Z" fill="#FFFAEF"/>
<path d="M208.483 119.208C208.483 119.249 208.465 119.29 208.44 119.29C208.415 119.29 208.396 119.256 208.396 119.208C208.396 119.168 208.415 119.127 208.44 119.127C208.461 119.127 208.483 119.168 208.483 119.208Z" fill="#FFFAEF"/>
<path d="M217.591 111.564C217.591 111.604 217.572 111.645 217.547 111.645C217.522 111.645 217.504 111.611 217.504 111.564C217.504 111.523 217.522 111.482 217.547 111.482C217.572 111.482 217.591 111.523 217.591 111.564Z" fill="#FFFAEF"/>
<path d="M219.622 90.6438C219.622 90.6845 219.604 90.7252 219.578 90.7252C219.553 90.7252 219.535 90.6913 219.535 90.6438C219.535 90.6032 219.553 90.5625 219.578 90.5625C219.6 90.5625 219.622 90.5964 219.622 90.6438Z" fill="#FFFAEF"/>
<path d="M224.803 98.8704C224.803 98.9111 224.785 98.9517 224.76 98.9517C224.735 98.9517 224.717 98.9179 224.717 98.8704C224.717 98.8297 224.735 98.7891 224.76 98.7891C224.785 98.7891 224.803 98.8297 224.803 98.8704Z" fill="#FFFAEF"/>
<path d="M231.466 81.7727C231.466 81.8134 231.447 81.8541 231.422 81.8541C231.397 81.8541 231.379 81.8202 231.379 81.7727C231.379 81.7321 231.397 81.6914 231.422 81.6914C231.447 81.6914 231.466 81.7321 231.466 81.7727Z" fill="#FFFAEF"/>
<path d="M226.079 76.2181C226.079 76.2587 226.061 76.2994 226.035 76.2994C226.01 76.2994 225.992 76.2655 225.992 76.2181C225.992 76.1774 226.01 76.1367 226.035 76.1367C226.057 76.1367 226.079 76.1706 226.079 76.2181Z" fill="#FFFAEF"/>
<path d="M216.339 73.1927C216.339 73.2333 216.321 73.274 216.295 73.274C216.27 73.274 216.252 73.2401 216.252 73.1927C216.252 73.152 216.27 73.1113 216.295 73.1113C216.317 73.1113 216.339 73.152 216.339 73.1927Z" fill="#FFFAEF"/>
<path d="M218.95 69.7415C218.95 69.7822 218.932 69.8228 218.907 69.8228C218.881 69.8228 218.863 69.7889 218.863 69.7415C218.863 69.7008 218.881 69.6602 218.907 69.6602C218.928 69.6602 218.95 69.694 218.95 69.7415Z" fill="#FFFAEF"/>
<path d="M224.762 52.0091C224.762 52.0497 224.744 52.0904 224.719 52.0904C224.694 52.0904 224.676 52.0565 224.676 52.0091C224.676 51.9684 224.694 51.9277 224.719 51.9277C224.744 51.9277 224.762 51.9684 224.762 52.0091Z" fill="#FFFAEF"/>
<path d="M231.766 25.3977C231.766 25.4384 231.748 25.4791 231.723 25.4791C231.698 25.4791 231.68 25.4452 231.68 25.3977C231.68 25.3571 231.698 25.3164 231.723 25.3164C231.745 25.3164 231.766 25.3571 231.766 25.3977Z" fill="#FFFAEF"/>
<path d="M280.946 19.7767C280.946 19.8241 280.928 19.858 280.903 19.858C280.877 19.858 280.859 19.8241 280.859 19.7767C280.859 19.736 280.877 19.6953 280.903 19.6953C280.928 19.6953 280.946 19.7292 280.946 19.7767Z" fill="#FFFAEF"/>
<path d="M286.341 31.6692C286.341 31.7099 286.322 31.7506 286.297 31.7506C286.272 31.7506 286.254 31.7167 286.254 31.6692C286.254 31.6286 286.272 31.5879 286.297 31.5879C286.319 31.5879 286.341 31.6286 286.341 31.6692Z" fill="#FFFAEF"/>
<path d="M288.368 26.4407C288.368 26.4882 288.35 26.5221 288.325 26.5221C288.299 26.5221 288.281 26.4882 288.281 26.4407C288.281 26.4 288.299 26.3594 288.325 26.3594C288.35 26.3594 288.368 26.4 288.368 26.4407Z" fill="#FFFAEF"/>
<path d="M301.18 26.5227C301.18 26.5634 301.162 26.6041 301.137 26.6041C301.112 26.6041 301.094 26.5702 301.094 26.5227C301.094 26.4753 301.112 26.4414 301.137 26.4414C301.162 26.4414 301.18 26.4753 301.18 26.5227Z" fill="#FFFAEF"/>
<path d="M303.7 19.7767C303.7 19.8241 303.682 19.858 303.657 19.858C303.631 19.858 303.613 19.8241 303.613 19.7767C303.613 19.736 303.631 19.6953 303.657 19.6953C303.682 19.6953 303.7 19.7292 303.7 19.7767Z" fill="#FFFAEF"/>
<path opacity="0.5" d="M304.45 32.0813C304.45 32.1288 304.432 32.1627 304.407 32.1627C304.381 32.1627 304.363 32.1288 304.363 32.0813C304.363 32.0407 304.381 32 304.407 32C304.432 32 304.45 32.0339 304.45 32.0813Z" fill="#FFFAEF"/>
<path opacity="0.5" d="M308.874 62.6438C308.874 62.6845 308.856 62.7252 308.83 62.7252C308.805 62.7252 308.787 62.6913 308.787 62.6438C308.787 62.5964 308.805 62.5625 308.83 62.5625C308.856 62.5625 308.874 62.6032 308.874 62.6438Z" fill="#FFFAEF"/>
<path opacity="0.5" d="M300.866 57.806C300.866 57.8466 300.848 57.8873 300.823 57.8873C300.797 57.8873 300.779 57.8534 300.779 57.806C300.779 57.7585 300.797 57.7246 300.823 57.7246C300.848 57.7246 300.866 57.7653 300.866 57.806Z" fill="#FFFAEF"/>
<path opacity="0.5" d="M296.844 66.9485C296.844 66.9892 296.826 67.0299 296.801 67.0299C296.776 67.0299 296.758 66.996 296.758 66.9485C296.758 66.9011 296.776 66.8672 296.801 66.8672C296.826 66.8672 296.844 66.9079 296.844 66.9485Z" fill="#FFFAEF"/>
<path opacity="0.5" d="M292.53 56.1556C292.53 56.203 292.512 56.2369 292.486 56.2369C292.461 56.2369 292.443 56.203 292.443 56.1556C292.443 56.1149 292.461 56.0742 292.486 56.0742C292.508 56.0742 292.53 56.1081 292.53 56.1556Z" fill="#FFFAEF"/>
<path opacity="0.5" d="M290.137 69.8431C290.137 69.8905 290.119 69.9244 290.094 69.9244C290.069 69.9244 290.051 69.8905 290.051 69.8431C290.051 69.8024 290.069 69.7617 290.094 69.7617C290.116 69.7617 290.137 69.8024 290.137 69.8431Z" fill="#FFFAEF"/>
<path opacity="0.5" d="M285.68 75.6712C285.68 75.7119 285.662 75.7525 285.637 75.7525C285.612 75.7525 285.594 75.7186 285.594 75.6712C285.594 75.6237 285.612 75.5898 285.637 75.5898C285.662 75.5898 285.68 75.6305 285.68 75.6712Z" fill="#FFFAEF"/>
<path opacity="0.5" d="M268.962 37.0501C268.962 37.0976 268.944 37.1314 268.918 37.1314C268.893 37.1314 268.875 37.0976 268.875 37.0501C268.875 37.0094 268.893 36.9688 268.918 36.9688C268.944 36.9688 268.962 37.0027 268.962 37.0501Z" fill="#FFFAEF"/>
<path d="M255.026 35.4251C255.026 35.4658 255.008 35.5064 254.983 35.5064C254.957 35.5064 254.939 35.4726 254.939 35.4251C254.939 35.3777 254.957 35.3438 254.983 35.3438C255.008 35.3438 255.026 35.3777 255.026 35.4251Z" fill="#FFFAEF"/>
<path opacity="0.5" d="M298.712 75.3509C298.712 75.3915 298.694 75.4322 298.668 75.4322C298.643 75.4322 298.625 75.3983 298.625 75.3509C298.625 75.3034 298.643 75.2695 298.668 75.2695C298.694 75.2695 298.712 75.3034 298.712 75.3509Z" fill="#FFFAEF"/>
<path opacity="0.5" d="M285.178 55.6692C285.178 55.7099 285.16 55.7506 285.135 55.7506C285.11 55.7506 285.092 55.7167 285.092 55.6692C285.092 55.6218 285.11 55.5879 285.135 55.5879C285.157 55.5879 285.178 55.6218 285.178 55.6692Z" fill="#FFFAEF"/>
<path opacity="0.5" d="M292.313 76.9759C292.313 77.0165 292.295 77.0572 292.27 77.0572C292.245 77.0572 292.227 77.0233 292.227 76.9759C292.227 76.9284 292.245 76.8945 292.27 76.8945C292.295 76.8945 292.313 76.9284 292.313 76.9759Z" fill="#FFFAEF"/>
<path opacity="0.5" d="M285.68 55.9935C285.68 56.0341 285.662 56.0748 285.637 56.0748C285.612 56.0748 285.594 56.0409 285.594 55.9935C285.594 55.946 285.612 55.9121 285.637 55.9121C285.662 55.9121 285.68 55.9528 285.68 55.9935Z" fill="#FFFAEF"/>
<path opacity="0.5" d="M307.012 72.9563C307.012 72.997 306.994 73.0377 306.969 73.0377C306.944 73.0377 306.926 73.0038 306.926 72.9563C306.926 72.9089 306.944 72.875 306.969 72.875C306.991 72.875 307.012 72.9089 307.012 72.9563Z" fill="#FFFAEF"/>
<path opacity="0.5" d="M298.466 77.5911C298.466 77.6318 298.447 77.6724 298.422 77.6724C298.397 77.6724 298.379 77.6386 298.379 77.5911C298.379 77.5437 298.397 77.5098 298.422 77.5098C298.444 77.5098 298.466 77.5437 298.466 77.5911Z" fill="#FFFAEF"/>
<path d="M286.778 82.9759C286.778 83.0165 286.76 83.0572 286.735 83.0572C286.709 83.0572 286.691 83.0233 286.691 82.9759C286.691 82.9284 286.709 82.8945 286.735 82.8945C286.756 82.8945 286.778 82.9284 286.778 82.9759Z" fill="#FFFAEF"/>
<path d="M282.145 91.347C282.145 91.3877 282.127 91.4283 282.102 91.4283C282.077 91.4283 282.059 91.3944 282.059 91.347C282.059 91.2995 282.077 91.2656 282.102 91.2656C282.127 91.2656 282.145 91.2995 282.145 91.347Z" fill="#FFFAEF"/>
<path d="M286.821 95.4524C286.821 95.4931 286.803 95.5338 286.778 95.5338C286.752 95.5338 286.734 95.4999 286.734 95.4524C286.734 95.405 286.752 95.3711 286.778 95.3711C286.799 95.3711 286.821 95.405 286.821 95.4524Z" fill="#FFFAEF"/>
<path d="M245.827 115.859C245.827 115.899 245.809 115.94 245.784 115.94C245.758 115.94 245.74 115.906 245.74 115.859C245.74 115.811 245.758 115.777 245.784 115.777C245.805 115.777 245.827 115.811 245.827 115.859Z" fill="#FFFAEF"/>
<path d="M251.073 97.6185C251.073 97.6591 251.055 97.6998 251.03 97.6998C251.004 97.6998 250.986 97.6659 250.986 97.6185C250.986 97.571 251.004 97.5371 251.03 97.5371C251.051 97.5439 251.073 97.5778 251.073 97.6185Z" fill="#FFFAEF"/>
<path d="M292.999 123.429C292.999 123.47 292.981 123.51 292.955 123.51C292.93 123.51 292.912 123.476 292.912 123.429C292.912 123.382 292.93 123.348 292.955 123.348C292.981 123.348 292.999 123.388 292.999 123.429Z" fill="#FFFAEF"/>
<path d="M267.868 119.452C267.868 119.493 267.85 119.534 267.825 119.534C267.799 119.534 267.781 119.5 267.781 119.452C267.781 119.405 267.799 119.371 267.825 119.371C267.85 119.371 267.868 119.405 267.868 119.452Z" fill="#FFFAEF"/>
<path d="M263.385 109.898C263.385 109.938 263.367 109.979 263.342 109.979C263.317 109.979 263.299 109.945 263.299 109.898C263.299 109.85 263.317 109.816 263.342 109.816C263.364 109.823 263.385 109.857 263.385 109.898Z" fill="#FFFAEF"/>
<path opacity="0.5" d="M302.462 49.3216C302.462 49.3622 302.444 49.4029 302.418 49.4029C302.393 49.4029 302.375 49.369 302.375 49.3216C302.375 49.2741 302.393 49.2402 302.418 49.2402C302.444 49.2402 302.462 49.2741 302.462 49.3216Z" fill="#FFFAEF"/>
<path opacity="0.5" d="M312.594 76.9759C312.594 77.0165 312.576 77.0572 312.551 77.0572C312.526 77.0572 312.508 77.0233 312.508 76.9759C312.508 76.9284 312.526 76.8945 312.551 76.8945C312.576 76.8945 312.594 76.9284 312.594 76.9759Z" fill="#FFFAEF"/>
<path d="M236.328 25.9671C236.328 26.055 236.289 26.1295 236.242 26.1295C236.196 26.1295 236.156 26.055 236.156 25.9671C236.156 25.8791 236.196 25.8047 236.242 25.8047C236.289 25.8115 236.328 25.8791 236.328 25.9671Z" fill="#FFFAEF"/>
<path d="M237.59 14.5257C237.59 14.6136 237.551 14.688 237.504 14.688C237.457 14.688 237.418 14.6136 237.418 14.5257C237.418 14.4377 237.457 14.3633 237.504 14.3633C237.551 14.3633 237.59 14.4377 237.59 14.5257Z" fill="#FFFAEF"/>
<path d="M238.393 1.52176C238.393 1.60972 238.353 1.68414 238.307 1.68414C238.26 1.68414 238.221 1.60972 238.221 1.52176C238.221 1.4338 238.26 1.35938 238.307 1.35938C238.357 1.35938 238.393 1.4338 238.393 1.52176Z" fill="#FFFAEF"/>
<path d="M247.869 15.4241C247.869 15.5121 247.83 15.5865 247.783 15.5865C247.737 15.5865 247.697 15.5121 247.697 15.4241C247.697 15.3361 247.737 15.2617 247.783 15.2617C247.83 15.2617 247.869 15.3361 247.869 15.4241Z" fill="#FFFAEF"/>
<path d="M247.787 33.8811C247.787 33.9691 247.748 34.0435 247.701 34.0435C247.655 34.0435 247.615 33.9691 247.615 33.8811C247.615 33.7932 247.655 33.7188 247.701 33.7188C247.748 33.7188 247.787 33.7932 247.787 33.8811Z" fill="#FFFAEF"/>
<path opacity="0.5" d="M267.328 32.5686C267.328 32.6566 267.289 32.731 267.242 32.731C267.196 32.731 267.156 32.6566 267.156 32.5686C267.156 32.4807 267.196 32.4062 267.242 32.4062C267.289 32.413 267.328 32.4807 267.328 32.5686Z" fill="#FFFAEF"/>
<path opacity="0.5" d="M276.793 31.9202C276.793 32.0081 276.754 32.0826 276.707 32.0826C276.661 32.0826 276.621 32.0081 276.621 31.9202C276.621 31.8322 276.661 31.7578 276.707 31.7578C276.754 31.7578 276.793 31.8322 276.793 31.9202Z" fill="#FFFAEF"/>
<path opacity="0.5" d="M297.733 59.5725C297.733 59.6605 297.693 59.7349 297.647 59.7349C297.6 59.7349 297.561 59.6605 297.561 59.5725C297.561 59.4846 297.6 59.4102 297.647 59.4102C297.693 59.4102 297.733 59.4846 297.733 59.5725Z" fill="#FFFAEF"/>
<path opacity="0.5" d="M301.571 47.6975C301.571 47.7855 301.531 47.8599 301.484 47.8599C301.438 47.8599 301.398 47.7855 301.398 47.6975C301.398 47.6096 301.438 47.5352 301.484 47.5352C301.535 47.5352 301.571 47.6096 301.571 47.6975Z" fill="#FFFAEF"/>
<path opacity="0.5" d="M295.156 74.2483C295.156 74.3363 295.117 74.4107 295.07 74.4107C295.024 74.4107 294.984 74.3363 294.984 74.2483C294.984 74.1604 295.024 74.0859 295.07 74.0859C295.121 74.0859 295.156 74.1604 295.156 74.2483Z" fill="#FFFAEF"/>
<path opacity="0.5" d="M292.27 65.0686C292.27 65.1566 292.23 65.231 292.184 65.231C292.137 65.231 292.098 65.1566 292.098 65.0686C292.098 64.9807 292.137 64.9062 292.184 64.9062C292.234 64.913 292.27 64.9807 292.27 65.0686Z" fill="#FFFAEF"/>
<path opacity="0.5" d="M304.153 54.6214C304.153 54.7093 304.113 54.7838 304.067 54.7838C304.02 54.7838 303.98 54.7093 303.98 54.6214C303.98 54.5334 304.02 54.459 304.067 54.459C304.113 54.4658 304.153 54.5334 304.153 54.6214Z" fill="#FFFAEF"/>
<path opacity="0.5" d="M294.781 36.8108C294.781 36.8988 294.742 36.9732 294.695 36.9732C294.649 36.9732 294.609 36.8988 294.609 36.8108C294.609 36.7229 294.649 36.6484 294.695 36.6484C294.746 36.6484 294.781 36.7229 294.781 36.8108Z" fill="#FFFAEF"/>
<path opacity="0.5" d="M308.153 36.2776C308.153 36.3656 308.113 36.44 308.067 36.44C308.02 36.44 307.98 36.3656 307.98 36.2776C307.98 36.1897 308.02 36.1152 308.067 36.1152C308.113 36.1152 308.153 36.1897 308.153 36.2776Z" fill="#FFFAEF"/>
<path d="M304.946 20.7561C304.946 20.8441 304.906 20.9185 304.86 20.9185C304.813 20.9185 304.773 20.8441 304.773 20.7561C304.773 20.6682 304.813 20.5938 304.86 20.5938C304.906 20.5938 304.946 20.6682 304.946 20.7561Z" fill="#FFFAEF"/>
<path opacity="0.5" d="M273.11 23.1038C273.11 23.1917 273.07 23.2662 273.024 23.2662C272.977 23.2662 272.938 23.1917 272.938 23.1038C272.938 23.0158 272.977 22.9414 273.024 22.9414C273.074 22.9414 273.11 23.0158 273.11 23.1038Z" fill="#FFFAEF"/>
<path opacity="0.5" d="M274.684 55.8303C274.684 55.9183 274.644 55.9927 274.598 55.9927C274.551 55.9927 274.512 55.9183 274.512 55.8303C274.512 55.7424 274.551 55.668 274.598 55.668C274.644 55.668 274.684 55.7424 274.684 55.8303Z" fill="#FFFAEF"/>
<path opacity="0.5" d="M283.117 48.5764C283.117 48.6644 283.078 48.7388 283.031 48.7388C282.985 48.7388 282.945 48.6644 282.945 48.5764C282.945 48.4885 282.985 48.4141 283.031 48.4141C283.078 48.4141 283.117 48.4885 283.117 48.5764Z" fill="#FFFAEF"/>
<path opacity="0.5" d="M282.174 65.594C282.174 65.682 282.135 65.7564 282.088 65.7564C282.041 65.7564 282.002 65.682 282.002 65.594C282.002 65.5061 282.041 65.4316 282.088 65.4316C282.135 65.4316 282.174 65.5061 282.174 65.594Z" fill="#FFFAEF"/>
<path opacity="0.5" d="M289.512 59.8968C289.512 59.9847 289.473 60.0591 289.426 60.0591C289.379 60.0591 289.34 59.9847 289.34 59.8968C289.34 59.8088 289.379 59.7344 289.426 59.7344C289.476 59.7411 289.512 59.8088 289.512 59.8968Z" fill="#FFFAEF"/>
<path opacity="0.5" d="M298.42 56.5335C298.42 56.6214 298.381 56.6958 298.334 56.6958C298.287 56.6958 298.248 56.6214 298.248 56.5335C298.248 56.4455 298.287 56.3711 298.334 56.3711C298.381 56.3711 298.42 56.4455 298.42 56.5335Z" fill="#FFFAEF"/>
<path opacity="0.5" d="M300.217 49.4632C300.217 49.5511 300.178 49.6256 300.131 49.6256C300.084 49.6256 300.045 49.5511 300.045 49.4632C300.045 49.3752 300.084 49.3008 300.131 49.3008C300.178 49.3008 300.217 49.3752 300.217 49.4632Z" fill="#FFFAEF"/>
<path opacity="0.5" d="M302.629 67.8889C302.629 67.9769 302.59 68.0513 302.543 68.0513C302.496 68.0513 302.457 67.9769 302.457 67.8889C302.457 67.801 302.496 67.7266 302.543 67.7266C302.59 67.7266 302.629 67.801 302.629 67.8889Z" fill="#FFFAEF"/>
<path opacity="0.5" d="M305.867 56.3733C305.867 56.4613 305.828 56.5357 305.781 56.5357C305.735 56.5357 305.695 56.4613 305.695 56.3733C305.695 56.2854 305.735 56.2109 305.781 56.2109C305.828 56.2177 305.867 56.2854 305.867 56.3733Z" fill="#FFFAEF"/>
<path opacity="0.5" d="M314 65.2288C314 65.3167 313.961 65.3912 313.914 65.3912C313.868 65.3912 313.828 65.3167 313.828 65.2288C313.828 65.1408 313.868 65.0664 313.914 65.0664C313.961 65.0664 314 65.1408 314 65.2288Z" fill="#FFFAEF"/>
<path opacity="0.5" d="M314 53.0237C314 53.1117 313.961 53.1861 313.914 53.1861C313.868 53.1861 313.828 53.1117 313.828 53.0237C313.828 52.9358 313.868 52.8613 313.914 52.8613C313.961 52.8613 314 52.9358 314 53.0237Z" fill="#FFFAEF"/>
<path opacity="0.5" d="M296.219 26.2034C296.219 26.2914 296.18 26.3658 296.133 26.3658C296.086 26.3658 296.047 26.2914 296.047 26.2034C296.047 26.1154 296.086 26.041 296.133 26.041C296.18 26.0478 296.219 26.1154 296.219 26.2034Z" fill="#FFFAEF"/>
<path d="M268.742 82.4964C268.742 82.5843 268.703 82.6587 268.656 82.6587C268.61 82.6587 268.57 82.5843 268.57 82.4964C268.57 82.4084 268.61 82.334 268.656 82.334C268.707 82.334 268.742 82.4084 268.742 82.4964Z" fill="#FFFAEF"/>
<path d="M284.436 82.4358C284.436 82.5238 284.396 82.5982 284.35 82.5982C284.303 82.5982 284.264 82.5238 284.264 82.4358C284.264 82.3479 284.303 82.2734 284.35 82.2734C284.4 82.2802 284.436 82.3479 284.436 82.4358Z" fill="#FFFAEF"/>
<path d="M252.467 68.4222C252.467 68.5101 252.427 68.5845 252.381 68.5845C252.334 68.5845 252.295 68.5101 252.295 68.4222C252.295 68.3342 252.334 68.2598 252.381 68.2598C252.427 68.2665 252.467 68.3342 252.467 68.4222Z" fill="#FFFAEF"/>
<path d="M269.455 84.3499C269.455 84.4378 269.416 84.5123 269.369 84.5123C269.323 84.5123 269.283 84.4378 269.283 84.3499C269.283 84.2619 269.323 84.1875 269.369 84.1875C269.416 84.1875 269.455 84.2619 269.455 84.3499Z" fill="#FFFAEF"/>
<path d="M253.821 74.8635C253.821 74.9515 253.781 75.0259 253.734 75.0259C253.688 75.0259 253.648 74.9515 253.648 74.8635C253.648 74.7756 253.688 74.7012 253.734 74.7012C253.781 74.7079 253.821 74.7756 253.821 74.8635Z" fill="#FFFAEF"/>
<path d="M257.5 85.8303C257.5 85.9183 257.461 85.9927 257.414 85.9927C257.368 85.9927 257.328 85.9183 257.328 85.8303C257.328 85.7424 257.368 85.668 257.414 85.668C257.464 85.6747 257.5 85.7424 257.5 85.8303Z" fill="#FFFAEF"/>
<path d="M289.678 87.7874C289.678 87.8753 289.639 87.9498 289.592 87.9498C289.545 87.9498 289.506 87.8753 289.506 87.7874C289.506 87.6994 289.545 87.625 289.592 87.625C289.639 87.625 289.678 87.6994 289.678 87.7874Z" fill="#FFFAEF"/>
<path d="M290.178 79.6878C290.178 79.7757 290.139 79.8501 290.092 79.8501C290.045 79.8501 290.006 79.7757 290.006 79.6878C290.006 79.5998 290.045 79.5254 290.092 79.5254C290.139 79.5254 290.178 79.5998 290.178 79.6878Z" fill="#FFFAEF"/>
<path d="M270.463 114.059C270.463 114.147 270.424 114.221 270.377 114.221C270.33 114.221 270.291 114.147 270.291 114.059C270.291 113.971 270.33 113.896 270.377 113.896C270.424 113.896 270.463 113.971 270.463 114.059Z" fill="#FFFAEF"/>
<path d="M271.399 106.561C271.399 106.649 271.359 106.723 271.313 106.723C271.266 106.723 271.227 106.649 271.227 106.561C271.227 106.473 271.266 106.398 271.313 106.398C271.363 106.398 271.399 106.473 271.399 106.561Z" fill="#FFFAEF"/>
<path d="M284.067 119.289C284.067 119.377 284.027 119.452 283.981 119.452C283.934 119.452 283.895 119.377 283.895 119.289C283.895 119.201 283.934 119.127 283.981 119.127C284.027 119.127 284.067 119.201 284.067 119.289Z" fill="#FFFAEF"/>
<path d="M286.735 114.959C286.735 115.047 286.695 115.122 286.649 115.122C286.602 115.122 286.562 115.047 286.562 114.959C286.562 114.871 286.602 114.797 286.649 114.797C286.695 114.797 286.735 114.871 286.735 114.959Z" fill="#FFFAEF"/>
<path d="M252.742 109.045C252.742 109.133 252.703 109.208 252.656 109.208C252.61 109.208 252.57 109.133 252.57 109.045C252.57 108.957 252.61 108.883 252.656 108.883C252.707 108.883 252.742 108.957 252.742 109.045Z" fill="#FFFAEF"/>
<path d="M264.465 79.5257C264.465 79.6136 264.426 79.6881 264.379 79.6881C264.332 79.6881 264.293 79.6136 264.293 79.5257C264.293 79.4377 264.332 79.3633 264.379 79.3633C264.426 79.37 264.465 79.4377 264.465 79.5257Z" fill="#FFFAEF"/>
<path d="M283.203 79.221C283.203 79.3089 283.164 79.3833 283.117 79.3833C283.071 79.3833 283.031 79.3089 283.031 79.221C283.031 79.133 283.071 79.0586 283.117 79.0586C283.164 79.0654 283.203 79.133 283.203 79.221Z" fill="#FFFAEF"/>
<path d="M284.067 85.9944C284.067 86.0824 284.027 86.1568 283.981 86.1568C283.934 86.1568 283.895 86.0824 283.895 85.9944C283.895 85.9065 283.934 85.832 283.981 85.832C284.027 85.832 284.067 85.9065 284.067 85.9944Z" fill="#FFFAEF"/>
<path opacity="0.5" d="M291.004 73.1311C291.004 73.2191 290.965 73.2935 290.918 73.2935C290.871 73.2935 290.832 73.2191 290.832 73.1311C290.832 73.0432 290.871 72.9688 290.918 72.9688C290.965 72.9688 291.004 73.0432 291.004 73.1311Z" fill="#FFFAEF"/>
<path d="M264.057 23.3343C264.057 23.4222 264.017 23.4966 263.971 23.4966C263.924 23.4966 263.885 23.4222 263.885 23.3343C263.885 23.2463 263.924 23.1719 263.971 23.1719C264.017 23.1719 264.057 23.2463 264.057 23.3343Z" fill="#FFFAEF"/>
<path d="M247.869 66.1018C247.869 66.1898 247.83 66.2642 247.783 66.2642C247.737 66.2642 247.697 66.1898 247.697 66.1018C247.697 66.0139 247.737 65.9395 247.783 65.9395C247.83 65.9395 247.869 66.0139 247.869 66.1018Z" fill="#FFFAEF"/>
<path d="M247.869 56.637C247.869 56.7249 247.83 56.7994 247.783 56.7994C247.737 56.7994 247.697 56.7249 247.697 56.637C247.697 56.549 247.737 56.4746 247.783 56.4746C247.83 56.4746 247.869 56.549 247.869 56.637Z" fill="#FFFAEF"/>
<path d="M239.789 53.6585C239.789 53.7464 239.75 53.8208 239.703 53.8208C239.657 53.8208 239.617 53.7464 239.617 53.6585C239.617 53.5705 239.657 53.4961 239.703 53.4961C239.75 53.5029 239.789 53.5705 239.789 53.6585Z" fill="#FFFAEF"/>
<path d="M239.393 79.844C239.393 79.932 239.353 80.0064 239.307 80.0064C239.26 80.0064 239.221 79.932 239.221 79.844C239.221 79.7561 239.26 79.6816 239.307 79.6816C239.353 79.6816 239.393 79.7561 239.393 79.844Z" fill="#FFFAEF"/>
<path d="M246.916 82.6507C246.916 82.7386 246.877 82.8131 246.83 82.8131C246.784 82.8131 246.744 82.7386 246.744 82.6507C246.744 82.5627 246.784 82.4883 246.83 82.4883C246.877 82.495 246.916 82.5627 246.916 82.6507Z" fill="#FFFAEF"/>
<path d="M246.998 94.3772C246.998 94.4652 246.959 94.5396 246.912 94.5396C246.866 94.5396 246.826 94.4652 246.826 94.3772C246.826 94.2893 246.866 94.2148 246.912 94.2148C246.962 94.2216 246.998 94.2893 246.998 94.3772Z" fill="#FFFAEF"/>
<path d="M244.172 99.9925C244.172 100.08 244.133 100.155 244.086 100.155C244.039 100.155 244 100.08 244 99.9925C244 99.9045 244.039 99.8301 244.086 99.8301C244.133 99.8301 244.172 99.9045 244.172 99.9925Z" fill="#FFFAEF"/>
<path d="M236.78 95.2893C236.78 95.3773 236.74 95.4517 236.693 95.4517C236.647 95.4517 236.607 95.3773 236.607 95.2893C236.607 95.2014 236.647 95.127 236.693 95.127C236.744 95.127 236.78 95.2014 236.78 95.2893Z" fill="#FFFAEF"/>
<path d="M210.137 101.832C210.137 101.92 210.098 101.995 210.051 101.995C210.004 101.995 209.965 101.92 209.965 101.832C209.965 101.744 210.004 101.67 210.051 101.67C210.098 101.67 210.137 101.744 210.137 101.832Z" fill="#FFFAEF"/>
<path d="M212.938 91.5081C212.938 91.596 212.898 91.6705 212.852 91.6705C212.805 91.6705 212.766 91.596 212.766 91.5081C212.766 91.4201 212.805 91.3457 212.852 91.3457C212.898 91.3457 212.938 91.4201 212.938 91.5081Z" fill="#FFFAEF"/>
<path d="M204.362 95.885C204.362 95.973 204.322 96.0474 204.276 96.0474C204.229 96.0474 204.189 95.973 204.189 95.885C204.189 95.7971 204.229 95.7227 204.276 95.7227C204.322 95.7227 204.362 95.7971 204.362 95.885Z" fill="#FFFAEF"/>
<path d="M203.559 82.6507C203.559 82.7386 203.519 82.8131 203.473 82.8131C203.426 82.8131 203.387 82.7386 203.387 82.6507C203.387 82.5627 203.426 82.4883 203.473 82.4883C203.523 82.495 203.559 82.5627 203.559 82.6507Z" fill="#FFFAEF"/>
<path d="M191.385 85.0882C191.385 85.1761 191.346 85.2506 191.299 85.2506C191.252 85.2506 191.213 85.1761 191.213 85.0882C191.213 85.0002 191.252 84.9258 191.299 84.9258C191.346 84.9258 191.385 85.0002 191.385 85.0882Z" fill="#FFFAEF"/>
<path d="M196.379 76.5354C196.379 76.6234 196.34 76.6978 196.293 76.6978C196.246 76.6978 196.207 76.6234 196.207 76.5354C196.207 76.4475 196.246 76.373 196.293 76.373C196.34 76.373 196.379 76.4475 196.379 76.5354Z" fill="#FFFAEF"/>
<path d="M196.461 81.6155C196.461 81.7035 196.422 81.7779 196.375 81.7779C196.329 81.7779 196.289 81.7035 196.289 81.6155C196.289 81.5276 196.329 81.4531 196.375 81.4531C196.425 81.4531 196.461 81.5276 196.461 81.6155Z" fill="#FFFAEF"/>
<path d="M202.127 69.7405C202.127 69.8285 202.088 69.9029 202.041 69.9029C201.995 69.9029 201.955 69.8285 201.955 69.7405C201.955 69.6525 201.995 69.5781 202.041 69.5781C202.091 69.5781 202.127 69.6525 202.127 69.7405Z" fill="#FFFAEF"/>
<path d="M172.211 51.928C172.211 52.016 172.172 52.0904 172.125 52.0904C172.079 52.0904 172.039 52.016 172.039 51.928C172.039 51.84 172.079 51.7656 172.125 51.7656C172.172 51.7724 172.211 51.84 172.211 51.928Z" fill="#FFFAEF"/>
<path d="M169.563 59.43C169.563 59.5179 169.523 59.5923 169.477 59.5923C169.43 59.5923 169.391 59.5179 169.391 59.43C169.391 59.342 169.43 59.2676 169.477 59.2676C169.523 59.2676 169.563 59.342 169.563 59.43Z" fill="#FFFAEF"/>
<path d="M176.412 63.6311C176.412 63.7191 176.373 63.7935 176.326 63.7935C176.28 63.7935 176.24 63.7191 176.24 63.6311C176.24 63.5432 176.28 63.4688 176.326 63.4688C176.376 63.4688 176.412 63.5432 176.412 63.6311Z" fill="#FFFAEF"/>
<path d="M204.362 104.94C204.362 105.028 204.322 105.102 204.276 105.102C204.229 105.102 204.189 105.028 204.189 104.94C204.189 104.852 204.229 104.777 204.276 104.777C204.322 104.784 204.362 104.852 204.362 104.94Z" fill="#FFFAEF"/>
<path d="M208.438 94.8577C208.438 94.9456 208.398 95.0201 208.352 95.0201C208.305 95.0201 208.266 94.9456 208.266 94.8577C208.266 94.7697 208.305 94.6953 208.352 94.6953C208.398 94.6953 208.438 94.7697 208.438 94.8577Z" fill="#FFFAEF"/>
<path d="M200.776 115.44C200.776 115.528 200.736 115.602 200.69 115.602C200.643 115.602 200.604 115.528 200.604 115.44C200.604 115.352 200.643 115.277 200.69 115.277C200.736 115.277 200.776 115.352 200.776 115.44Z" fill="#FFFAEF"/>
<path d="M212.684 110.608C212.684 110.696 212.644 110.77 212.598 110.77C212.551 110.77 212.512 110.696 212.512 110.608C212.512 110.52 212.551 110.445 212.598 110.445C212.648 110.445 212.684 110.52 212.684 110.608Z" fill="#FFFAEF"/>
<path d="M216.461 99.0315C216.461 99.1195 216.422 99.1939 216.375 99.1939C216.329 99.1939 216.289 99.1195 216.289 99.0315C216.289 98.9436 216.329 98.8691 216.375 98.8691C216.425 98.8691 216.461 98.9436 216.461 99.0315Z" fill="#FFFAEF"/>
<path d="M219.959 99.6663C219.959 99.7542 219.92 99.8287 219.873 99.8287C219.827 99.8287 219.787 99.7542 219.787 99.6663C219.787 99.5783 219.827 99.5039 219.873 99.5039C219.92 99.5039 219.959 99.5783 219.959 99.6663Z" fill="#FFFAEF"/>
<path d="M229.449 16.3772C229.449 16.4652 229.41 16.5396 229.363 16.5396C229.317 16.5396 229.277 16.4652 229.277 16.3772C229.277 16.2893 229.317 16.2148 229.363 16.2148C229.414 16.2216 229.449 16.2893 229.449 16.3772Z" fill="#FFFAEF"/>
<path d="M241.649 39.8362C241.649 39.9242 241.609 39.9986 241.563 39.9986C241.516 39.9986 241.477 39.9242 241.477 39.8362C241.477 39.7483 241.516 39.6738 241.563 39.6738C241.609 39.6738 241.649 39.7483 241.649 39.8362Z" fill="#FFFAEF"/>
<path d="M245.063 46.346C245.063 46.4339 245.023 46.5083 244.977 46.5083C244.93 46.5083 244.891 46.4339 244.891 46.346C244.891 46.258 244.93 46.1836 244.977 46.1836C245.027 46.1836 245.063 46.258 245.063 46.346Z" fill="#FFFAEF"/>
<path d="M236.196 52.4085C236.196 52.4964 236.156 52.5708 236.109 52.5708C236.063 52.5708 236.023 52.4964 236.023 52.4085C236.023 52.3205 236.063 52.2461 236.109 52.2461C236.16 52.2529 236.196 52.3205 236.196 52.4085Z" fill="#FFFAEF"/>
<path d="M225.281 25.885C225.281 25.973 225.242 26.0474 225.195 26.0474C225.149 26.0474 225.109 25.973 225.109 25.885C225.109 25.7971 225.149 25.7227 225.195 25.7227C225.242 25.7294 225.281 25.7971 225.281 25.885Z" fill="#FFFAEF"/>
<path d="M223.098 21.2503C223.098 21.3382 223.058 21.4127 223.012 21.4127C222.965 21.4127 222.926 21.3382 222.926 21.2503C222.926 21.1623 222.965 21.0879 223.012 21.0879C223.062 21.0947 223.098 21.1623 223.098 21.2503Z" fill="#FFFAEF"/>
<path d="M225.194 2.54325C225.194 2.6312 225.154 2.70563 225.108 2.70563C225.061 2.70563 225.021 2.6312 225.021 2.54325C225.021 2.45529 225.061 2.38086 225.108 2.38086C225.158 2.38086 225.194 2.45529 225.194 2.54325Z" fill="#FFFAEF"/>
<path d="M233.766 14.0725C233.766 14.1605 233.726 14.2349 233.68 14.2349C233.633 14.2349 233.594 14.1605 233.594 14.0725C233.594 13.9846 233.633 13.9102 233.68 13.9102C233.726 13.9102 233.766 13.9846 233.766 14.0725Z" fill="#FFFAEF"/>
<path d="M228.742 26.9339C228.742 27.0218 228.703 27.0962 228.656 27.0962C228.61 27.0962 228.57 27.0218 228.57 26.9339C228.57 26.8459 228.61 26.7715 228.656 26.7715C228.703 26.7715 228.742 26.8459 228.742 26.9339Z" fill="#FFFAEF"/>
<path d="M167.446 16.7307C167.446 16.8187 167.406 16.8931 167.363 16.8931C167.317 16.8931 167.277 16.8187 167.277 16.7307C167.277 16.6428 167.317 16.5684 167.363 16.5684C167.41 16.5684 167.446 16.6428 167.446 16.7307Z" fill="#FFFAEF"/>
<path d="M161.672 19.397C161.72 19.397 161.758 19.3243 161.758 19.2347C161.758 19.145 161.72 19.0723 161.672 19.0723C161.624 19.0723 161.586 19.145 161.586 19.2347C161.586 19.3243 161.624 19.397 161.672 19.397Z" fill="#FFFAEF"/>
<path d="M163.082 35.0471C163.082 35.1351 163.043 35.2095 162.996 35.2095C162.95 35.2095 162.91 35.1351 162.91 35.0471C162.91 34.9592 162.95 34.8848 162.996 34.8848C163.046 34.8848 163.082 34.9592 163.082 35.0471Z" fill="#FFFAEF"/>
<path d="M119.926 38.8811C119.926 38.9691 119.887 39.0435 119.84 39.0435C119.793 39.0435 119.754 38.9691 119.754 38.8811C119.754 38.7932 119.793 38.7188 119.84 38.7188C119.89 38.7188 119.926 38.7932 119.926 38.8811Z" fill="#FFFAEF"/>
<path d="M123.057 52.2522C123.057 52.3402 123.017 52.4146 122.971 52.4146C122.924 52.4146 122.885 52.3402 122.885 52.2522C122.885 52.1643 122.924 52.0898 122.971 52.0898C123.017 52.0898 123.057 52.1643 123.057 52.2522Z" fill="#FFFAEF"/>
<path opacity="0.5" d="M61.719 48.7542C61.719 48.8421 61.6795 48.9166 61.6329 48.9166C61.5863 48.9166 61.5469 48.8421 61.5469 48.7542C61.5469 48.6662 61.5863 48.5918 61.6329 48.5918C61.6795 48.5918 61.719 48.6662 61.719 48.7542Z" fill="#FFFAEF"/>
<path d="M82.606 58.9983C82.606 59.0863 82.5666 59.1607 82.5236 59.1607C82.4769 59.1607 82.4375 59.0863 82.4375 58.9983C82.4375 58.9104 82.4769 58.8359 82.5236 58.8359C82.5666 58.8359 82.606 58.9104 82.606 58.9983Z" fill="#FFFAEF"/>
<path d="M227.797 11.1018C227.797 11.1898 227.758 11.2642 227.711 11.2642C227.664 11.2642 227.625 11.1898 227.625 11.1018C227.625 11.0139 227.664 10.9395 227.711 10.9395C227.758 10.9395 227.797 11.0139 227.797 11.1018Z" fill="#FFFAEF"/>
<path d="M206.34 26.0472C206.34 26.1351 206.301 26.2095 206.254 26.2095C206.207 26.2095 206.168 26.1351 206.168 26.0472C206.168 25.9592 206.207 25.8848 206.254 25.8848C206.304 25.8848 206.34 25.9592 206.34 26.0472Z" fill="#FFFAEF"/>
<path d="M183.033 53.5042C183.033 53.5921 182.994 53.6666 182.947 53.6666C182.901 53.6666 182.861 53.5921 182.861 53.5042C182.861 53.4162 182.901 53.3418 182.947 53.3418C182.998 53.3418 183.033 53.4162 183.033 53.5042Z" fill="#FFFAEF"/>
<path d="M124.344 16.0608C124.344 16.1488 124.305 16.2232 124.262 16.2232C124.215 16.2232 124.176 16.1488 124.176 16.0608C124.176 15.9729 124.215 15.8984 124.262 15.8984C124.305 15.9052 124.344 15.9729 124.344 16.0608Z" fill="#FFFAEF"/>
<path opacity="0.5" d="M58.9381 3.29324C58.9381 3.38119 58.8986 3.45562 58.8556 3.45562C58.809 3.45562 58.7695 3.38119 58.7695 3.29324C58.7695 3.20528 58.809 3.13086 58.8556 3.13086C58.8986 3.13086 58.9381 3.20528 58.9381 3.29324Z" fill="#FFFAEF"/>
<path opacity="0.5" d="M60.5279 13.2737C60.5279 13.3617 60.4885 13.4361 60.4454 13.4361C60.3988 13.4361 60.3594 13.3617 60.3594 13.2737C60.3594 13.1857 60.3988 13.1113 60.4454 13.1113C60.492 13.1113 60.5279 13.1857 60.5279 13.2737Z" fill="#FFFAEF"/>
<path d="M58.8518 23.8889C58.8518 23.9769 58.8124 24.0513 58.7657 24.0513C58.7191 24.0513 58.6797 23.9769 58.6797 23.8889C58.6797 23.801 58.7191 23.7266 58.7657 23.7266C58.8124 23.7333 58.8518 23.801 58.8518 23.8889Z" fill="#FFFAEF"/>
<path d="M57.383 17.0276C57.383 17.1156 57.3436 17.19 57.297 17.19C57.2504 17.19 57.2109 17.1156 57.2109 17.0276C57.2109 16.9397 57.2504 16.8652 57.297 16.8652C57.3472 16.872 57.383 16.9397 57.383 17.0276Z" fill="#FFFAEF"/>
<path opacity="0.5" d="M61.9224 7.26004C61.9224 7.348 61.883 7.42243 61.84 7.42243C61.7934 7.42243 61.7539 7.348 61.7539 7.26004C61.7539 7.17209 61.7934 7.09766 61.84 7.09766C61.883 7.09766 61.9224 7.17209 61.9224 7.26004Z" fill="#FFFAEF"/>
<path opacity="0.5" d="M64.0041 14.1604C64.0041 14.2484 63.9647 14.3228 63.9181 14.3228C63.8715 14.3228 63.832 14.2484 63.832 14.1604C63.832 14.0725 63.8715 13.998 63.9181 13.998C63.9647 13.998 64.0041 14.0725 64.0041 14.1604Z" fill="#FFFAEF"/>
<path d="M55.0705 26.6917C55.0705 26.7796 55.0311 26.8541 54.9845 26.8541C54.9379 26.8541 54.8984 26.7796 54.8984 26.6917C54.8984 26.6037 54.9379 26.5293 54.9845 26.5293C55.0311 26.5293 55.0705 26.6037 55.0705 26.6917Z" fill="#FFFAEF"/>
<path opacity="0.5" d="M35.4026 29.1936C35.4026 29.2816 35.3631 29.356 35.3165 29.356C35.2699 29.356 35.2305 29.2816 35.2305 29.1936C35.2305 29.1057 35.2699 29.0312 35.3165 29.0312C35.3631 29.038 35.4026 29.1057 35.4026 29.1936Z" fill="#FFFAEF"/>
<path d="M32.7795 36.9475C32.7795 37.0355 32.7401 37.1099 32.6935 37.1099C32.6469 37.1099 32.6074 37.0355 32.6074 36.9475C32.6074 36.8596 32.6469 36.7852 32.6935 36.7852C32.7437 36.7919 32.7795 36.8596 32.7795 36.9475Z" fill="#FFFAEF"/>
<path opacity="0.5" d="M33.2893 18.6038C33.2893 18.6918 33.2499 18.7662 33.2032 18.7662C33.1566 18.7662 33.1172 18.6918 33.1172 18.6038C33.1172 18.5158 33.1566 18.4414 33.2032 18.4414C33.2499 18.4482 33.2893 18.5158 33.2893 18.6038Z" fill="#FFFAEF"/>
<path opacity="0.5" d="M32.6956 61.7171C32.6956 61.805 32.6561 61.8795 32.6095 61.8795C32.5629 61.8795 32.5234 61.805 32.5234 61.7171C32.5234 61.6291 32.5629 61.5547 32.6095 61.5547C32.6561 61.5615 32.6956 61.6291 32.6956 61.7171Z" fill="#FFFAEF"/>
<path d="M28.1174 48.1311C28.1174 48.2191 28.078 48.2935 28.0314 48.2935C27.9848 48.2935 27.9453 48.2191 27.9453 48.1311C27.9453 48.0432 27.9848 47.9688 28.0314 47.9688C28.0816 47.9755 28.1174 48.0432 28.1174 48.1311Z" fill="#FFFAEF"/>
<path d="M17.4651 73.2874C17.4651 73.3753 17.4256 73.4498 17.379 73.4498C17.3324 73.4498 17.293 73.3753 17.293 73.2874C17.293 73.1994 17.3324 73.125 17.379 73.125C17.4292 73.125 17.4651 73.1994 17.4651 73.2874Z" fill="#FFFAEF"/>
<path opacity="0.5" d="M18.1584 62.8147C18.1584 62.9027 18.119 62.9771 18.0724 62.9771C18.0258 62.9771 17.9863 62.9027 17.9863 62.8147C17.9863 62.7268 18.0258 62.6523 18.0724 62.6523C18.119 62.6523 18.1584 62.7268 18.1584 62.8147Z" fill="#FFFAEF"/>
<path opacity="0.5" d="M22.6916 69.3557C22.6916 69.4437 22.6522 69.5181 22.6056 69.5181C22.559 69.5181 22.5195 69.4437 22.5195 69.3557C22.5195 69.2678 22.559 69.1934 22.6056 69.1934C22.6558 69.1934 22.6916 69.2678 22.6916 69.3557Z" fill="#FFFAEF"/>
<path d="M35.1213 64.5178C35.1213 64.6058 35.0819 64.6802 35.0353 64.6802C34.9887 64.6802 34.9492 64.6058 34.9492 64.5178C34.9492 64.4299 34.9887 64.3555 35.0353 64.3555C35.0855 64.3555 35.1213 64.4299 35.1213 64.5178Z" fill="#FFFAEF"/>
<path d="M36.0666 80.221C36.0666 80.3089 36.0272 80.3834 35.9806 80.3834C35.934 80.3834 35.8945 80.3089 35.8945 80.221C35.8945 80.133 35.934 80.0586 35.9806 80.0586C36.0272 80.0586 36.0666 80.133 36.0666 80.221Z" fill="#FFFAEF"/>
<path d="M41.5666 80.0061C41.5666 80.0941 41.5272 80.1685 41.4806 80.1685C41.434 80.1685 41.3945 80.0941 41.3945 80.0061C41.3945 79.9182 41.434 79.8438 41.4806 79.8438C41.5272 79.8438 41.5666 79.9182 41.5666 80.0061Z" fill="#FFFAEF"/>
<path d="M67.428 110.655C67.428 110.743 67.3885 110.817 67.3419 110.817C67.2953 110.817 67.2559 110.743 67.2559 110.655C67.2559 110.567 67.2953 110.492 67.3419 110.492C67.3921 110.492 67.428 110.567 67.428 110.655Z" fill="#FFFAEF"/>
<path d="M67.5159 91.6624C67.5159 91.7504 67.4764 91.8248 67.4298 91.8248C67.3832 91.8248 67.3438 91.7504 67.3438 91.6624C67.3438 91.5744 67.3832 91.5 67.4298 91.5C67.4764 91.5 67.5159 91.5744 67.5159 91.6624Z" fill="#FFFAEF"/>
<path d="M62.5627 95.3382C62.5627 95.4261 62.5233 95.5006 62.4767 95.5006C62.4301 95.5006 62.3906 95.4261 62.3906 95.3382C62.3906 95.2502 62.4301 95.1758 62.4767 95.1758C62.5269 95.1758 62.5627 95.2435 62.5627 95.3382Z" fill="#FFFAEF"/>
<path opacity="0.5" d="M67.3479 51.5745C67.3479 51.6625 67.3084 51.7369 67.2618 51.7369C67.2152 51.7369 67.1758 51.6625 67.1758 51.5745C67.1758 51.4865 67.2152 51.4121 67.2618 51.4121C67.3084 51.4121 67.3479 51.4798 67.3479 51.5745Z" fill="#FFFAEF"/>
<path d="M62.5627 58.9983C62.5627 59.0863 62.5233 59.1607 62.4767 59.1607C62.4301 59.1607 62.3906 59.0863 62.3906 58.9983C62.3906 58.9104 62.4301 58.8359 62.4767 58.8359C62.5269 58.8359 62.5627 58.9104 62.5627 58.9983Z" fill="#FFFAEF"/>
<path d="M47.3381 76.3733C47.3381 76.4613 47.2987 76.5357 47.2521 76.5357C47.2055 76.5357 47.166 76.4613 47.166 76.3733C47.166 76.2854 47.2055 76.2109 47.2521 76.2109C47.2987 76.2177 47.3381 76.2854 47.3381 76.3733Z" fill="#FFFAEF"/>
<path d="M36.2346 93.4769C36.2346 93.5648 36.1952 93.6392 36.1486 93.6392C36.1019 93.6392 36.0625 93.5648 36.0625 93.4769C36.0625 93.3889 36.1019 93.3145 36.1486 93.3145C36.1988 93.3145 36.2346 93.3889 36.2346 93.4769Z" fill="#FFFAEF"/>
<path opacity="0.5" d="M0.777581 35.0335C0.777581 35.1214 0.738138 35.1959 0.691525 35.1959C0.644911 35.1959 0.605469 35.1214 0.605469 35.0335C0.605469 34.9455 0.644911 34.8711 0.691525 34.8711C0.738138 34.8779 0.777581 34.9455 0.777581 35.0335Z" fill="#FFFAEF"/>
<path opacity="0.5" d="M9.29711 20.5198C9.29711 20.6078 9.25767 20.6822 9.21106 20.6822C9.16444 20.6822 9.125 20.6078 9.125 20.5198C9.125 20.4318 9.16444 20.3574 9.21106 20.3574C9.26126 20.3574 9.29711 20.4318 9.29711 20.5198Z" fill="#FFFAEF"/>
<path opacity="0.5" d="M25.8401 27.6585C25.8401 27.7464 25.8006 27.8209 25.754 27.8209C25.7074 27.8209 25.668 27.7464 25.668 27.6585C25.668 27.5705 25.7074 27.4961 25.754 27.4961C25.8006 27.4961 25.8401 27.5705 25.8401 27.6585Z" fill="#FFFAEF"/>
<path d="M106 9.19949C106 9.28744 105.961 9.36187 105.914 9.36187C105.868 9.36187 105.828 9.28744 105.828 9.19949C105.828 9.11153 105.868 9.03711 105.914 9.03711C105.961 9.04388 106 9.11153 106 9.19949Z" fill="#FFFAEF"/>
<path d="M175.067 38.7525C175.136 38.7525 175.192 38.6798 175.192 38.5901C175.192 38.5004 175.136 38.4277 175.067 38.4277C174.998 38.4277 174.941 38.5004 174.941 38.5901C174.941 38.6798 174.998 38.7525 175.067 38.7525Z" fill="#FFFAEF"/>
<path d="M211.733 0.0997324C211.733 0.302711 211.647 0.46509 211.539 0.46509C211.432 0.46509 211.346 0.302711 211.346 0.0997324C211.346 -0.103246 211.432 -0.265625 211.539 -0.265625C211.647 -0.265625 211.733 -0.0964805 211.733 0.0997324Z" fill="#FFFAEF"/>
<path d="M164.735 49.9591C164.735 50.1621 164.649 50.3245 164.541 50.3245C164.434 50.3245 164.348 50.1621 164.348 49.9591C164.348 49.7561 164.434 49.5938 164.541 49.5938C164.649 49.5938 164.735 49.7561 164.735 49.9591Z" fill="#FFFAEF"/>
<path d="M175.817 74.6075C175.817 74.8105 175.731 74.9729 175.623 74.9729C175.516 74.9729 175.43 74.8105 175.43 74.6075C175.43 74.4046 175.516 74.2422 175.623 74.2422C175.731 74.2422 175.817 74.4046 175.817 74.6075Z" fill="#FFFAEF"/>
<path d="M143.485 94.3771C143.485 94.5801 143.399 94.7425 143.291 94.7425C143.184 94.7425 143.098 94.5801 143.098 94.3771C143.098 94.1741 143.184 94.0117 143.291 94.0117C143.399 94.0117 143.485 94.1741 143.485 94.3771Z" fill="#FFFAEF"/>
<path d="M157.081 34.6818C157.081 34.8848 156.995 35.0471 156.887 35.0471C156.779 35.0471 156.693 34.8848 156.693 34.6818C156.693 34.4788 156.779 34.3164 156.887 34.3164C156.995 34.3164 157.081 34.4788 157.081 34.6818Z" fill="#FFFAEF"/>
<path d="M244.004 23.8009C244.004 24.0039 243.918 24.1663 243.811 24.1663C243.703 24.1663 243.617 24.0039 243.617 23.8009C243.617 23.5979 243.703 23.4355 243.811 23.4355C243.918 23.4355 244.004 23.6047 244.004 23.8009Z" fill="#FFFAEF"/>
<path d="M266.044 10.5177C266.044 10.7207 265.957 10.8831 265.85 10.8831C265.742 10.8831 265.656 10.7207 265.656 10.5177C265.656 10.3147 265.742 10.1523 265.85 10.1523C265.957 10.1591 266.044 10.3215 266.044 10.5177Z" fill="#FFFAEF"/>
<path d="M252.575 7.50208C252.575 7.70505 252.489 7.86743 252.381 7.86743C252.274 7.86743 252.188 7.70505 252.188 7.50208C252.188 7.2991 252.274 7.13672 252.381 7.13672C252.489 7.14348 252.575 7.30586 252.575 7.50208Z" fill="#FFFAEF"/>
<path opacity="0.5" d="M292.112 29.8165C292.112 30.0195 292.026 30.1819 291.918 30.1819C291.811 30.1819 291.725 30.0195 291.725 29.8165C291.725 29.6136 291.811 29.4512 291.918 29.4512C292.026 29.4512 292.112 29.6136 292.112 29.8165Z" fill="#FFFAEF"/>
<path d="M296.868 21.6154C296.868 21.8183 296.782 21.9807 296.674 21.9807C296.567 21.9807 296.481 21.8183 296.481 21.6154C296.481 21.4124 296.567 21.25 296.674 21.25C296.782 21.25 296.868 21.4124 296.868 21.6154Z" fill="#FFFAEF"/>
<path opacity="0.5" d="M285.637 68.4357C285.637 68.6386 285.551 68.801 285.444 68.801C285.336 68.801 285.25 68.6386 285.25 68.4357C285.25 68.2327 285.336 68.0703 285.444 68.0703C285.551 68.0703 285.637 68.2327 285.637 68.4357Z" fill="#FFFAEF"/>
<path opacity="0.5" d="M271.954 51.84C271.954 52.043 271.868 52.2053 271.76 52.2053C271.652 52.2053 271.566 52.043 271.566 51.84C271.566 51.637 271.652 51.4746 271.76 51.4746C271.864 51.4746 271.954 51.637 271.954 51.84Z" fill="#FFFAEF"/>
<path opacity="0.5" d="M256.823 25.8107C256.823 26.0136 256.737 26.176 256.629 26.176C256.522 26.176 256.436 26.0136 256.436 25.8107C256.436 25.6077 256.522 25.4453 256.629 25.4453C256.737 25.4453 256.823 25.6077 256.823 25.8107Z" fill="#FFFAEF"/>
<path opacity="0.5" d="M269.756 67.6994C269.756 67.9023 269.67 68.0647 269.563 68.0647C269.455 68.0647 269.369 67.9023 269.369 67.6994C269.369 67.4964 269.455 67.334 269.563 67.334C269.67 67.334 269.756 67.5031 269.756 67.6994Z" fill="#FFFAEF"/>
<path opacity="0.5" d="M279.602 73.4982C279.602 73.7012 279.516 73.8635 279.408 73.8635C279.301 73.8635 279.215 73.7012 279.215 73.4982C279.215 73.2952 279.301 73.1328 279.408 73.1328C279.516 73.1328 279.602 73.2952 279.602 73.4982Z" fill="#FFFAEF"/>
<path opacity="0.5" d="M309.952 58.172C309.952 58.375 309.866 58.5374 309.758 58.5374C309.651 58.5374 309.564 58.375 309.564 58.172C309.564 57.969 309.651 57.8066 309.758 57.8066C309.866 57.8066 309.952 57.969 309.952 58.172Z" fill="#FFFAEF"/>
<path opacity="0.5" d="M296.129 65.9591C296.129 66.1621 296.043 66.3245 295.936 66.3245C295.828 66.3245 295.742 66.1621 295.742 65.9591C295.742 65.7561 295.828 65.5938 295.936 65.5938C296.043 65.5938 296.129 65.7561 296.129 65.9591Z" fill="#FFFAEF"/>
<path d="M165.711 47.3888C165.711 47.5918 165.625 47.7542 165.518 47.7542C165.41 47.7542 165.324 47.5918 165.324 47.3888C165.324 47.1858 165.41 47.0234 165.518 47.0234C165.625 47.0234 165.711 47.1858 165.711 47.3888Z" fill="#FFFAEF"/>
<path d="M240.22 3.57804C240.22 3.84192 240.105 4.05843 239.966 4.05843C239.826 4.05843 239.711 3.84192 239.711 3.57804C239.711 3.31417 239.826 3.09766 239.966 3.09766C240.105 3.09766 240.22 3.31417 240.22 3.57804Z" fill="#FFFAEF"/>
<path d="M199.798 3.57804C199.798 3.84192 199.683 4.05843 199.544 4.05843C199.404 4.05843 199.289 3.84192 199.289 3.57804C199.289 3.31417 199.404 3.09766 199.544 3.09766C199.683 3.09766 199.798 3.31417 199.798 3.57804Z" fill="#FFFAEF"/>
<path d="M100.251 39.3573C100.251 39.6212 100.137 39.8377 99.9968 39.8377C99.8569 39.8377 99.7422 39.6212 99.7422 39.3573C99.7422 39.0935 99.8569 38.877 99.9968 38.877C100.137 38.8837 100.251 39.0935 100.251 39.3573Z" fill="#FFFAEF"/>
<path d="M94.0873 73.1913C94.0873 73.4552 93.9725 73.6717 93.8327 73.6717C93.6929 73.6717 93.5781 73.4552 93.5781 73.1913C93.5781 72.9274 93.6929 72.7109 93.8327 72.7109C93.9725 72.7177 94.0873 72.9274 94.0873 73.1913Z" fill="#FFFAEF"/>
<path d="M57.056 114.959C57.056 115.223 56.9413 115.439 56.8015 115.439C56.6616 115.439 56.5469 115.223 56.5469 114.959C56.5469 114.695 56.6616 114.479 56.8015 114.479C56.9413 114.479 57.056 114.695 57.056 114.959Z" fill="#FFFAEF"/>
<path opacity="0.5" d="M26.6771 64.7558C26.6771 65.0196 26.5624 65.2361 26.4226 65.2361C26.2827 65.2361 26.168 65.0196 26.168 64.7558C26.168 64.4919 26.2827 64.2754 26.4226 64.2754C26.566 64.2822 26.6771 64.4919 26.6771 64.7558Z" fill="#FFFAEF"/>
<path d="M3.47401 56.4472C3.47401 56.7111 3.35927 56.9276 3.21943 56.9276C3.07959 56.9276 2.96484 56.7111 2.96484 56.4472C2.96484 56.1833 3.07959 55.9668 3.21943 55.9668C3.35927 55.9668 3.47401 56.1833 3.47401 56.4472Z" fill="#FFFAEF"/>
<path d="M57.5931 74.6073C57.5931 74.8712 57.4784 75.0877 57.3386 75.0877C57.1987 75.0877 57.084 74.8712 57.084 74.6073C57.084 74.3435 57.1987 74.127 57.3386 74.127C57.4784 74.127 57.5931 74.3435 57.5931 74.6073Z" fill="#FFFAEF"/>
<path opacity="0.5" d="M27.181 65.9257C27.181 66.1896 27.0663 66.4061 26.9265 66.4061C26.7866 66.4061 26.6719 66.1896 26.6719 65.9257C26.6719 65.6618 26.7866 65.4453 26.9265 65.4453C27.0663 65.4453 27.181 65.6618 27.181 65.9257Z" fill="#FFFAEF"/>
<path opacity="0.5" d="M9.57948 31.4609C9.57948 31.7247 9.46474 31.9412 9.3249 31.9412C9.18505 31.9412 9.07031 31.7247 9.07031 31.4609C9.07031 31.197 9.18505 30.9805 9.3249 30.9805C9.46474 30.9805 9.57948 31.197 9.57948 31.4609Z" fill="#FFFAEF"/>
<path opacity="0.5" d="M14.9467 19.0858C14.9467 19.3497 14.8319 19.5662 14.6921 19.5662C14.5522 19.5662 14.4375 19.3497 14.4375 19.0858C14.4375 18.822 14.5522 18.6055 14.6921 18.6055C14.8319 18.6055 14.9467 18.822 14.9467 19.0858Z" fill="#FFFAEF"/>
<path d="M231.421 69.2616C231.421 69.5255 231.307 69.742 231.167 69.742C231.027 69.742 230.912 69.5255 230.912 69.2616C230.912 68.9978 231.027 68.7812 231.167 68.7812C231.307 68.7812 231.421 68.9978 231.421 69.2616Z" fill="#FFFAEF"/>
<path d="M207.872 88.2675C207.872 88.5314 207.758 88.7479 207.618 88.7479C207.478 88.7479 207.363 88.5314 207.363 88.2675C207.363 88.0036 207.478 87.7871 207.618 87.7871C207.758 87.7871 207.872 88.0036 207.872 88.2675Z" fill="#FFFAEF"/>
<path d="M208.122 111.09C208.122 111.354 208.008 111.57 207.868 111.57C207.728 111.57 207.613 111.354 207.613 111.09C207.613 110.826 207.728 110.609 207.868 110.609C208.011 110.609 208.122 110.826 208.122 111.09Z" fill="#FFFAEF"/>
<path d="M196.294 124.682C196.294 124.945 196.18 125.162 196.04 125.162C195.9 125.162 195.785 124.945 195.785 124.682C195.785 124.418 195.9 124.201 196.04 124.201C196.183 124.201 196.294 124.418 196.294 124.682Z" fill="#FFFAEF"/>
<path d="M153.431 145.82C153.431 146.084 153.316 146.301 153.176 146.301C153.037 146.301 152.922 146.084 152.922 145.82C152.922 145.556 153.037 145.34 153.176 145.34C153.316 145.347 153.431 145.556 153.431 145.82Z" fill="#FFFAEF"/>
<path d="M113.519 124.201C113.519 124.465 113.404 124.681 113.264 124.681C113.125 124.681 113.01 124.465 113.01 124.201C113.01 123.937 113.125 123.721 113.264 123.721C113.408 123.721 113.519 123.937 113.519 124.201Z" fill="#FFFAEF"/>
<path d="M63.9193 30.9394C63.9193 31.2032 63.8046 31.4197 63.6647 31.4197C63.5249 31.4197 63.4102 31.2032 63.4102 30.9394C63.4102 30.6755 63.5249 30.459 63.6647 30.459C63.8082 30.459 63.9193 30.6755 63.9193 30.9394Z" fill="#FFFAEF"/>
<path d="M227.04 48.2343C227.04 48.4982 226.926 48.7147 226.786 48.7147C226.646 48.7147 226.531 48.4982 226.531 48.2343C226.531 47.9704 226.646 47.7539 226.786 47.7539C226.926 47.7539 227.04 47.9636 227.04 48.2343Z" fill="#FFFAEF"/>
<path d="M167.619 6.3925C167.619 6.65637 167.504 6.87287 167.364 6.87287C167.224 6.87287 167.109 6.65637 167.109 6.3925C167.109 6.12862 167.224 5.91211 167.364 5.91211C167.504 5.91211 167.619 6.12862 167.619 6.3925Z" fill="#FFFAEF"/>
<path d="M97.4154 110.176C97.4154 110.44 97.3007 110.656 97.1608 110.656C97.021 110.656 96.9062 110.44 96.9062 110.176C96.9062 109.912 97.021 109.695 97.1608 109.695C97.3007 109.695 97.4154 109.912 97.4154 110.176Z" fill="#FFFAEF"/>
<path d="M85.2357 94.8573C85.2357 95.1212 85.121 95.3377 84.9811 95.3377C84.8413 95.3377 84.7266 95.1212 84.7266 94.8573C84.7266 94.5935 84.8413 94.377 84.9811 94.377C85.1246 94.377 85.2357 94.5935 85.2357 94.8573Z" fill="#FFFAEF"/>
<path opacity="0.5" d="M88.2435 49.1132C88.2435 49.3771 88.1288 49.5936 87.989 49.5936C87.8491 49.5936 87.7344 49.3771 87.7344 49.1132C87.7344 48.8493 87.8491 48.6328 87.989 48.6328C88.1324 48.6396 88.2435 48.8493 88.2435 49.1132Z" fill="#FFFAEF"/>
<path d="M147.274 62.9005C147.274 63.1035 147.188 63.2659 147.08 63.2659C146.973 63.2659 146.887 63.1035 146.887 62.9005C146.887 62.6975 146.973 62.5352 147.08 62.5352C147.188 62.5352 147.274 62.6975 147.274 62.9005Z" fill="#FFFAEF"/>
<path d="M117.075 53.6583C117.075 53.8613 116.989 54.0237 116.881 54.0237C116.774 54.0237 116.688 53.8613 116.688 53.6583C116.688 53.4554 116.774 53.293 116.881 53.293C116.989 53.293 117.075 53.4554 117.075 53.6583Z" fill="#FFFAEF"/>
<path opacity="0.5" d="M97.6099 43.8361C97.6099 44.039 97.5239 44.2014 97.4163 44.2014C97.3087 44.2014 97.2227 44.039 97.2227 43.8361C97.2227 43.6331 97.3087 43.4707 97.4163 43.4707C97.5239 43.4707 97.6099 43.6331 97.6099 43.8361Z" fill="#FFFAEF"/>
<path d="M94.7798 33.5568C94.7798 33.7597 94.6938 33.9221 94.5862 33.9221C94.4786 33.9221 94.3926 33.7597 94.3926 33.5568C94.3926 33.3538 94.4786 33.1914 94.5862 33.1914C94.6938 33.1982 94.7798 33.3606 94.7798 33.5568Z" fill="#FFFAEF"/>
<path d="M103.247 26.8068C103.247 27.0097 103.161 27.1721 103.053 27.1721C102.945 27.1721 102.859 27.0097 102.859 26.8068C102.859 26.6038 102.945 26.4414 103.053 26.4414C103.161 26.4414 103.247 26.6038 103.247 26.8068Z" fill="#FFFAEF"/>
<path d="M93.729 10.4513C93.729 10.6543 93.643 10.8167 93.5354 10.8167C93.4279 10.8167 93.3418 10.6543 93.3418 10.4513C93.3418 10.2483 93.4279 10.0859 93.5354 10.0859C93.643 10.0859 93.729 10.2483 93.729 10.4513Z" fill="#FFFAEF"/>
<path d="M123.594 3.27942C123.594 3.4824 123.508 3.64479 123.401 3.64479C123.293 3.64479 123.207 3.4824 123.207 3.27942C123.207 3.07644 123.293 2.91406 123.401 2.91406C123.508 2.91406 123.594 3.07644 123.594 3.27942Z" fill="#FFFAEF"/>
<path d="M115.799 12.0216C115.799 12.2246 115.713 12.387 115.606 12.387C115.498 12.387 115.412 12.2246 115.412 12.0216C115.412 11.8186 115.498 11.6562 115.606 11.6562C115.713 11.6562 115.799 11.8186 115.799 12.0216Z" fill="#FFFAEF"/>
<path d="M231.001 62.5353C231.001 62.7383 230.914 62.9007 230.807 62.9007C230.699 62.9007 230.613 62.7383 230.613 62.5353C230.613 62.3323 230.699 62.1699 230.807 62.1699C230.914 62.1699 231.001 62.3323 231.001 62.5353Z" fill="#FFFAEF"/>
<path d="M131.727 104.58C131.727 104.783 131.641 104.946 131.533 104.946C131.426 104.946 131.34 104.783 131.34 104.58C131.34 104.377 131.426 104.215 131.533 104.215C131.641 104.215 131.727 104.377 131.727 104.58Z" fill="#FFFAEF"/>
<path d="M112.303 35.7709C112.303 36.0077 112.199 36.2039 112.073 36.2039C111.948 36.2039 111.844 36.0077 111.844 35.7709C111.844 35.5341 111.948 35.3379 112.073 35.3379C112.199 35.3379 112.303 35.5273 112.303 35.7709Z" fill="#FFFAEF"/>
<path d="M106.322 65.0385C106.322 65.2753 106.218 65.4715 106.093 65.4715C105.967 65.4715 105.863 65.2753 105.863 65.0385C105.863 64.8017 105.967 64.6055 106.093 64.6055C106.222 64.6055 106.322 64.7949 106.322 65.0385Z" fill="#FFFAEF"/>
<path d="M222.721 58.9955C222.721 59.2323 222.617 59.4285 222.491 59.4285C222.366 59.4285 222.262 59.2323 222.262 58.9955C222.262 58.7587 222.366 58.5625 222.491 58.5625C222.62 58.5625 222.721 58.7587 222.721 58.9955Z" fill="#FFFAEF"/>
<path d="M208.353 64.6068C208.353 64.8436 208.25 65.0399 208.124 65.0399C207.999 65.0399 207.895 64.8436 207.895 64.6068C207.895 64.37 207.999 64.1738 208.124 64.1738C208.253 64.1738 208.353 64.3633 208.353 64.6068Z" fill="#FFFAEF"/>
<path d="M231.725 46.7787C231.725 47.0155 231.621 47.2117 231.495 47.2117C231.37 47.2117 231.266 47.0155 231.266 46.7787C231.266 46.5419 231.37 46.3457 231.495 46.3457C231.621 46.3457 231.725 46.5419 231.725 46.7787Z" fill="#FFFAEF"/>
<path d="M194.705 66.6361C194.705 66.8729 194.601 67.0692 194.476 67.0692C194.35 67.0692 194.246 66.8729 194.246 66.6361C194.246 66.3993 194.35 66.2031 194.476 66.2031C194.601 66.2031 194.705 66.3926 194.705 66.6361Z" fill="#FFFAEF"/>
<path d="M195.076 91.0756C195.076 91.3124 194.972 91.5086 194.847 91.5086C194.721 91.5086 194.617 91.3124 194.617 91.0756C194.617 90.8388 194.721 90.6426 194.847 90.6426C194.972 90.6426 195.076 90.832 195.076 91.0756Z" fill="#FFFAEF"/>
<path d="M165.182 95.2905C165.182 95.5273 165.078 95.7235 164.952 95.7235C164.827 95.7235 164.723 95.5273 164.723 95.2905C164.723 95.0536 164.827 94.8574 164.952 94.8574C165.078 94.8574 165.182 95.0536 165.182 95.2905Z" fill="#FFFAEF"/>
<path d="M136.535 77.7865C136.535 78.0234 136.431 78.2196 136.306 78.2196C136.18 78.2196 136.076 78.0234 136.076 77.7865C136.076 77.5497 136.18 77.3535 136.306 77.3535C136.431 77.3535 136.535 77.5497 136.535 77.7865Z" fill="#FFFAEF"/>
<path d="M161.896 110.175C161.896 110.412 161.792 110.608 161.667 110.608C161.541 110.608 161.438 110.412 161.438 110.175C161.438 109.938 161.541 109.742 161.667 109.742C161.792 109.742 161.896 109.938 161.896 110.175Z" fill="#FFFAEF"/>
<path d="M94.7077 23.8022C94.7077 24.3029 94.4926 24.7021 94.2308 24.7021C93.9655 24.7021 93.7539 24.2961 93.7539 23.8022C93.7539 23.3015 93.969 22.9023 94.2308 22.9023C94.4926 22.9023 94.7077 23.3083 94.7077 23.8022Z" fill="#FFFAEF"/>
<path opacity="0.5" d="M30.0241 29.3569C30.0241 29.8576 29.809 30.2568 29.5472 30.2568C29.2819 30.2568 29.0703 29.8508 29.0703 29.3569C29.0703 28.8562 29.2855 28.457 29.5472 28.457C29.809 28.457 30.0241 28.8562 30.0241 29.3569Z" fill="#FFFAEF"/>
<path d="M40.8366 94.3764C40.8366 94.8771 40.6215 95.2763 40.3597 95.2763C40.0944 95.2763 39.8828 94.8703 39.8828 94.3764C39.8828 93.8757 40.098 93.4766 40.3597 93.4766C40.6215 93.4766 40.8366 93.8825 40.8366 94.3764Z" fill="#FFFAEF"/>
<path d="M288.805 17.9428C288.805 18.4435 288.59 18.8427 288.328 18.8427C288.063 18.8427 287.852 18.4368 287.852 17.9428C287.852 17.4489 288.067 17.043 288.328 17.043C288.59 17.043 288.805 17.4422 288.805 17.9428Z" fill="#FFFAEF"/>
<path opacity="0.5" d="M303.024 58.9975C303.024 59.4982 302.809 59.8974 302.547 59.8974C302.282 59.8974 302.07 59.4914 302.07 58.9975C302.07 58.5036 302.285 58.0977 302.547 58.0977C302.809 58.0977 303.024 58.4968 303.024 58.9975Z" fill="#FFFAEF"/>
<path d="M260.438 80.0054C260.438 80.506 260.223 80.9052 259.961 80.9052C259.696 80.9052 259.484 80.4993 259.484 80.0054C259.484 79.5047 259.7 79.1055 259.961 79.1055C260.223 79.1055 260.438 79.5047 260.438 80.0054Z" fill="#FFFAEF"/>
<path d="M262.208 114.958C262.208 115.459 261.993 115.858 261.731 115.858C261.465 115.858 261.254 115.452 261.254 114.958C261.254 114.458 261.469 114.059 261.731 114.059C261.993 114.059 262.208 114.458 262.208 114.958Z" fill="#FFFAEF"/>
<path d="M138.995 15.4233C138.995 15.924 138.78 16.3232 138.518 16.3232C138.253 16.3232 138.041 15.9172 138.041 15.4233C138.041 14.9226 138.256 14.5234 138.518 14.5234C138.783 14.5234 138.995 14.9226 138.995 15.4233Z" fill="#FFFAEF"/>
</g>
<defs>
<radialGradient id="paint0_radial_44_7283" cx="0" cy="0" r="1" gradientUnits="userSpaceOnUse" gradientTransform="translate(77.3393 77.4604) scale(2.06351 3.89374)">
<stop stop-color="white"/>
<stop offset="0.0767" stop-color="white" stop-opacity="0.9233"/>
<stop offset="1" stop-color="#272525" stop-opacity="0"/>
</radialGradient>
<radialGradient id="paint1_radial_44_7283" cx="0" cy="0" r="1" gradientUnits="userSpaceOnUse" gradientTransform="translate(120.929 73.6163) scale(2.06333 3.8934)">
<stop stop-color="white"/>
<stop offset="0.0767" stop-color="white" stop-opacity="0.9233"/>
<stop offset="1" stop-color="#272525" stop-opacity="0"/>
</radialGradient>
<radialGradient id="paint2_radial_44_7283" cx="0" cy="0" r="1" gradientUnits="userSpaceOnUse" gradientTransform="translate(113.545 85.509) scale(2.06351 3.89374)">
<stop stop-color="white"/>
<stop offset="0.0767" stop-color="white" stop-opacity="0.9233"/>
<stop offset="1" stop-color="#272525" stop-opacity="0"/>
</radialGradient>
<radialGradient id="paint3_radial_44_7283" cx="0" cy="0" r="1" gradientUnits="userSpaceOnUse" gradientTransform="translate(236.424 34.5185) scale(1.03526 1.95347)">
<stop stop-color="white"/>
<stop offset="0.0767" stop-color="white" stop-opacity="0.9233"/>
<stop offset="1" stop-color="#272525" stop-opacity="0"/>
</radialGradient>
<radialGradient id="paint4_radial_44_7283" cx="0" cy="0" r="1" gradientUnits="userSpaceOnUse" gradientTransform="translate(186.651 13.9405) scale(1.03525 1.95347)">
<stop stop-color="white"/>
<stop offset="0.0767" stop-color="white" stop-opacity="0.9233"/>
<stop offset="1" stop-color="#272525" stop-opacity="0"/>
</radialGradient>
<radialGradient id="paint5_radial_44_7283" cx="0" cy="0" r="1" gradientUnits="userSpaceOnUse" gradientTransform="translate(174.909 58.5899) scale(1.03525 1.95348)">
<stop stop-color="white"/>
<stop offset="0.0767" stop-color="white" stop-opacity="0.9233"/>
<stop offset="1" stop-color="#272525" stop-opacity="0"/>
</radialGradient>
<radialGradient id="paint6_radial_44_7283" cx="0" cy="0" r="1" gradientUnits="userSpaceOnUse" gradientTransform="translate(244.283 4.71405) scale(1.03526 1.95347)">
<stop stop-color="white"/>
<stop offset="0.0767" stop-color="white" stop-opacity="0.9233"/>
<stop offset="1" stop-color="#272525" stop-opacity="0"/>
</radialGradient>
<radialGradient id="paint7_radial_44_7283" cx="0" cy="0" r="1" gradientUnits="userSpaceOnUse" gradientTransform="translate(291.657 51.4191) scale(1.03526 1.95347)">
<stop stop-color="white"/>
<stop offset="0.0767" stop-color="white" stop-opacity="0.9233"/>
<stop offset="1" stop-color="#272525" stop-opacity="0"/>
</radialGradient>
<radialGradient id="paint8_radial_44_7283" cx="0" cy="0" r="1" gradientUnits="userSpaceOnUse" gradientTransform="translate(75.2672 49.6178) scale(1.03532 1.95361)">
<stop stop-color="white"/>
<stop offset="0.0767" stop-color="white" stop-opacity="0.9233"/>
<stop offset="1" stop-color="#272525" stop-opacity="0"/>
</radialGradient>
<radialGradient id="paint9_radial_44_7283" cx="0" cy="0" r="1" gradientUnits="userSpaceOnUse" gradientTransform="translate(36.9428 62.8117) scale(1.03514 1.95327)">
<stop stop-color="white"/>
<stop offset="0.0767" stop-color="white" stop-opacity="0.9233"/>
<stop offset="1" stop-color="#272525" stop-opacity="0"/>
</radialGradient>
<radialGradient id="paint10_radial_44_7283" cx="0" cy="0" r="1" gradientUnits="userSpaceOnUse" gradientTransform="translate(31.7015 86.1786) scale(1.03518 1.95333)">
<stop stop-color="white"/>
<stop offset="0.0767" stop-color="white" stop-opacity="0.9233"/>
<stop offset="1" stop-color="#272525" stop-opacity="0"/>
</radialGradient>
<radialGradient id="paint11_radial_44_7283" cx="0" cy="0" r="1" gradientUnits="userSpaceOnUse" gradientTransform="translate(117.618 24.0136) scale(1.03536 1.95367)">
<stop stop-color="white"/>
<stop offset="0.0767" stop-color="white" stop-opacity="0.9233"/>
<stop offset="1" stop-color="#272525" stop-opacity="0"/>
</radialGradient>
<radialGradient id="paint12_radial_44_7283" cx="0" cy="0" r="1" gradientUnits="userSpaceOnUse" gradientTransform="translate(143.99 134.128) scale(1.03525 1.95347)">
<stop stop-color="white"/>
<stop offset="0.0767" stop-color="white" stop-opacity="0.9233"/>
<stop offset="1" stop-color="#272525" stop-opacity="0"/>
</radialGradient>
<radialGradient id="paint13_radial_44_7283" cx="0" cy="0" r="1" gradientUnits="userSpaceOnUse" gradientTransform="translate(173.61 121.89) scale(1.03525 1.95347)">
<stop stop-color="white"/>
<stop offset="0.0767" stop-color="white" stop-opacity="0.9233"/>
<stop offset="1" stop-color="#272525" stop-opacity="0"/>
</radialGradient>
<radialGradient id="paint14_radial_44_7283" cx="0" cy="0" r="1" gradientUnits="userSpaceOnUse" gradientTransform="translate(241.184 66.4703) scale(1.03526 1.95347)">
<stop stop-color="white"/>
<stop offset="0.0767" stop-color="white" stop-opacity="0.9233"/>
<stop offset="1" stop-color="#272525" stop-opacity="0"/>
</radialGradient>
<radialGradient id="paint15_radial_44_7283" cx="0" cy="0" r="1" gradientUnits="userSpaceOnUse" gradientTransform="translate(187.984 143.212) scale(1.03525 1.95347)">
<stop stop-color="white"/>
<stop offset="0.0767" stop-color="white" stop-opacity="0.9233"/>
<stop offset="1" stop-color="#272525" stop-opacity="0"/>
</radialGradient>
<radialGradient id="paint16_radial_44_7283" cx="0" cy="0" r="1" gradientUnits="userSpaceOnUse" gradientTransform="translate(183.196 3.99827) scale(2.06344 3.89361)">
<stop stop-color="white"/>
<stop offset="0.0767" stop-color="white" stop-opacity="0.9233"/>
<stop offset="1" stop-color="#272525" stop-opacity="0"/>
</radialGradient>
<radialGradient id="paint17_radial_44_7283" cx="0" cy="0" r="1" gradientUnits="userSpaceOnUse" gradientTransform="translate(223.968 85.5083) scale(2.06344 3.89361)">
<stop stop-color="white"/>
<stop offset="0.0767" stop-color="white" stop-opacity="0.9233"/>
<stop offset="1" stop-color="#272525" stop-opacity="0"/>
</radialGradient>
<radialGradient id="paint18_radial_44_7283" cx="0" cy="0" r="1" gradientUnits="userSpaceOnUse" gradientTransform="translate(283.376 105.15) scale(2.0634 3.89354)">
<stop stop-color="white"/>
<stop offset="0.0767" stop-color="white" stop-opacity="0.9233"/>
<stop offset="1" stop-color="#272525" stop-opacity="0"/>
</radialGradient>
<radialGradient id="paint19_radial_44_7283" cx="0" cy="0" r="1" gradientUnits="userSpaceOnUse" gradientTransform="translate(304.446 71.4882) scale(2.0634 3.89354)">
<stop stop-color="white"/>
<stop offset="0.0767" stop-color="white" stop-opacity="0.9233"/>
<stop offset="1" stop-color="#272525" stop-opacity="0"/>
</radialGradient>
</defs>
</svg>
