<svg width="361" height="220" viewBox="0 0 361 220" fill="none" xmlns="http://www.w3.org/2000/svg">
<g opacity="0.3">
<g opacity="0.5">
<path opacity="0.5" d="M310.994 169.481C308.84 169.481 307.094 171.223 307.094 173.371C307.094 175.52 308.84 177.262 310.994 177.262C313.148 177.262 314.895 175.52 314.895 173.371C314.895 171.223 313.148 169.481 310.994 169.481Z" fill="url(#paint0_radial_44_8212)"/>
<path d="M310.947 179.027L310.588 173.418H311.334L310.947 179.027Z" fill="#FFFAEF"/>
<path d="M310.981 167.802L311.334 173.418H310.588L310.981 167.802Z" fill="#FFFAEF"/>
<path d="M305.336 173.399L310.959 173.04V173.791L305.336 173.399Z" fill="#FFFAEF"/>
<path d="M316.59 173.432L310.96 173.791V173.04L316.59 173.432Z" fill="#FFFAEF"/>
</g>
<path opacity="0.5" d="M210.788 72.5392C210.788 70.3877 212.538 68.6488 214.695 68.6488C216.852 68.6488 218.596 70.3944 218.596 72.5392C218.596 74.6908 216.846 76.4297 214.695 76.4297C212.538 76.4364 210.788 74.6908 210.788 72.5392Z" fill="url(#paint1_radial_44_8212)"/>
<path d="M214.642 78.2012L214.289 72.5854H215.035L214.642 78.2012Z" fill="#FFFAEF"/>
<path d="M214.682 66.9769L215.035 72.5859H214.289L214.682 66.9769Z" fill="#FFFAEF"/>
<path d="M209.032 72.5646L214.662 72.2128V72.957L209.032 72.5646Z" fill="#FFFAEF"/>
<path d="M220.285 72.6072L214.662 72.959V72.2147L220.285 72.6072Z" fill="#FFFAEF"/>
<path opacity="0.5" d="M128.332 76.3869C128.332 74.2353 130.082 72.4965 132.233 72.4965C134.39 72.4965 136.133 74.2421 136.133 76.3869C136.133 78.5385 134.383 80.2773 132.233 80.2773C130.076 80.2773 128.332 78.5317 128.332 76.3869Z" fill="url(#paint2_radial_44_8212)"/>
<path d="M132.179 82.043L131.826 76.434H132.572L132.179 82.043Z" fill="#FFFAEF"/>
<path d="M132.22 70.8179L132.572 76.4336H131.826L132.22 70.8179Z" fill="#FFFAEF"/>
<path d="M126.567 76.4123L132.197 76.0537V76.8047L126.567 76.4123Z" fill="#FFFAEF"/>
<path d="M137.828 76.448L132.198 76.8066V76.0556L137.828 76.448Z" fill="#FFFAEF"/>
<path opacity="0.5" d="M142.301 64.4943C142.301 62.3428 144.051 60.5972 146.201 60.5972C148.358 60.5972 150.102 62.3428 150.102 64.4943C150.102 66.6459 148.352 68.3848 146.201 68.3848C144.051 68.3848 142.301 66.6459 142.301 64.4943Z" fill="url(#paint3_radial_44_8212)"/>
<path d="M146.153 70.1504L145.801 64.5414H146.547L146.153 70.1504Z" fill="#FFFAEF"/>
<path d="M146.187 58.9253L146.547 64.541H145.801L146.187 58.9253Z" fill="#FFFAEF"/>
<path d="M140.544 64.5216L146.174 64.1698V64.9141L140.544 64.5216Z" fill="#FFFAEF"/>
<path d="M151.797 64.5622L146.174 64.9141V64.1698L151.797 64.5622Z" fill="#FFFAEF"/>
<g opacity="0.2">
<path opacity="0.5" d="M156.395 219.731C156.395 217.579 158.145 215.833 160.295 215.833C162.452 215.833 164.195 217.579 164.195 219.731C164.195 221.882 162.445 223.621 160.295 223.621C158.145 223.628 156.395 221.882 156.395 219.731Z" fill="url(#paint4_radial_44_8212)"/>
<path d="M160.249 225.395L159.896 219.779H160.643L160.249 225.395Z" fill="#FFFAEF"/>
<path d="M160.285 214.17L160.645 219.779H159.898L160.285 214.17Z" fill="#FFFAEF"/>
<path d="M154.64 219.76L160.27 219.408V220.152L154.64 219.76Z" fill="#FFFAEF"/>
<path d="M165.893 219.801L160.269 220.152V219.408L165.893 219.801Z" fill="#FFFAEF"/>
</g>
<path opacity="0.5" d="M5.95439 136.064C5.95439 134.988 6.82942 134.109 7.91471 134.109C8.99321 134.109 9.875 134.982 9.875 136.064C9.875 137.14 9 138.02 7.91471 138.02C6.82942 138.013 5.95439 137.14 5.95439 136.064Z" fill="url(#paint5_radial_44_8212)"/>
<path d="M7.88532 138.898L7.70218 136.084H8.08203L7.88532 138.898Z" fill="#FFFAEF"/>
<path d="M7.89888 133.267L8.08203 136.082H7.70218L7.89888 133.267Z" fill="#FFFAEF"/>
<path d="M5.07082 136.077L7.89258 135.895V136.273L5.07082 136.077Z" fill="#FFFAEF"/>
<path d="M10.7148 136.098L7.89311 136.273V135.895L10.7148 136.098Z" fill="#FFFAEF"/>
<path opacity="0.5" d="M28.1617 91.4157C28.1617 90.3399 29.0367 89.4603 30.122 89.4603C31.2005 89.4603 32.0823 90.3332 32.0823 91.4157C32.0823 92.4915 31.2073 93.3711 30.122 93.3711C29.0367 93.3643 28.1617 92.4915 28.1617 91.4157Z" fill="url(#paint6_radial_44_8212)"/>
<path d="M30.0943 94.25L29.9112 91.4354H30.291L30.0943 94.25Z" fill="#FFFAEF"/>
<path d="M30.1081 88.6209L30.2913 91.4355H29.9114L30.1081 88.6209Z" fill="#FFFAEF"/>
<path d="M27.2801 91.4288L30.1018 91.2461V91.625L27.2801 91.4288Z" fill="#FFFAEF"/>
<path d="M32.9241 91.4423L30.1023 91.625V91.2461L32.9241 91.4423Z" fill="#FFFAEF"/>
<path opacity="0.5" d="M190.63 153.717C190.63 152.641 191.505 151.761 192.59 151.761C193.669 151.761 194.551 152.634 194.551 153.717C194.551 154.792 193.676 155.672 192.59 155.672C191.505 155.672 190.63 154.792 190.63 153.717Z" fill="url(#paint7_radial_44_8212)"/>
<path d="M192.564 156.559L192.381 153.737H192.754L192.564 156.559Z" fill="#FFFAEF"/>
<path d="M192.578 150.924L192.754 153.738H192.381L192.578 150.924Z" fill="#FFFAEF"/>
<path d="M189.749 153.73L192.57 153.554V153.926L189.749 153.73Z" fill="#FFFAEF"/>
<path d="M195.393 153.75L192.571 153.926V153.554L195.393 153.75Z" fill="#FFFAEF"/>
<g opacity="0.5">
<path opacity="0.5" d="M216.656 100.381C216.656 99.3048 217.531 98.4252 218.616 98.4252C219.701 98.4252 220.576 99.298 220.576 100.381C220.576 101.456 219.701 102.336 218.616 102.336C217.531 102.336 216.656 101.463 216.656 100.381Z" fill="url(#paint8_radial_44_8212)"/>
<path d="M218.59 103.223L218.414 100.408H218.787L218.59 103.223Z" fill="#FFFAEF"/>
<path d="M218.611 97.5955L218.787 100.41H218.414L218.611 97.5955Z" fill="#FFFAEF"/>
<path d="M215.776 100.394L218.598 100.218V100.59L215.776 100.394Z" fill="#FFFAEF"/>
<path d="M221.426 100.414L218.597 100.59V100.218L221.426 100.414Z" fill="#FFFAEF"/>
</g>
<g opacity="0.5">
<path opacity="0.5" d="M289.154 87.1872C289.154 86.1114 290.029 85.2319 291.114 85.2319C292.192 85.2319 293.074 86.1047 293.074 87.1872C293.074 88.263 292.199 89.1426 291.114 89.1426C290.035 89.1426 289.154 88.2698 289.154 87.1872Z" fill="url(#paint9_radial_44_8212)"/>
<path d="M291.088 90.0293L290.912 87.2147H291.285L291.088 90.0293Z" fill="#FFFAEF"/>
<path d="M291.109 84.4002L291.285 87.2148H290.912L291.109 84.4002Z" fill="#FFFAEF"/>
<path d="M288.274 87.2003L291.096 87.0244V87.3965L288.274 87.2003Z" fill="#FFFAEF"/>
<path d="M293.924 87.2206L291.095 87.3965V87.0244L293.924 87.2206Z" fill="#FFFAEF"/>
</g>
<path opacity="0.5" d="M299.07 63.822C299.07 62.7462 299.945 61.8666 301.03 61.8666C302.108 61.8666 302.99 62.7394 302.99 63.822C302.99 64.8978 302.115 65.7773 301.03 65.7773C299.945 65.7773 299.07 64.8978 299.07 63.822Z" fill="url(#paint10_radial_44_8212)"/>
<path d="M301.002 66.6641L300.819 63.8426H301.199L301.002 66.6641Z" fill="#FFFAEF"/>
<path d="M301.023 61.0291L301.199 63.8438H300.819L301.023 61.0291Z" fill="#FFFAEF"/>
<path d="M298.19 63.835L301.012 63.6591V64.0312L298.19 63.835Z" fill="#FFFAEF"/>
<path d="M303.832 63.8553L301.01 64.0312V63.6591L303.832 63.8553Z" fill="#FFFAEF"/>
<path opacity="0.5" d="M136.54 125.99C136.54 124.914 137.415 124.035 138.501 124.035C139.586 124.035 140.461 124.907 140.461 125.99C140.461 127.066 139.586 127.945 138.501 127.945C137.415 127.939 136.54 127.066 136.54 125.99Z" fill="url(#paint11_radial_44_8212)"/>
<path d="M138.475 128.824L138.292 126.01H138.672L138.475 128.824Z" fill="#FFFAEF"/>
<path d="M138.489 123.193L138.672 126.008H138.292L138.489 123.193Z" fill="#FFFAEF"/>
<path d="M135.661 126.003L138.482 125.82V126.199L135.661 126.003Z" fill="#FFFAEF"/>
<path d="M141.305 126.017L138.483 126.199V125.82L141.305 126.017Z" fill="#FFFAEF"/>
<path opacity="0.5" d="M86.6536 15.8728C86.6536 14.797 87.5286 13.9174 88.6139 13.9174C89.6924 13.9174 90.5742 14.7902 90.5742 15.8728C90.5742 16.9486 89.6992 17.8281 88.6139 17.8281C87.5286 17.8281 86.6536 16.9486 86.6536 15.8728Z" fill="url(#paint12_radial_44_8212)"/>
<path d="M88.5845 18.7148L88.4082 15.8934H88.7812L88.5845 18.7148Z" fill="#FFFAEF"/>
<path d="M88.6049 13.0799L88.7812 15.8945H88.4082L88.6049 13.0799Z" fill="#FFFAEF"/>
<path d="M85.772 15.8858L88.5938 15.7099V16.082L85.772 15.8858Z" fill="#FFFAEF"/>
<path d="M91.4219 15.9061L88.5933 16.082V15.7099L91.4219 15.9061Z" fill="#FFFAEF"/>
<path opacity="0.5" d="M30.6145 28.1111C30.6145 27.0353 31.4896 26.1557 32.5749 26.1557C33.6534 26.1557 34.5352 27.0285 34.5352 28.1111C34.5352 29.1868 33.6602 30.0664 32.5749 30.0664C31.4964 30.0664 30.6145 29.1868 30.6145 28.1111Z" fill="url(#paint13_radial_44_8212)"/>
<path d="M32.5455 30.9473L32.3691 28.1326H32.7422L32.5455 30.9473Z" fill="#FFFAEF"/>
<path d="M32.5658 25.3182L32.7422 28.1328H32.3691L32.5658 25.3182Z" fill="#FFFAEF"/>
<path d="M29.734 28.126L32.5625 27.9501V28.3223L29.734 28.126Z" fill="#FFFAEF"/>
<path d="M35.3828 28.1463L32.5611 28.3223V27.9501L35.3828 28.1463Z" fill="#FFFAEF"/>
<path opacity="0.5" d="M3.42509 6.78684C3.42509 5.71105 4.3001 4.83146 5.38539 4.83146C6.46389 4.83146 7.3457 5.70428 7.3457 6.78684C7.3457 7.86262 6.47068 8.74219 5.38539 8.74219C4.3001 8.74219 3.42509 7.86939 3.42509 6.78684Z" fill="url(#paint14_radial_44_8212)"/>
<path d="M5.35799 9.62891L5.18163 6.81426H5.55469L5.35799 9.62891Z" fill="#FFFAEF"/>
<path d="M5.37834 3.99981L5.55469 6.81445H5.18163L5.37834 3.99981Z" fill="#FFFAEF"/>
<path d="M2.5435 6.79988L5.36523 6.62395V6.99609L2.5435 6.79988Z" fill="#FFFAEF"/>
<path d="M8.19336 6.82017L5.36481 6.99609V6.62395L8.19336 6.82017Z" fill="#FFFAEF"/>
<path opacity="0.5" d="M10.5393 146.002C10.5393 143.851 12.2894 142.112 14.4396 142.112C16.5966 142.112 18.3398 143.857 18.3398 146.002C18.3398 148.154 16.5898 149.893 14.4396 149.893C12.2894 149.899 10.5393 148.154 10.5393 146.002Z" fill="url(#paint15_radial_44_8212)"/>
<path d="M14.3917 151.666L14.039 146.05H14.7852L14.3917 151.666Z" fill="#FFFAEF"/>
<path d="M14.4257 140.442L14.7852 146.051H14.039L14.4257 140.442Z" fill="#FFFAEF"/>
<path d="M8.78218 146.036L14.4121 145.678V146.422L8.78218 146.036Z" fill="#FFFAEF"/>
<path d="M20.0352 146.07L14.412 146.422V145.678L20.0352 146.07Z" fill="#FFFAEF"/>
<path d="M214.816 86.7323C214.816 86.5293 214.979 86.3669 215.183 86.3669C215.386 86.3669 215.549 86.5293 215.549 86.7323C215.549 86.9353 215.386 87.0977 215.183 87.0977C214.986 87.0977 214.816 86.9353 214.816 86.7323Z" fill="#FFFAEF"/>
<path opacity="0.5" d="M202.283 175.381C202.283 175.178 202.446 175.015 202.65 175.015C202.853 175.015 203.016 175.178 203.016 175.381C203.016 175.584 202.853 175.746 202.65 175.746C202.446 175.746 202.283 175.584 202.283 175.381Z" fill="#FFFAEF"/>
<path d="M171.99 166.349C171.99 166.147 172.153 165.984 172.356 165.984C172.56 165.984 172.723 166.147 172.723 166.349C172.723 166.552 172.56 166.715 172.356 166.715C172.16 166.715 171.99 166.552 171.99 166.349Z" fill="#FFFAEF"/>
<path opacity="0.5" d="M151.429 191.383C151.429 191.18 151.592 191.017 151.796 191.017C151.999 191.017 152.162 191.18 152.162 191.383C152.162 191.586 151.999 191.748 151.796 191.748C151.599 191.748 151.429 191.586 151.429 191.383Z" fill="#FFFAEF"/>
<path d="M95.2381 148.121C95.2381 147.918 95.4009 147.756 95.6044 147.756C95.8079 147.756 95.9707 147.918 95.9707 148.121C95.9707 148.324 95.8079 148.486 95.6044 148.486C95.4009 148.48 95.2381 148.317 95.2381 148.121Z" fill="#FFFAEF"/>
<path d="M49.3651 200.853C49.3651 200.65 49.5279 200.488 49.7314 200.488C49.9349 200.488 50.0977 200.65 50.0977 200.853C50.0977 201.056 49.9349 201.219 49.7314 201.219C49.5279 201.219 49.3651 201.056 49.3651 200.853Z" fill="#FFFAEF"/>
<path d="M45.3893 177.236C45.3893 177.148 45.4639 177.074 45.5521 177.074C45.6402 177.074 45.7148 177.148 45.7148 177.236C45.7148 177.324 45.6402 177.398 45.5521 177.398C45.4571 177.398 45.3893 177.324 45.3893 177.236Z" fill="#FFFAEF"/>
<path d="M27.1178 200.49C27.1178 200.402 27.1924 200.328 27.2806 200.328C27.3688 200.328 27.4434 200.402 27.4434 200.49C27.4434 200.578 27.3688 200.652 27.2806 200.652C27.1924 200.652 27.1178 200.578 27.1178 200.49Z" fill="#FFFAEF"/>
<path d="M272.128 183.884C272.128 183.797 272.202 183.722 272.29 183.722C272.379 183.722 272.453 183.797 272.453 183.884C272.453 183.972 272.379 184.047 272.29 184.047C272.202 184.047 272.128 183.972 272.128 183.884Z" fill="#FFFAEF"/>
<path d="M191.878 116.078C191.878 115.99 191.952 115.915 192.04 115.915C192.129 115.915 192.203 115.99 192.203 116.078C192.203 116.166 192.129 116.24 192.04 116.24C191.952 116.24 191.878 116.166 191.878 116.078Z" fill="#FFFAEF"/>
<path d="M194.389 128.67C194.389 128.582 194.464 128.507 194.552 128.507C194.64 128.507 194.715 128.582 194.715 128.67C194.715 128.758 194.64 128.832 194.552 128.832C194.457 128.825 194.389 128.758 194.389 128.67Z" fill="#FFFAEF"/>
<path d="M166.256 127.416C166.256 127.328 166.331 127.253 166.419 127.253C166.507 127.253 166.582 127.328 166.582 127.416C166.582 127.504 166.507 127.578 166.419 127.578C166.331 127.578 166.256 127.504 166.256 127.416Z" fill="#FFFAEF"/>
<path d="M177.518 139.549C177.518 139.461 177.593 139.386 177.681 139.386C177.769 139.386 177.844 139.461 177.844 139.549C177.844 139.637 177.769 139.711 177.681 139.711C177.593 139.711 177.518 139.637 177.518 139.549Z" fill="#FFFAEF"/>
<path d="M177.674 91.6267C177.674 91.5387 177.749 91.4643 177.837 91.4643C177.925 91.4643 178 91.5387 178 91.6267C178 91.7146 177.925 91.7891 177.837 91.7891C177.749 91.7823 177.674 91.7146 177.674 91.6267Z" fill="#FFFAEF"/>
<path d="M172.566 71.781C172.566 71.693 172.641 71.6186 172.722 71.6186C172.81 71.6186 172.885 71.693 172.885 71.781C172.885 71.8689 172.81 71.9434 172.722 71.9434C172.634 71.9434 172.566 71.8689 172.566 71.781Z" fill="#FFFAEF"/>
<path d="M159.706 82.9314C159.706 82.8434 159.78 82.769 159.868 82.769C159.957 82.769 160.031 82.8434 160.031 82.9314C160.031 83.0193 159.957 83.0938 159.868 83.0938C159.78 83.0938 159.706 83.0193 159.706 82.9314Z" fill="#FFFAEF"/>
<path d="M36.9186 50.6501C36.9186 50.5622 36.9932 50.4877 37.0814 50.4877C37.1695 50.4877 37.2441 50.5622 37.2441 50.6501C37.2441 50.7381 37.1695 50.8125 37.0814 50.8125C36.9864 50.8125 36.9186 50.7381 36.9186 50.6501Z" fill="#FFFAEF"/>
<path d="M38.69 68.6482C38.69 68.5602 38.7647 68.4858 38.8528 68.4858C38.941 68.4858 39.0156 68.5602 39.0156 68.6482C39.0156 68.7361 38.941 68.8105 38.8528 68.8105C38.7579 68.8038 38.69 68.7361 38.69 68.6482Z" fill="#FFFAEF"/>
<path d="M31.356 61.2595C31.356 61.1715 31.4307 61.0971 31.5189 61.0971C31.607 61.0971 31.6816 61.1715 31.6816 61.2595C31.6816 61.3474 31.607 61.4219 31.5189 61.4219C31.4239 61.4151 31.356 61.3474 31.356 61.2595Z" fill="#FFFAEF"/>
<path d="M64.1988 61.2595C64.1988 61.1715 64.2734 61.0971 64.3548 61.0971C64.443 61.0971 64.5176 61.1715 64.5176 61.2595C64.5176 61.3474 64.443 61.4219 64.3548 61.4219C64.2734 61.4151 64.1988 61.3474 64.1988 61.2595Z" fill="#FFFAEF"/>
<path d="M63.0143 50.3337C63.0143 50.2458 63.0889 50.1713 63.1771 50.1713C63.2652 50.1713 63.3398 50.2458 63.3398 50.3337C63.3398 50.4217 63.2652 50.4961 63.1771 50.4961C63.0889 50.4893 63.0143 50.4217 63.0143 50.3337Z" fill="#FFFAEF"/>
<path d="M79.3717 50.1697C79.3717 50.0817 79.4463 50.0073 79.5345 50.0073C79.6226 50.0073 79.6973 50.0817 79.6973 50.1697C79.6973 50.2576 79.6226 50.332 79.5345 50.332C79.4395 50.332 79.3717 50.2576 79.3717 50.1697Z" fill="#FFFAEF"/>
<path d="M77.3804 40.4197C77.3804 40.3317 77.455 40.2573 77.5364 40.2573C77.6246 40.2573 77.6992 40.3317 77.6992 40.4197C77.6992 40.5076 77.6246 40.582 77.5364 40.582C77.455 40.5753 77.3804 40.5076 77.3804 40.4197Z" fill="#FFFAEF"/>
<path d="M66.6744 38.9099C66.6744 38.8219 66.749 38.7475 66.8372 38.7475C66.9254 38.7475 67 38.8219 67 38.9099C67 38.9978 66.9254 39.0723 66.8372 39.0723C66.7422 39.0723 66.6744 38.9978 66.6744 38.9099Z" fill="#FFFAEF"/>
<path d="M79.0054 76.3884C79.0054 76.3004 79.08 76.226 79.1614 76.226C79.2496 76.226 79.3242 76.3004 79.3242 76.3884C79.3242 76.4764 79.2496 76.5508 79.1614 76.5508C79.08 76.544 79.0054 76.4764 79.0054 76.3884Z" fill="#FFFAEF"/>
<path d="M123.383 54.2771C123.383 54.1891 123.458 54.1147 123.546 54.1147C123.634 54.1147 123.709 54.1891 123.709 54.2771C123.709 54.365 123.634 54.4395 123.546 54.4395C123.458 54.4395 123.383 54.365 123.383 54.2771Z" fill="#FFFAEF"/>
<path d="M129.948 46.2653C129.948 46.1774 130.022 46.103 130.111 46.103C130.199 46.103 130.273 46.1774 130.273 46.2653C130.273 46.3533 130.199 46.4277 130.111 46.4277C130.016 46.4277 129.948 46.3533 129.948 46.2653Z" fill="#FFFAEF"/>
<path d="M117.514 29.5407C117.514 29.4528 117.589 29.3784 117.677 29.3784C117.765 29.3784 117.84 29.4528 117.84 29.5407C117.84 29.6287 117.765 29.7031 117.677 29.7031C117.589 29.7031 117.514 29.6287 117.514 29.5407Z" fill="#FFFAEF"/>
<path d="M104.436 40.1032C104.436 40.0153 104.511 39.9409 104.599 39.9409C104.687 39.9409 104.762 40.0153 104.762 40.1032C104.762 40.1912 104.687 40.2656 104.599 40.2656C104.504 40.2589 104.436 40.1912 104.436 40.1032Z" fill="#FFFAEF"/>
<path d="M123.544 34.5603C123.544 34.4723 123.619 34.3979 123.7 34.3979C123.789 34.3979 123.863 34.4723 123.863 34.5603C123.863 34.6482 123.789 34.7227 123.7 34.7227C123.619 34.7227 123.544 34.6482 123.544 34.5603Z" fill="#FFFAEF"/>
<path d="M115.182 21.6247C115.182 21.5368 115.257 21.4623 115.345 21.4623C115.433 21.4623 115.508 21.5368 115.508 21.6247C115.508 21.7127 115.433 21.7871 115.345 21.7871C115.25 21.7803 115.182 21.7127 115.182 21.6247Z" fill="#FFFAEF"/>
<path d="M108.777 26.8884C108.777 26.8004 108.851 26.726 108.933 26.726C109.021 26.726 109.096 26.8004 109.096 26.8884C109.096 26.9764 109.021 27.0508 108.933 27.0508C108.845 27.0508 108.777 26.9764 108.777 26.8884Z" fill="#FFFAEF"/>
<path d="M163.132 21.779C163.132 21.6911 163.207 21.6166 163.288 21.6166C163.377 21.6166 163.451 21.6911 163.451 21.779C163.451 21.867 163.377 21.9414 163.288 21.9414C163.2 21.9414 163.132 21.867 163.132 21.779Z" fill="#FFFAEF"/>
<path d="M171.034 26.5681C171.034 26.4801 171.108 26.4057 171.197 26.4057C171.285 26.4057 171.359 26.4801 171.359 26.5681C171.359 26.656 171.285 26.7305 171.197 26.7305C171.102 26.7237 171.034 26.656 171.034 26.5681Z" fill="#FFFAEF"/>
<path d="M165.525 29.3845C165.525 29.2965 165.6 29.2221 165.681 29.2221C165.769 29.2221 165.844 29.2965 165.844 29.3845C165.844 29.4725 165.769 29.5469 165.681 29.5469C165.6 29.5401 165.525 29.4725 165.525 29.3845Z" fill="#FFFAEF"/>
<path d="M191.505 43.1403C191.505 43.0524 191.58 42.978 191.661 42.978C191.75 42.978 191.824 43.0524 191.824 43.1403C191.824 43.2283 191.75 43.3027 191.661 43.3027C191.58 43.3027 191.505 43.2283 191.505 43.1403Z" fill="#FFFAEF"/>
<path d="M191.505 52.6814C191.505 52.5934 191.58 52.519 191.661 52.519C191.75 52.519 191.824 52.5934 191.824 52.6814C191.824 52.7693 191.75 52.8438 191.661 52.8438C191.58 52.8438 191.505 52.7693 191.505 52.6814Z" fill="#FFFAEF"/>
<path d="M204.895 50.0075C204.895 49.9196 204.97 49.8451 205.058 49.8451C205.146 49.8451 205.221 49.9196 205.221 50.0075C205.221 50.0955 205.146 50.1699 205.058 50.1699C204.963 50.1699 204.895 50.0955 204.895 50.0075Z" fill="#FFFAEF"/>
<path d="M221.26 59.3572C221.26 59.2692 221.335 59.1948 221.423 59.1948C221.511 59.1948 221.586 59.2692 221.586 59.3572C221.586 59.4451 221.511 59.5195 221.423 59.5195C221.335 59.5195 221.26 59.4451 221.26 59.3572Z" fill="#FFFAEF"/>
<path d="M285.03 39.0271C285.03 38.9391 285.104 38.8647 285.193 38.8647C285.281 38.8647 285.355 38.9391 285.355 39.0271C285.355 39.115 285.281 39.1895 285.193 39.1895C285.098 39.1895 285.03 39.115 285.03 39.0271Z" fill="#FFFAEF"/>
<path d="M258.696 112.904C258.696 112.816 258.771 112.742 258.859 112.742C258.947 112.742 259.021 112.816 259.021 112.904C259.021 112.992 258.947 113.066 258.859 113.066C258.771 113.066 258.696 112.992 258.696 112.904Z" fill="#FFFAEF"/>
<path opacity="0.5" d="M263.221 105.271C263.221 105.183 263.296 105.109 263.384 105.109C263.472 105.109 263.547 105.183 263.547 105.271C263.547 105.359 263.472 105.434 263.384 105.434C263.296 105.427 263.221 105.359 263.221 105.271Z" fill="#FFFAEF"/>
<path opacity="0.5" d="M316.983 117.802C316.983 117.714 317.058 117.64 317.146 117.64C317.234 117.64 317.309 117.714 317.309 117.802C317.309 117.89 317.234 117.965 317.146 117.965C317.051 117.958 316.983 117.89 316.983 117.802Z" fill="#FFFAEF"/>
<path d="M220.944 121.924C220.944 121.836 221.019 121.761 221.107 121.761C221.195 121.761 221.27 121.836 221.27 121.924C221.27 122.012 221.195 122.086 221.107 122.086C221.019 122.079 220.944 122.012 220.944 121.924Z" fill="#FFFAEF"/>
<path d="M205.213 64.0056C205.213 63.9176 205.288 63.8432 205.376 63.8432C205.464 63.8432 205.539 63.9176 205.539 64.0056C205.539 64.0935 205.464 64.168 205.376 64.168C205.288 64.168 205.213 64.0935 205.213 64.0056Z" fill="#FFFAEF"/>
<path d="M205.377 77.2868C205.377 77.1989 205.451 77.1245 205.533 77.1245C205.621 77.1245 205.695 77.1989 205.695 77.2868C205.695 77.3748 205.621 77.4492 205.533 77.4492C205.444 77.4425 205.377 77.3748 205.377 77.2868Z" fill="#FFFAEF"/>
<path d="M216.499 111.279C216.499 111.191 216.573 111.117 216.661 111.117C216.75 111.117 216.824 111.191 216.824 111.279C216.824 111.367 216.75 111.441 216.661 111.441C216.566 111.441 216.499 111.367 216.499 111.279Z" fill="#FFFAEF"/>
<path opacity="0.5" d="M250.999 107.795C250.999 107.707 251.073 107.632 251.161 107.632C251.25 107.632 251.324 107.707 251.324 107.795C251.324 107.883 251.25 107.957 251.161 107.957C251.073 107.957 250.999 107.883 250.999 107.795Z" fill="#FFFAEF"/>
<path opacity="0.5" d="M336.155 88.2829C336.155 88.195 336.229 88.1205 336.318 88.1205C336.406 88.1205 336.48 88.195 336.48 88.2829C336.48 88.3709 336.406 88.4453 336.318 88.4453C336.229 88.4385 336.155 88.3709 336.155 88.2829Z" fill="#FFFAEF"/>
<path d="M340.225 107.58C340.225 107.492 340.3 107.417 340.388 107.417C340.476 107.417 340.551 107.492 340.551 107.58C340.551 107.668 340.476 107.742 340.388 107.742C340.293 107.742 340.225 107.668 340.225 107.58Z" fill="#FFFAEF"/>
<path d="M321.713 93.947C321.713 93.859 321.788 93.7846 321.876 93.7846C321.964 93.7846 322.039 93.859 322.039 93.947C322.039 94.0349 321.964 94.1094 321.876 94.1094C321.781 94.1094 321.713 94.0349 321.713 93.947Z" fill="#FFFAEF"/>
<path d="M359.049 102.228C359.049 102.14 359.124 102.066 359.212 102.066C359.3 102.066 359.375 102.14 359.375 102.228C359.375 102.316 359.3 102.391 359.212 102.391C359.124 102.391 359.049 102.316 359.049 102.228Z" fill="#FFFAEF"/>
<path opacity="0.5" d="M353.307 115.287C353.307 115.199 353.382 115.124 353.47 115.124C353.558 115.124 353.633 115.199 353.633 115.287C353.633 115.375 353.558 115.449 353.47 115.449C353.382 115.442 353.307 115.375 353.307 115.287Z" fill="#FFFAEF"/>
<path opacity="0.5" d="M326.975 174.996C326.975 174.908 327.05 174.833 327.138 174.833C327.226 174.833 327.301 174.908 327.301 174.996C327.301 175.084 327.226 175.158 327.138 175.158C327.05 175.158 326.975 175.084 326.975 174.996Z" fill="#FFFAEF"/>
<path d="M303.764 184.847C303.764 184.759 303.839 184.685 303.927 184.685C304.015 184.685 304.09 184.759 304.09 184.847C304.09 184.935 304.015 185.01 303.927 185.01C303.832 185.003 303.764 184.935 303.764 184.847Z" fill="#FFFAEF"/>
<path opacity="0.5" d="M296.905 153.541C296.905 153.453 296.979 153.378 297.068 153.378C297.156 153.378 297.23 153.453 297.23 153.541C297.23 153.629 297.156 153.703 297.068 153.703C296.979 153.703 296.905 153.629 296.905 153.541Z" fill="#FFFAEF"/>
<path d="M332.565 111.334C332.565 111.246 332.64 111.171 332.728 111.171C332.816 111.171 332.891 111.246 332.891 111.334C332.891 111.422 332.816 111.496 332.728 111.496C332.633 111.489 332.565 111.422 332.565 111.334Z" fill="#FFFAEF"/>
<path opacity="0.5" d="M345.846 80.0075C345.846 79.9196 345.921 79.8452 346.009 79.8452C346.097 79.8452 346.172 79.9196 346.172 80.0075C346.172 80.0955 346.097 80.1699 346.009 80.1699C345.921 80.1632 345.846 80.0887 345.846 80.0075Z" fill="#FFFAEF"/>
<path d="M316.104 75.4626C316.104 75.3747 316.179 75.3002 316.267 75.3002C316.355 75.3002 316.43 75.3747 316.43 75.4626C316.43 75.5506 316.355 75.625 316.267 75.625C316.179 75.625 316.104 75.5506 316.104 75.4626Z" fill="#FFFAEF"/>
<path opacity="0.5" d="M306.608 77.1931C306.608 77.1051 306.683 77.0307 306.771 77.0307C306.859 77.0307 306.934 77.1051 306.934 77.1931C306.934 77.281 306.859 77.3555 306.771 77.3555C306.683 77.3555 306.608 77.281 306.608 77.1931Z" fill="#FFFAEF"/>
<path d="M300.491 89.2829C300.491 89.195 300.565 89.1206 300.654 89.1206C300.742 89.1206 300.816 89.195 300.816 89.2829C300.816 89.3709 300.742 89.4453 300.654 89.4453C300.559 89.4453 300.491 89.3709 300.491 89.2829Z" fill="#FFFAEF"/>
<path d="M291.122 71.0642C291.122 70.9762 291.196 70.9018 291.284 70.9018C291.373 70.9018 291.447 70.9762 291.447 71.0642C291.447 71.1521 291.373 71.2266 291.284 71.2266C291.196 71.2266 291.122 71.1521 291.122 71.0642Z" fill="#FFFAEF"/>
<path opacity="0.5" d="M252.37 103.22C252.37 103.132 252.444 103.058 252.533 103.058C252.621 103.058 252.695 103.132 252.695 103.22C252.695 103.308 252.621 103.383 252.533 103.383C252.444 103.383 252.37 103.308 252.37 103.22Z" fill="#FFFAEF"/>
<path opacity="0.5" d="M322.088 88.7693C322.088 88.6813 322.163 88.6069 322.251 88.6069C322.339 88.6069 322.414 88.6813 322.414 88.7693C322.414 88.8572 322.339 88.9316 322.251 88.9316C322.156 88.9316 322.088 88.8572 322.088 88.7693Z" fill="#FFFAEF"/>
<path opacity="0.5" d="M240.403 100.881C240.403 100.793 240.478 100.718 240.566 100.718C240.654 100.718 240.729 100.793 240.729 100.881C240.729 100.969 240.654 101.043 240.566 101.043C240.471 101.043 240.403 100.969 240.403 100.881Z" fill="#FFFAEF"/>
<path d="M141.147 34.8845C141.147 34.7965 141.222 34.7221 141.31 34.7221C141.398 34.7221 141.473 34.7965 141.473 34.8845C141.473 34.9725 141.398 35.0469 141.31 35.0469C141.222 35.0469 141.147 34.9725 141.147 34.8845Z" fill="#FFFAEF"/>
<path d="M131.045 21.9431C131.045 21.8551 131.12 21.7807 131.208 21.7807C131.296 21.7807 131.371 21.8551 131.371 21.9431C131.371 22.031 131.296 22.1055 131.208 22.1055C131.12 22.1055 131.045 22.031 131.045 21.9431Z" fill="#FFFAEF"/>
<path d="M125.94 29.2204C125.94 29.1325 126.015 29.058 126.103 29.058C126.191 29.058 126.266 29.1325 126.266 29.2204C126.266 29.3084 126.191 29.3828 126.103 29.3828C126.015 29.3828 125.94 29.3084 125.94 29.2204Z" fill="#FFFAEF"/>
<path d="M133.665 27.9506C133.575 27.9506 133.503 28.0233 133.503 28.113C133.503 28.2027 133.575 28.2754 133.665 28.2754C133.755 28.2754 133.828 28.2027 133.828 28.113C133.828 28.0233 133.755 27.9506 133.665 27.9506Z" fill="#FFFAEF"/>
<path d="M137.666 45.0603C137.666 44.9723 137.74 44.8979 137.822 44.8979C137.91 44.8979 137.984 44.9723 137.984 45.0603C137.984 45.1482 137.91 45.2227 137.822 45.2227C137.74 45.2159 137.666 45.1482 137.666 45.0603Z" fill="#FFFAEF"/>
<path d="M104.436 17.3083C104.436 17.2204 104.511 17.146 104.599 17.146C104.687 17.146 104.762 17.2204 104.762 17.3083C104.762 17.3963 104.687 17.4707 104.599 17.4707C104.504 17.4639 104.436 17.3963 104.436 17.3083Z" fill="#FFFAEF"/>
<path d="M94.1315 27.9509C94.1315 27.8629 94.2061 27.7885 94.2942 27.7885C94.3824 27.7885 94.457 27.8629 94.457 27.9509C94.457 28.0389 94.3824 28.1133 94.2942 28.1133C94.1993 28.1065 94.1315 28.0389 94.1315 27.9509Z" fill="#FFFAEF"/>
<path d="M97.8999 6.81417C97.8999 6.72621 97.9746 6.65179 98.056 6.65179C98.1441 6.65179 98.2188 6.72621 98.2188 6.81417C98.2188 6.90212 98.1441 6.97656 98.056 6.97656C97.9746 6.9698 97.8999 6.90212 97.8999 6.81417Z" fill="#FFFAEF"/>
<path d="M105.815 7.94309C105.815 7.85513 105.89 7.78072 105.978 7.78072C106.066 7.78072 106.141 7.85513 106.141 7.94309C106.141 8.03105 106.066 8.10547 105.978 8.10547C105.883 8.10547 105.815 8.03105 105.815 7.94309Z" fill="#FFFAEF"/>
<path d="M114.698 105.799C114.698 105.711 114.772 105.636 114.861 105.636C114.949 105.636 115.023 105.711 115.023 105.799C115.023 105.887 114.949 105.961 114.861 105.961C114.772 105.961 114.698 105.887 114.698 105.799Z" fill="#FFFAEF"/>
<path d="M124.304 113.797C124.304 113.709 124.379 113.634 124.46 113.634C124.548 113.634 124.623 113.709 124.623 113.797C124.623 113.885 124.548 113.959 124.46 113.959C124.379 113.959 124.304 113.885 124.304 113.797Z" fill="#FFFAEF"/>
<path d="M121.313 127.259C121.313 127.172 121.388 127.097 121.476 127.097C121.564 127.097 121.639 127.172 121.639 127.259C121.639 127.347 121.564 127.422 121.476 127.422C121.381 127.415 121.313 127.347 121.313 127.259Z" fill="#FFFAEF"/>
<path d="M156.232 42.9841C156.232 42.8962 156.307 42.8217 156.388 42.8217C156.476 42.8217 156.551 42.8962 156.551 42.9841C156.551 43.0721 156.476 43.1465 156.388 43.1465C156.3 43.1397 156.232 43.0721 156.232 42.9841Z" fill="#FFFAEF"/>
<path d="M171.194 58.4919C171.194 58.404 171.269 58.3295 171.357 58.3295C171.445 58.3295 171.52 58.404 171.52 58.4919C171.52 58.5799 171.445 58.6543 171.357 58.6543C171.269 58.6543 171.194 58.5799 171.194 58.4919Z" fill="#FFFAEF"/>
<path d="M113.859 83.7419C113.859 83.654 113.934 83.5795 114.015 83.5795C114.103 83.5795 114.178 83.654 114.178 83.7419C114.178 83.8299 114.103 83.9043 114.015 83.9043C113.927 83.8975 113.859 83.8299 113.859 83.7419Z" fill="#FFFAEF"/>
<path d="M68.8385 21.779C68.8385 21.6911 68.9131 21.6166 69.0013 21.6166C69.0894 21.6166 69.1641 21.6911 69.1641 21.779C69.1641 21.867 69.0894 21.9414 69.0013 21.9414C68.9063 21.9414 68.8385 21.867 68.8385 21.779Z" fill="#FFFAEF"/>
<path d="M82.2437 26.5681C82.2437 26.4801 82.3183 26.4057 82.3997 26.4057C82.4879 26.4057 82.5625 26.4801 82.5625 26.5681C82.5625 26.656 82.4879 26.7305 82.3997 26.7305C82.3115 26.7237 82.2437 26.656 82.2437 26.5681Z" fill="#FFFAEF"/>
<path d="M79.8941 7.50364C79.8941 7.41568 79.9687 7.34124 80.0501 7.34124C80.1383 7.34124 80.2129 7.41568 80.2129 7.50364C80.2129 7.5916 80.1383 7.66602 80.0501 7.66602C79.9687 7.65925 79.8941 7.5916 79.8941 7.50364Z" fill="#FFFAEF"/>
<path d="M62.8834 10.529C62.8834 10.4411 62.958 10.3666 63.0462 10.3666C63.1344 10.3666 63.209 10.4411 63.209 10.529C63.209 10.617 63.1344 10.6914 63.0462 10.6914C62.958 10.6914 62.8834 10.617 62.8834 10.529Z" fill="#FFFAEF"/>
<path d="M44.5494 0.161842C44.5494 0.0738848 44.624 -0.000534207 44.7122 -0.000534207C44.8004 -0.000534207 44.875 0.0738848 44.875 0.161842C44.875 0.2498 44.8004 0.324219 44.7122 0.324219C44.6173 0.324219 44.5494 0.2498 44.5494 0.161842Z" fill="#FFFAEF"/>
<path d="M32.7682 7.34151C32.7682 7.25355 32.8428 7.17913 32.931 7.17913C33.0191 7.17913 33.0938 7.25355 33.0938 7.34151C33.0938 7.42947 33.0191 7.50391 32.931 7.50391C32.836 7.50391 32.7682 7.42947 32.7682 7.34151Z" fill="#FFFAEF"/>
<path d="M20.442 34.7243C20.442 34.6364 20.5166 34.5619 20.6048 34.5619C20.693 34.5619 20.7676 34.6364 20.7676 34.7243C20.7676 34.8123 20.693 34.8867 20.6048 34.8867C20.5098 34.8867 20.442 34.8123 20.442 34.7243Z" fill="#FFFAEF"/>
<path d="M9.24472 30.947C9.24472 30.859 9.31935 30.7846 9.40753 30.7846C9.49571 30.7846 9.57031 30.859 9.57031 30.947C9.57031 31.035 9.49571 31.1094 9.40753 31.1094C9.31256 31.1094 9.24472 31.035 9.24472 30.947Z" fill="#FFFAEF"/>
<path d="M14.5885 45.6306C14.5885 45.5426 14.6631 45.4682 14.7513 45.4682C14.8395 45.4682 14.9141 45.5426 14.9141 45.6306C14.9141 45.7185 14.8395 45.793 14.7513 45.793C14.6563 45.7862 14.5885 45.7185 14.5885 45.6306Z" fill="#FFFAEF"/>
<path d="M12.3561 73.6267C12.3561 73.5387 12.4307 73.4643 12.5189 73.4643C12.607 73.4643 12.6816 73.5387 12.6816 73.6267C12.6816 73.7146 12.607 73.7891 12.5189 73.7891C12.4239 73.7823 12.3561 73.7146 12.3561 73.6267Z" fill="#FFFAEF"/>
<path d="M10.1588 103.22C10.1588 103.132 10.2334 103.058 10.3216 103.058C10.4098 103.058 10.4844 103.132 10.4844 103.22C10.4844 103.308 10.4098 103.383 10.3216 103.383C10.2334 103.383 10.1588 103.308 10.1588 103.22Z" fill="#FFFAEF"/>
<path opacity="0.2" d="M204.561 184.664C204.561 184.576 204.636 184.501 204.724 184.501C204.812 184.501 204.887 184.576 204.887 184.664C204.887 184.752 204.812 184.826 204.724 184.826C204.629 184.826 204.561 184.752 204.561 184.664Z" fill="#FFFAEF"/>
<path opacity="0.2" d="M212.155 202.972C212.155 202.884 212.229 202.81 212.318 202.81C212.406 202.81 212.48 202.884 212.48 202.972C212.48 203.06 212.406 203.135 212.318 203.135C212.223 203.128 212.155 203.06 212.155 202.972Z" fill="#FFFAEF"/>
<path opacity="0.5" d="M266.999 186.551C266.999 186.463 267.073 186.388 267.161 186.388C267.25 186.388 267.324 186.463 267.324 186.551C267.324 186.638 267.25 186.713 267.161 186.713C267.073 186.706 266.999 186.638 266.999 186.551Z" fill="#FFFAEF"/>
<path d="M235.854 193.343C235.854 193.256 235.929 193.181 236.017 193.181C236.105 193.181 236.18 193.256 236.18 193.343C236.18 193.431 236.105 193.506 236.017 193.506C235.922 193.506 235.854 193.431 235.854 193.343Z" fill="#FFFAEF"/>
<path d="M238.77 214.095C238.77 214.007 238.844 213.933 238.933 213.933C239.021 213.933 239.095 214.007 239.095 214.095C239.095 214.183 239.021 214.258 238.933 214.258C238.838 214.258 238.77 214.183 238.77 214.095Z" fill="#FFFAEF"/>
<path opacity="0.2" d="M224.417 185.916C224.417 185.828 224.491 185.753 224.579 185.753C224.668 185.753 224.742 185.828 224.742 185.916C224.742 186.004 224.668 186.078 224.579 186.078C224.484 186.078 224.417 186.004 224.417 185.916Z" fill="#FFFAEF"/>
<path d="M267.053 213.209C267.053 213.121 267.128 213.046 267.216 213.046C267.304 213.046 267.379 213.121 267.379 213.209C267.379 213.297 267.304 213.371 267.216 213.371C267.128 213.371 267.053 213.297 267.053 213.209Z" fill="#FFFAEF"/>
<path opacity="0.5" d="M360.674 127.517C360.674 127.429 360.749 127.355 360.837 127.355C360.925 127.355 361 127.429 361 127.517C361 127.605 360.925 127.68 360.837 127.68C360.749 127.68 360.674 127.605 360.674 127.517Z" fill="#FFFAEF"/>
<path opacity="0.5" d="M332.864 161.732C332.864 161.644 332.938 161.57 333.027 161.57C333.115 161.57 333.189 161.644 333.189 161.732C333.189 161.82 333.115 161.895 333.027 161.895C332.932 161.888 332.864 161.82 332.864 161.732Z" fill="#FFFAEF"/>
<path opacity="0.5" d="M322.838 168.101C322.838 168.013 322.913 167.939 323.001 167.939C323.089 167.939 323.164 168.013 323.164 168.101C323.164 168.189 323.089 168.264 323.001 168.264C322.906 168.264 322.838 168.189 322.838 168.101Z" fill="#FFFAEF"/>
<path opacity="0.5" d="M311.335 159.939C311.335 159.851 311.409 159.777 311.497 159.777C311.586 159.777 311.66 159.851 311.66 159.939C311.66 160.027 311.586 160.102 311.497 160.102C311.409 160.102 311.335 160.027 311.335 159.939Z" fill="#FFFAEF"/>
<path opacity="0.5" d="M316.428 177.478C316.428 177.39 316.503 177.316 316.591 177.316C316.679 177.316 316.754 177.39 316.754 177.478C316.754 177.566 316.679 177.641 316.591 177.641C316.503 177.641 316.428 177.566 316.428 177.478Z" fill="#FFFAEF"/>
<path opacity="0.5" d="M303.921 167.783C303.921 167.695 303.995 167.621 304.083 167.621C304.171 167.621 304.246 167.695 304.246 167.783C304.246 167.871 304.171 167.945 304.083 167.945C303.995 167.945 303.921 167.871 303.921 167.783Z" fill="#FFFAEF"/>
<path opacity="0.5" d="M300.969 176.759C300.969 176.672 301.044 176.597 301.132 176.597C301.22 176.597 301.295 176.672 301.295 176.759C301.295 176.847 301.22 176.922 301.132 176.922C301.044 176.922 300.969 176.847 300.969 176.759Z" fill="#FFFAEF"/>
<path opacity="0.5" d="M256.825 176.551C256.825 176.463 256.899 176.388 256.988 176.388C257.076 176.388 257.15 176.463 257.15 176.551C257.15 176.638 257.076 176.713 256.988 176.713C256.899 176.713 256.825 176.638 256.825 176.551Z" fill="#FFFAEF"/>
<path d="M243.444 215.82C243.444 215.732 243.519 215.658 243.607 215.658C243.695 215.658 243.77 215.732 243.77 215.82C243.77 215.908 243.695 215.982 243.607 215.982C243.519 215.982 243.444 215.908 243.444 215.82Z" fill="#FFFAEF"/>
<path d="M255.76 215.842C255.76 215.754 255.835 215.679 255.923 215.679C256.011 215.679 256.086 215.754 256.086 215.842C256.086 215.929 256.011 216.004 255.923 216.004C255.835 215.997 255.76 215.929 255.76 215.842Z" fill="#FFFAEF"/>
<path opacity="0.5" d="M288.497 163.201C288.497 163.113 288.571 163.039 288.659 163.039C288.748 163.039 288.822 163.113 288.822 163.201C288.822 163.289 288.748 163.363 288.659 163.363C288.565 163.363 288.497 163.289 288.497 163.201Z" fill="#FFFAEF"/>
<path d="M348.663 105.549C348.663 105.461 348.737 105.386 348.825 105.386C348.914 105.386 348.988 105.461 348.988 105.549C348.988 105.637 348.914 105.711 348.825 105.711C348.737 105.711 348.663 105.637 348.663 105.549Z" fill="#FFFAEF"/>
<path d="M50.6888 186.876C50.6888 186.835 50.7227 186.794 50.7702 186.794C50.8177 186.794 50.8516 186.828 50.8516 186.876C50.8516 186.916 50.8177 186.957 50.7702 186.957C50.7295 186.957 50.6888 186.916 50.6888 186.876Z" fill="#FFFAEF"/>
<path opacity="0.8" d="M2.22393 195.069C2.22393 195.022 2.25784 194.988 2.30533 194.988C2.35281 194.988 2.38672 195.022 2.38672 195.069C2.38672 195.11 2.35281 195.15 2.30533 195.15C2.25784 195.15 2.22393 195.116 2.22393 195.069Z" fill="#FFFAEF"/>
<path d="M4.095 202.801C4.095 202.761 4.12892 202.72 4.1764 202.72C4.22388 202.72 4.25781 202.754 4.25781 202.801C4.25781 202.842 4.22388 202.883 4.1764 202.883C4.1357 202.883 4.095 202.849 4.095 202.801Z" fill="#FFFAEF"/>
<path d="M123.462 154.407C123.462 154.366 123.496 154.326 123.544 154.326C123.591 154.326 123.625 154.359 123.625 154.407C123.625 154.454 123.591 154.488 123.544 154.488C123.496 154.488 123.462 154.448 123.462 154.407Z" fill="#FFFAEF"/>
<path d="M119.38 163.188C119.38 163.148 119.414 163.107 119.462 163.107C119.502 163.107 119.543 163.141 119.543 163.188C119.543 163.229 119.509 163.27 119.462 163.27C119.414 163.27 119.38 163.236 119.38 163.188Z" fill="#FFFAEF"/>
<path d="M116.099 157.614C116.099 157.573 116.133 157.533 116.18 157.533C116.228 157.533 116.262 157.567 116.262 157.614C116.262 157.661 116.228 157.695 116.18 157.695C116.133 157.695 116.099 157.661 116.099 157.614Z" fill="#FFFAEF"/>
<path opacity="0.5" d="M134.933 175.423C134.933 175.375 134.967 175.341 135.014 175.341C135.062 175.341 135.096 175.375 135.096 175.423C135.096 175.463 135.062 175.504 135.014 175.504C134.967 175.504 134.933 175.47 134.933 175.423Z" fill="#FFFAEF"/>
<path opacity="0.5" d="M134.337 198.479C134.337 198.439 134.371 198.398 134.419 198.398C134.466 198.398 134.5 198.432 134.5 198.479C134.5 198.527 134.466 198.561 134.419 198.561C134.378 198.561 134.337 198.527 134.337 198.479Z" fill="#FFFAEF"/>
<path opacity="0.5" d="M141.222 190.698C141.222 190.657 141.256 190.617 141.303 190.617C141.351 190.617 141.385 190.651 141.385 190.698C141.385 190.745 141.351 190.779 141.303 190.779C141.263 190.779 141.222 190.745 141.222 190.698Z" fill="#FFFAEF"/>
<path opacity="0.5" d="M109.089 187.628C109.089 187.58 109.123 187.546 109.171 187.546C109.218 187.546 109.252 187.58 109.252 187.628C109.252 187.668 109.218 187.709 109.171 187.709C109.123 187.709 109.089 187.675 109.089 187.628Z" fill="#FFFAEF"/>
<path d="M109.009 125.819C109.009 125.778 109.043 125.738 109.09 125.738C109.138 125.738 109.172 125.772 109.172 125.819C109.172 125.866 109.138 125.9 109.09 125.9C109.043 125.9 109.009 125.866 109.009 125.819Z" fill="#FFFAEF"/>
<path d="M-0.0807556 102.979C-0.0807556 102.932 -0.0468436 102.898 0.000637807 102.898C0.0481192 102.898 0.0820312 102.932 0.0820312 102.979C0.0820312 103.02 0.0481192 103.061 0.000637807 103.061C-0.0400606 103.061 -0.0807556 103.02 -0.0807556 102.979Z" fill="#FFFAEF"/>
<path d="M8.00125 117.438C8.00125 117.391 8.03519 117.357 8.08267 117.357C8.13015 117.357 8.16406 117.391 8.16406 117.438C8.16406 117.479 8.13015 117.52 8.08267 117.52C8.03519 117.52 8.00125 117.479 8.00125 117.438Z" fill="#FFFAEF"/>
<path d="M35.2213 98.072C35.2213 97.984 35.2959 97.9096 35.3841 97.9096C35.4723 97.9096 35.5469 97.984 35.5469 98.072C35.5469 98.16 35.4723 98.2344 35.3841 98.2344C35.2959 98.2276 35.2213 98.16 35.2213 98.072Z" fill="#FFFAEF"/>
<path d="M40.235 90.57C40.235 90.4821 40.3096 90.4077 40.3978 90.4077C40.4859 90.4077 40.5605 90.4821 40.5605 90.57C40.5605 90.658 40.4859 90.7324 40.3978 90.7324C40.3096 90.7324 40.235 90.658 40.235 90.57Z" fill="#FFFAEF"/>
<path d="M27.2779 86.3689C27.2779 86.2809 27.3525 86.2065 27.4407 86.2065C27.5289 86.2065 27.6035 86.2809 27.6035 86.3689C27.6035 86.4568 27.5289 86.5312 27.4407 86.5312C27.3458 86.5312 27.2779 86.4568 27.2779 86.3689Z" fill="#FFFAEF"/>
<path d="M44.2378 133.271C44.2378 133.183 44.3125 133.109 44.3939 133.109C44.482 133.109 44.5566 133.183 44.5566 133.271C44.5566 133.359 44.482 133.434 44.3939 133.434C44.3057 133.434 44.2378 133.359 44.2378 133.271Z" fill="#FFFAEF"/>
<path d="M55.1634 130.603C55.0735 130.603 55.0006 130.676 55.0006 130.765C55.0006 130.855 55.0735 130.928 55.1634 130.928C55.2533 130.928 55.3262 130.855 55.3262 130.765C55.3262 130.676 55.2533 130.603 55.1634 130.603Z" fill="#FFFAEF"/>
<path d="M52.4928 114.955C52.4928 114.867 52.5674 114.792 52.6556 114.792C52.7438 114.792 52.8184 114.867 52.8184 114.955C52.8184 115.043 52.7438 115.117 52.6556 115.117C52.5606 115.117 52.4928 115.043 52.4928 114.955Z" fill="#FFFAEF"/>
<path d="M134.135 111.119C134.135 111.031 134.21 110.956 134.298 110.956C134.386 110.956 134.461 111.031 134.461 111.119C134.461 111.207 134.386 111.281 134.298 111.281C134.203 111.281 134.135 111.207 134.135 111.119Z" fill="#FFFAEF"/>
<path d="M128.212 97.7478C128.212 97.6598 128.286 97.5854 128.374 97.5854C128.462 97.5854 128.537 97.6598 128.537 97.7478C128.537 97.8357 128.462 97.9102 128.374 97.9102C128.286 97.9102 128.212 97.8357 128.212 97.7478Z" fill="#FFFAEF"/>
<path opacity="0.2" d="M204.561 201.259C204.561 201.172 204.636 201.097 204.724 201.097C204.812 201.097 204.887 201.172 204.887 201.259C204.887 201.347 204.812 201.422 204.724 201.422C204.629 201.422 204.561 201.347 204.561 201.259Z" fill="#FFFAEF"/>
<path opacity="0.5" d="M244.243 101.248C244.243 101.16 244.317 101.085 244.406 101.085C244.494 101.085 244.568 101.16 244.568 101.248C244.568 101.336 244.494 101.41 244.406 101.41C244.317 101.41 244.243 101.336 244.243 101.248Z" fill="#FFFAEF"/>
<path d="M204.732 91.0017C204.732 90.9137 204.807 90.8393 204.888 90.8393C204.976 90.8393 205.051 90.9137 205.051 91.0017C205.051 91.0896 204.976 91.1641 204.888 91.1641C204.807 91.1641 204.732 91.0896 204.732 91.0017Z" fill="#FFFAEF"/>
<path d="M53.0142 176.713C53.0142 176.625 53.0889 176.55 53.177 176.55C53.2652 176.55 53.3398 176.625 53.3398 176.713C53.3398 176.801 53.2652 176.875 53.177 176.875C53.0821 176.868 53.0142 176.801 53.0142 176.713Z" fill="#FFFAEF"/>
<path d="M14.7526 96.4958C14.7526 96.4079 14.8272 96.3334 14.9153 96.3334C15.0035 96.3334 15.0781 96.4079 15.0781 96.4958C15.0781 96.5838 15.0035 96.6582 14.9153 96.6582C14.8204 96.6582 14.7526 96.5838 14.7526 96.4958Z" fill="#FFFAEF"/>
<path d="M125.775 133.939C125.775 133.851 125.85 133.777 125.931 133.777C126.019 133.777 126.094 133.851 126.094 133.939C126.094 134.027 126.019 134.102 125.931 134.102C125.85 134.095 125.775 134.027 125.775 133.939Z" fill="#FFFAEF"/>
<path opacity="0.5" d="M101.526 174.982C101.526 174.894 101.601 174.82 101.689 174.82C101.777 174.82 101.852 174.894 101.852 174.982C101.852 175.07 101.777 175.145 101.689 175.145C101.594 175.145 101.526 175.07 101.526 174.982Z" fill="#FFFAEF"/>
<path opacity="0.5" d="M158.037 204.84C158.037 204.752 158.111 204.677 158.193 204.677C158.281 204.677 158.355 204.752 158.355 204.84C158.355 204.928 158.281 205.002 158.193 205.002C158.104 205.002 158.037 204.928 158.037 204.84Z" fill="#FFFAEF"/>
<path opacity="0.5" d="M170.497 202.486C170.497 202.398 170.571 202.324 170.659 202.324C170.748 202.324 170.822 202.398 170.822 202.486C170.822 202.574 170.748 202.648 170.659 202.648C170.565 202.648 170.497 202.574 170.497 202.486Z" fill="#FFFAEF"/>
<path d="M170.497 209.103C170.497 209.015 170.571 208.941 170.659 208.941C170.748 208.941 170.822 209.015 170.822 209.103C170.822 209.191 170.748 209.266 170.659 209.266C170.565 209.266 170.497 209.191 170.497 209.103Z" fill="#FFFAEF"/>
<path opacity="0.5" d="M284.588 173.791C284.588 173.703 284.663 173.628 284.751 173.628C284.839 173.628 284.914 173.703 284.914 173.791C284.914 173.879 284.839 173.953 284.751 173.953C284.663 173.946 284.588 173.879 284.588 173.791Z" fill="#FFFAEF"/>
<path d="M284.655 209.791C284.655 209.703 284.729 209.628 284.818 209.628C284.906 209.628 284.98 209.703 284.98 209.791C284.98 209.879 284.906 209.953 284.818 209.953C284.723 209.946 284.655 209.872 284.655 209.791Z" fill="#FFFAEF"/>
<path d="M274.909 181.349C274.909 181.261 274.983 181.187 275.072 181.187C275.16 181.187 275.234 181.261 275.234 181.349C275.234 181.437 275.16 181.512 275.072 181.512C274.983 181.512 274.909 181.437 274.909 181.349Z" fill="#FFFAEF"/>
<path opacity="0.5" d="M270.879 181.295C270.879 181.207 270.954 181.132 271.042 181.132C271.13 181.132 271.205 181.207 271.205 181.295C271.205 181.383 271.13 181.457 271.042 181.457C270.954 181.457 270.879 181.383 270.879 181.295Z" fill="#FFFAEF"/>
<path d="M258.026 187.566C258.026 187.478 258.101 187.404 258.189 187.404C258.277 187.404 258.352 187.478 258.352 187.566C258.352 187.654 258.277 187.729 258.189 187.729C258.101 187.729 258.026 187.654 258.026 187.566Z" fill="#FFFAEF"/>
<path opacity="0.2" d="M177.353 213.736C177.353 213.648 177.428 213.574 177.509 213.574C177.597 213.574 177.672 213.648 177.672 213.736C177.672 213.824 177.597 213.898 177.509 213.898C177.428 213.892 177.353 213.824 177.353 213.736Z" fill="#FFFAEF"/>
<path opacity="0.5" d="M178.95 206.267C178.95 206.179 179.024 206.105 179.112 206.105C179.201 206.105 179.275 206.179 179.275 206.267C179.275 206.355 179.201 206.43 179.112 206.43C179.024 206.43 178.95 206.355 178.95 206.267Z" fill="#FFFAEF"/>
<path opacity="0.2" d="M222.077 207.775C222.077 207.687 222.151 207.613 222.24 207.613C222.328 207.613 222.402 207.687 222.402 207.775C222.402 207.863 222.328 207.938 222.24 207.938C222.151 207.938 222.077 207.863 222.077 207.775Z" fill="#FFFAEF"/>
<path d="M225.535 197.795C225.535 197.707 225.609 197.632 225.691 197.632C225.779 197.632 225.854 197.707 225.854 197.795C225.854 197.883 225.779 197.957 225.691 197.957C225.609 197.95 225.535 197.883 225.535 197.795Z" fill="#FFFAEF"/>
<path opacity="0.2" d="M227.307 211.998C227.307 211.91 227.382 211.835 227.47 211.835C227.558 211.835 227.633 211.91 227.633 211.998C227.633 212.086 227.558 212.16 227.47 212.16C227.382 212.153 227.307 212.086 227.307 211.998Z" fill="#FFFAEF"/>
<path opacity="0.5" d="M243.863 159.486C243.863 159.398 243.937 159.324 244.019 159.324C244.107 159.324 244.182 159.398 244.182 159.486C244.182 159.574 244.107 159.648 244.019 159.648C243.937 159.648 243.863 159.574 243.863 159.486Z" fill="#FFFAEF"/>
<path opacity="0.5" d="M249.507 146.707C249.507 146.619 249.582 146.544 249.663 146.544C249.751 146.544 249.826 146.619 249.826 146.707C249.826 146.795 249.751 146.869 249.663 146.869C249.582 146.869 249.507 146.795 249.507 146.707Z" fill="#FFFAEF"/>
<path opacity="0.5" d="M246.502 136.726C246.502 136.638 246.576 136.564 246.658 136.564C246.746 136.564 246.82 136.638 246.82 136.726C246.82 136.814 246.746 136.889 246.658 136.889C246.569 136.889 246.502 136.814 246.502 136.726Z" fill="#FFFAEF"/>
<path d="M249.671 126.111C249.671 126.023 249.745 125.949 249.833 125.949C249.921 125.949 249.996 126.023 249.996 126.111C249.996 126.199 249.921 126.273 249.833 126.273C249.745 126.267 249.671 126.199 249.671 126.111Z" fill="#FFFAEF"/>
<path d="M252.448 132.97C252.448 132.882 252.522 132.808 252.611 132.808C252.699 132.808 252.773 132.882 252.773 132.97C252.773 133.058 252.699 133.133 252.611 133.133C252.516 133.126 252.448 133.058 252.448 132.97Z" fill="#FFFAEF"/>
<path opacity="0.5" d="M243.863 142.74C243.863 142.652 243.937 142.578 244.019 142.578C244.107 142.578 244.182 142.652 244.182 142.74C244.182 142.828 244.107 142.902 244.019 142.902C243.937 142.902 243.863 142.828 243.863 142.74Z" fill="#FFFAEF"/>
<path opacity="0.5" d="M239.921 135.84C239.921 135.752 239.995 135.677 240.083 135.677C240.171 135.677 240.246 135.752 240.246 135.84C240.246 135.928 240.171 136.002 240.083 136.002C239.995 136.002 239.921 135.928 239.921 135.84Z" fill="#FFFAEF"/>
<path d="M256.825 123.308C256.825 123.22 256.899 123.146 256.988 123.146C257.076 123.146 257.15 123.22 257.15 123.308C257.15 123.396 257.076 123.471 256.988 123.471C256.899 123.471 256.825 123.396 256.825 123.308Z" fill="#FFFAEF"/>
<path opacity="0.5" d="M294.03 120.806C294.03 120.718 294.104 120.644 294.193 120.644C294.281 120.644 294.355 120.718 294.355 120.806C294.355 120.894 294.281 120.969 294.193 120.969C294.104 120.962 294.03 120.894 294.03 120.806Z" fill="#FFFAEF"/>
<path d="M298.991 113.052C298.991 112.965 299.065 112.89 299.154 112.89C299.242 112.89 299.316 112.965 299.316 113.052C299.316 113.14 299.242 113.215 299.154 113.215C299.059 113.208 298.991 113.14 298.991 113.052Z" fill="#FFFAEF"/>
<path opacity="0.5" d="M298.026 131.396C298.026 131.308 298.101 131.234 298.189 131.234C298.277 131.234 298.352 131.308 298.352 131.396C298.352 131.484 298.277 131.559 298.189 131.559C298.101 131.552 298.026 131.484 298.026 131.396Z" fill="#FFFAEF"/>
<path opacity="0.5" d="M299.147 88.2829C299.147 88.195 299.222 88.1205 299.31 88.1205C299.398 88.1205 299.473 88.195 299.473 88.2829C299.473 88.3709 299.398 88.4453 299.31 88.4453C299.222 88.4385 299.147 88.3709 299.147 88.2829Z" fill="#FFFAEF"/>
<path d="M307.807 101.869C307.807 101.781 307.882 101.706 307.97 101.706C308.058 101.706 308.133 101.781 308.133 101.869C308.133 101.957 308.058 102.031 307.97 102.031C307.875 102.024 307.807 101.957 307.807 101.869Z" fill="#FFFAEF"/>
<path d="M327.96 76.7126C327.96 76.6247 328.034 76.5502 328.122 76.5502C328.211 76.5502 328.285 76.6247 328.285 76.7126C328.285 76.8006 328.211 76.875 328.122 76.875C328.027 76.875 327.96 76.8006 327.96 76.7126Z" fill="#FFFAEF"/>
<path opacity="0.5" d="M326.651 87.1853C326.651 87.0973 326.726 87.0229 326.814 87.0229C326.902 87.0229 326.977 87.0973 326.977 87.1853C326.977 87.2732 326.902 87.3477 326.814 87.3477C326.726 87.3477 326.651 87.2732 326.651 87.1853Z" fill="#FFFAEF"/>
<path opacity="0.5" d="M318.073 80.6443C318.073 80.5563 318.147 80.4819 318.236 80.4819C318.324 80.4819 318.398 80.5563 318.398 80.6443C318.398 80.7322 318.324 80.8066 318.236 80.8066C318.141 80.8066 318.073 80.7322 318.073 80.6443Z" fill="#FFFAEF"/>
<path d="M294.559 85.4822C294.559 85.3942 294.634 85.3198 294.722 85.3198C294.81 85.3198 294.885 85.3942 294.885 85.4822C294.885 85.5701 294.81 85.6445 294.722 85.6445C294.627 85.6445 294.559 85.5701 294.559 85.4822Z" fill="#FFFAEF"/>
<path d="M292.776 69.779C292.776 69.6911 292.851 69.6166 292.939 69.6166C293.027 69.6166 293.102 69.6911 293.102 69.779C293.102 69.867 293.027 69.9414 292.939 69.9414C292.851 69.9414 292.776 69.867 292.776 69.779Z" fill="#FFFAEF"/>
<path d="M282.37 69.9939C282.37 69.9059 282.444 69.8315 282.533 69.8315C282.621 69.8315 282.695 69.9059 282.695 69.9939C282.695 70.0818 282.621 70.1562 282.533 70.1562C282.444 70.1562 282.37 70.0818 282.37 69.9939Z" fill="#FFFAEF"/>
<path d="M233.444 39.3454C233.444 39.2575 233.519 39.183 233.607 39.183C233.695 39.183 233.77 39.2575 233.77 39.3454C233.77 39.4334 233.695 39.5078 233.607 39.5078C233.512 39.5078 233.444 39.4334 233.444 39.3454Z" fill="#FFFAEF"/>
<path d="M233.28 58.3376C233.28 58.2496 233.354 58.1752 233.443 58.1752C233.531 58.1752 233.605 58.2496 233.605 58.3376C233.605 58.4256 233.531 58.5 233.443 58.5C233.354 58.5 233.28 58.4256 233.28 58.3376Z" fill="#FFFAEF"/>
<path d="M242.651 54.6618C242.651 54.5739 242.726 54.4994 242.814 54.4994C242.902 54.4994 242.977 54.5739 242.977 54.6618C242.977 54.7498 242.902 54.8242 242.814 54.8242C242.719 54.8242 242.651 54.7565 242.651 54.6618Z" fill="#FFFAEF"/>
<path opacity="0.5" d="M233.598 98.4235C233.598 98.3356 233.673 98.2612 233.761 98.2612C233.849 98.2612 233.924 98.3356 233.924 98.4235C233.924 98.5115 233.849 98.5859 233.761 98.5859C233.673 98.5859 233.598 98.5183 233.598 98.4235Z" fill="#FFFAEF"/>
<path d="M242.651 91.0017C242.651 90.9137 242.726 90.8393 242.814 90.8393C242.902 90.8393 242.977 90.9137 242.977 91.0017C242.977 91.0896 242.902 91.1641 242.814 91.1641C242.719 91.1641 242.651 91.0896 242.651 91.0017Z" fill="#FFFAEF"/>
<path d="M271.448 73.6267C271.448 73.5387 271.522 73.4643 271.611 73.4643C271.699 73.4643 271.773 73.5387 271.773 73.6267C271.773 73.7146 271.699 73.7891 271.611 73.7891C271.522 73.7823 271.448 73.7146 271.448 73.6267Z" fill="#FFFAEF"/>
<path d="M292.456 56.5231C292.456 56.4352 292.53 56.3608 292.618 56.3608C292.707 56.3608 292.781 56.4352 292.781 56.5231C292.781 56.6111 292.707 56.6855 292.618 56.6855C292.523 56.6855 292.456 56.6111 292.456 56.5231Z" fill="#FFFAEF"/>
<path opacity="0.5" d="M271.206 165.474C271.206 165.386 271.28 165.312 271.368 165.312C271.457 165.312 271.531 165.386 271.531 165.474C271.531 165.562 271.457 165.637 271.368 165.637C271.273 165.637 271.206 165.562 271.206 165.474Z" fill="#FFFAEF"/>
<path opacity="0.5" d="M359.528 114.967C359.528 114.879 359.603 114.804 359.691 114.804C359.779 114.804 359.854 114.879 359.854 114.967C359.854 115.054 359.779 115.129 359.691 115.129C359.603 115.122 359.528 115.054 359.528 114.967Z" fill="#FFFAEF"/>
<path d="M277.663 182.884C277.663 182.797 277.737 182.722 277.825 182.722C277.914 182.722 277.988 182.797 277.988 182.884C277.988 182.972 277.914 183.047 277.825 183.047C277.737 183.04 277.663 182.972 277.663 182.884Z" fill="#FFFAEF"/>
<path opacity="0.5" d="M292.143 170.765C292.143 170.677 292.218 170.603 292.306 170.603C292.394 170.603 292.469 170.677 292.469 170.765C292.469 170.853 292.394 170.928 292.306 170.928C292.218 170.928 292.143 170.853 292.143 170.765Z" fill="#FFFAEF"/>
<path opacity="0.5" d="M343.413 129.48C343.413 129.392 343.487 129.318 343.575 129.318C343.664 129.318 343.738 129.392 343.738 129.48C343.738 129.568 343.664 129.643 343.575 129.643C343.481 129.643 343.413 129.568 343.413 129.48Z" fill="#FFFAEF"/>
<path d="M288.772 179.916C288.772 179.828 288.847 179.753 288.935 179.753C289.023 179.753 289.098 179.828 289.098 179.916C289.098 180.004 289.023 180.078 288.935 180.078C288.847 180.078 288.772 180.004 288.772 179.916Z" fill="#FFFAEF"/>
<path opacity="0.5" d="M312.12 122.342C312.12 122.254 312.194 122.179 312.283 122.179C312.371 122.179 312.445 122.254 312.445 122.342C312.445 122.429 312.371 122.504 312.283 122.504C312.194 122.504 312.12 122.429 312.12 122.342Z" fill="#FFFAEF"/>
<path d="M157.29 161.904C157.29 161.816 157.364 161.742 157.452 161.742C157.541 161.742 157.615 161.816 157.615 161.904C157.615 161.992 157.541 162.066 157.452 162.066C157.364 162.066 157.29 161.992 157.29 161.904Z" fill="#FFFAEF"/>
<path d="M160.479 140.799C160.479 140.711 160.554 140.636 160.642 140.636C160.73 140.636 160.805 140.711 160.805 140.799C160.805 140.887 160.73 140.961 160.642 140.961C160.554 140.954 160.479 140.887 160.479 140.799Z" fill="#FFFAEF"/>
<path d="M200.552 165.551C200.552 165.463 200.627 165.388 200.708 165.388C200.796 165.388 200.871 165.463 200.871 165.551C200.871 165.638 200.796 165.713 200.708 165.713C200.627 165.713 200.552 165.638 200.552 165.551Z" fill="#FFFAEF"/>
<path opacity="0.5" d="M119.617 206.646C119.617 206.558 119.691 206.484 119.773 206.484C119.861 206.484 119.936 206.558 119.936 206.646C119.936 206.734 119.861 206.809 119.773 206.809C119.691 206.802 119.617 206.734 119.617 206.646Z" fill="#FFFAEF"/>
<path opacity="0.5" d="M127.405 195.054C127.405 194.966 127.479 194.892 127.568 194.892C127.656 194.892 127.73 194.966 127.73 195.054C127.73 195.142 127.656 195.217 127.568 195.217C127.473 195.217 127.405 195.142 127.405 195.054Z" fill="#FFFAEF"/>
<path opacity="0.5" d="M136.909 187.377C136.909 187.289 136.983 187.214 137.072 187.214C137.16 187.214 137.234 187.289 137.234 187.377C137.234 187.465 137.16 187.539 137.072 187.539C136.983 187.539 136.909 187.465 136.909 187.377Z" fill="#FFFAEF"/>
<path opacity="0.5" d="M131.766 182.269C131.766 182.181 131.841 182.107 131.929 182.107C132.017 182.107 132.092 182.181 132.092 182.269C132.092 182.357 132.017 182.432 131.929 182.432C131.841 182.425 131.766 182.357 131.766 182.269Z" fill="#FFFAEF"/>
<path opacity="0.5" d="M127.038 189.746C127.038 189.658 127.112 189.583 127.2 189.583C127.289 189.583 127.363 189.658 127.363 189.746C127.363 189.834 127.289 189.908 127.2 189.908C127.106 189.901 127.038 189.834 127.038 189.746Z" fill="#FFFAEF"/>
<path opacity="0.5" d="M116.177 190.861C116.177 190.773 116.252 190.699 116.333 190.699C116.421 190.699 116.496 190.773 116.496 190.861C116.496 190.949 116.421 191.023 116.333 191.023C116.245 191.017 116.177 190.949 116.177 190.861Z" fill="#FFFAEF"/>
<path opacity="0.5" d="M115.182 182.424C115.182 182.336 115.257 182.261 115.345 182.261C115.433 182.261 115.508 182.336 115.508 182.424C115.508 182.512 115.433 182.586 115.345 182.586C115.25 182.586 115.182 182.512 115.182 182.424Z" fill="#FFFAEF"/>
<path opacity="0.5" d="M119.462 174.521C119.462 174.433 119.536 174.359 119.624 174.359C119.713 174.359 119.787 174.433 119.787 174.521C119.787 174.609 119.713 174.684 119.624 174.684C119.529 174.684 119.462 174.609 119.462 174.521Z" fill="#FFFAEF"/>
<path d="M101.209 208.783C101.209 208.695 101.283 208.621 101.365 208.621C101.453 208.621 101.527 208.695 101.527 208.783C101.527 208.871 101.453 208.945 101.365 208.945C101.276 208.945 101.209 208.871 101.209 208.783Z" fill="#FFFAEF"/>
<path d="M86.3189 204.84C86.3189 204.752 86.3936 204.677 86.4817 204.677C86.5699 204.677 86.6445 204.752 86.6445 204.84C86.6445 204.928 86.5699 205.002 86.4817 205.002C86.3936 205.002 86.3189 204.928 86.3189 204.84Z" fill="#FFFAEF"/>
<path opacity="0.5" d="M241.198 176.713C241.198 176.625 241.272 176.55 241.361 176.55C241.449 176.55 241.523 176.625 241.523 176.713C241.523 176.801 241.449 176.875 241.361 176.875C241.272 176.875 241.198 176.801 241.198 176.713Z" fill="#FFFAEF"/>
<path d="M29.8251 111.247C29.694 111.247 29.5877 111.32 29.5877 111.41C29.5877 111.5 29.694 111.572 29.8251 111.572C29.9562 111.572 30.0625 111.5 30.0625 111.41C30.0625 111.32 29.9562 111.247 29.8251 111.247Z" fill="#FFFAEF"/>
<path opacity="0.2" d="M214.649 185.551C214.649 185.463 214.724 185.388 214.812 185.388C214.9 185.388 214.975 185.463 214.975 185.551C214.975 185.638 214.9 185.713 214.812 185.713C214.717 185.713 214.649 185.638 214.649 185.551Z" fill="#FFFAEF"/>
<path opacity="0.5" d="M134.419 205.902C134.419 205.814 134.494 205.74 134.575 205.74C134.664 205.74 134.738 205.814 134.738 205.902C134.738 205.99 134.664 206.064 134.575 206.064C134.494 206.064 134.419 205.99 134.419 205.902Z" fill="#FFFAEF"/>
<path d="M49.3651 100.041C49.3651 99.8379 49.5279 99.6755 49.7314 99.6755C49.9349 99.6755 50.0977 99.8379 50.0977 100.041C50.0977 100.244 49.9349 100.406 49.7314 100.406C49.5279 100.406 49.3651 100.244 49.3651 100.041Z" fill="#FFFAEF"/>
<path d="M28.4061 75.3925C28.4061 75.1895 28.5689 75.0271 28.7724 75.0271C28.9759 75.0271 29.1387 75.1895 29.1387 75.3925C29.1387 75.5954 28.9759 75.7578 28.7724 75.7578C28.5689 75.7578 28.4061 75.5954 28.4061 75.3925Z" fill="#FFFAEF"/>
<path d="M89.5682 55.6229C89.5682 55.4199 89.731 55.2575 89.9345 55.2575C90.138 55.2575 90.3008 55.4199 90.3008 55.6229C90.3008 55.8259 90.138 55.9883 89.9345 55.9883C89.731 55.9883 89.5682 55.8259 89.5682 55.6229Z" fill="#FFFAEF"/>
<path d="M63.8475 115.318C63.8475 115.115 64.0103 114.953 64.2138 114.953C64.4173 114.953 64.5801 115.115 64.5801 115.318C64.5801 115.521 64.4173 115.684 64.2138 115.684C64.0103 115.684 63.8475 115.521 63.8475 115.318Z" fill="#FFFAEF"/>
<path d="M47.5213 102.611C47.5213 102.408 47.6841 102.246 47.8876 102.246C48.0911 102.246 48.2539 102.408 48.2539 102.611C48.2539 102.814 48.0911 102.977 47.8876 102.977C47.6841 102.977 47.5213 102.814 47.5213 102.611Z" fill="#FFFAEF"/>
<path opacity="0.5" d="M114.381 198.797C114.381 198.533 114.598 198.317 114.862 198.317C115.127 198.317 115.344 198.533 115.344 198.797C115.344 199.061 115.127 199.277 114.862 199.277C114.598 199.277 114.381 199.061 114.381 198.797Z" fill="#FFFAEF"/>
<path opacity="0.2" d="M203.761 216.443C203.761 216.18 203.978 215.963 204.243 215.963C204.508 215.963 204.725 216.18 204.725 216.443C204.725 216.707 204.508 216.924 204.243 216.924C203.978 216.924 203.761 216.707 203.761 216.443Z" fill="#FFFAEF"/>
<path d="M162.756 154.772C162.756 154.508 162.973 154.291 163.237 154.291C163.502 154.291 163.719 154.508 163.719 154.772C163.719 155.035 163.502 155.252 163.237 155.252C162.973 155.245 162.756 155.035 162.756 154.772Z" fill="#FFFAEF"/>
<path d="M171.353 110.643C171.353 110.379 171.57 110.162 171.835 110.162C172.099 110.162 172.316 110.379 172.316 110.643C172.316 110.907 172.099 111.123 171.835 111.123C171.57 111.116 171.353 110.907 171.353 110.643Z" fill="#FFFAEF"/>
<path d="M183.013 76.8087C183.013 76.5448 183.23 76.3283 183.495 76.3283C183.76 76.3283 183.977 76.5448 183.977 76.8087C183.977 77.0726 183.76 77.2891 183.495 77.2891C183.23 77.2823 183.013 77.0726 183.013 76.8087Z" fill="#FFFAEF"/>
<path d="M253.068 35.0411C253.068 34.7772 253.285 34.5607 253.55 34.5607C253.814 34.5607 254.031 34.7772 254.031 35.0411C254.031 35.305 253.814 35.5215 253.55 35.5215C253.285 35.5215 253.068 35.305 253.068 35.0411Z" fill="#FFFAEF"/>
<path opacity="0.5" d="M310.533 85.2442C310.533 84.9804 310.75 84.7639 311.014 84.7639C311.279 84.7639 311.496 84.9804 311.496 85.2442C311.496 85.5081 311.279 85.7246 311.014 85.7246C310.743 85.7178 310.533 85.5081 310.533 85.2442Z" fill="#FFFAEF"/>
<path opacity="0.5" d="M274.773 159.19C274.773 158.926 274.99 158.709 275.255 158.709C275.519 158.709 275.736 158.926 275.736 159.19C275.736 159.453 275.519 159.67 275.255 159.67C274.99 159.67 274.773 159.453 274.773 159.19Z" fill="#FFFAEF"/>
<path d="M354.427 93.5528C354.427 93.2889 354.644 93.0724 354.909 93.0724C355.174 93.0724 355.391 93.2889 355.391 93.5528C355.391 93.8167 355.174 94.0332 354.909 94.0332C354.644 94.0332 354.427 93.8167 354.427 93.5528Z" fill="#FFFAEF"/>
<path d="M252.05 75.3946C252.05 75.1308 252.268 74.9142 252.532 74.9142C252.797 74.9142 253.014 75.1308 253.014 75.3946C253.014 75.6585 252.797 75.875 252.532 75.875C252.268 75.875 252.05 75.6585 252.05 75.3946Z" fill="#FFFAEF"/>
<path opacity="0.5" d="M309.58 84.0743C309.58 83.8104 309.797 83.5939 310.061 83.5939C310.326 83.5939 310.543 83.8104 310.543 84.0743C310.543 84.3382 310.326 84.5547 310.061 84.5547C309.797 84.5547 309.58 84.3382 309.58 84.0743Z" fill="#FFFAEF"/>
<path opacity="0.5" d="M342.877 118.539C342.877 118.275 343.094 118.059 343.358 118.059C343.623 118.059 343.84 118.275 343.84 118.539C343.84 118.803 343.623 119.02 343.358 119.02C343.094 119.02 342.877 118.803 342.877 118.539Z" fill="#FFFAEF"/>
<path d="M295.463 214.168C295.463 213.904 295.68 213.688 295.944 213.688C296.209 213.688 296.426 213.904 296.426 214.168C296.426 214.432 296.209 214.648 295.944 214.648C295.68 214.642 295.463 214.432 295.463 214.168Z" fill="#FFFAEF"/>
<path d="M247.437 207.092C247.437 206.828 247.654 206.611 247.919 206.611C248.183 206.611 248.4 206.828 248.4 207.092C248.4 207.356 248.183 207.572 247.919 207.572C247.654 207.572 247.437 207.356 247.437 207.092Z" fill="#FFFAEF"/>
<path opacity="0.5" d="M321.718 159.574C321.718 159.31 321.936 159.094 322.2 159.094C322.465 159.094 322.682 159.31 322.682 159.574C322.682 159.838 322.465 160.055 322.2 160.055C321.929 160.055 321.718 159.838 321.718 159.574Z" fill="#FFFAEF"/>
<path opacity="0.5" d="M332.722 130.914C332.722 130.65 332.939 130.434 333.204 130.434C333.468 130.434 333.686 130.65 333.686 130.914C333.686 131.178 333.468 131.395 333.204 131.395C332.939 131.395 332.722 131.178 332.722 130.914Z" fill="#FFFAEF"/>
<path d="M70.7517 4.17978C70.7517 3.91591 70.9687 3.69938 71.2333 3.69938C71.4978 3.69938 71.7148 3.91591 71.7148 4.17978C71.7148 4.44365 71.4978 4.66016 71.2333 4.66016C70.9687 4.65339 70.7517 4.44365 70.7517 4.17978Z" fill="#FFFAEF"/>
<path d="M146.256 25.7989C146.256 25.535 146.473 25.3185 146.737 25.3185C147.002 25.3185 147.219 25.535 147.219 25.7989C147.219 26.0628 147.002 26.2793 146.737 26.2793C146.466 26.2793 146.256 26.0628 146.256 25.7989Z" fill="#FFFAEF"/>
<path d="M240.084 119.061C240.084 118.797 240.301 118.58 240.565 118.58C240.83 118.58 241.047 118.797 241.047 119.061C241.047 119.325 240.83 119.541 240.565 119.541C240.294 119.541 240.084 119.325 240.084 119.061Z" fill="#FFFAEF"/>
<path d="M43.9118 143.608C43.9118 143.344 44.1289 143.127 44.3934 143.127C44.6579 143.127 44.875 143.344 44.875 143.608C44.875 143.871 44.6579 144.088 44.3934 144.088C44.1289 144.088 43.9118 143.871 43.9118 143.608Z" fill="#FFFAEF"/>
<path d="M10.5055 185.51C10.5055 185.246 10.7226 185.029 10.9872 185.029C11.2517 185.029 11.4688 185.246 11.4688 185.51C11.4688 185.774 11.2517 185.99 10.9872 185.99C10.7226 185.99 10.5055 185.774 10.5055 185.51Z" fill="#FFFAEF"/>
<path d="M176.716 39.8243C176.716 39.5604 176.934 39.3439 177.198 39.3439C177.463 39.3439 177.68 39.5604 177.68 39.8243C177.68 40.0882 177.463 40.3047 177.198 40.3047C176.934 40.3047 176.716 40.0882 176.716 39.8243Z" fill="#FFFAEF"/>
<path d="M199.759 55.1427C199.759 54.8788 199.977 54.6623 200.241 54.6623C200.506 54.6623 200.723 54.8788 200.723 55.1427C200.723 55.4065 200.506 55.623 200.241 55.623C199.97 55.623 199.759 55.4065 199.759 55.1427Z" fill="#FFFAEF"/>
<path opacity="0.5" d="M194.068 100.887C194.068 100.623 194.285 100.406 194.55 100.406C194.814 100.406 195.031 100.623 195.031 100.887C195.031 101.151 194.814 101.367 194.55 101.367C194.278 101.36 194.068 101.151 194.068 100.887Z" fill="#FFFAEF"/>
<path d="M125.939 166.348C125.939 166.084 126.156 165.867 126.421 165.867C126.685 165.867 126.902 166.084 126.902 166.348C126.902 166.612 126.685 166.828 126.421 166.828C126.156 166.828 125.939 166.612 125.939 166.348Z" fill="#FFFAEF"/>
<path d="M82.4002 87.0995C82.4002 86.8965 82.563 86.7341 82.7665 86.7341C82.97 86.7341 83.1328 86.8965 83.1328 87.0995C83.1328 87.3025 82.97 87.4648 82.7665 87.4648C82.563 87.4648 82.4002 87.3025 82.4002 87.0995Z" fill="#FFFAEF"/>
<path d="M139.525 96.3417C139.525 96.1387 139.688 95.9763 139.891 95.9763C140.095 95.9763 140.258 96.1387 140.258 96.3417C140.258 96.5446 140.095 96.707 139.891 96.707C139.688 96.707 139.525 96.5446 139.525 96.3417Z" fill="#FFFAEF"/>
<path opacity="0.5" d="M252.767 160.387C252.767 160.184 252.93 160.021 253.134 160.021C253.337 160.021 253.5 160.184 253.5 160.387C253.5 160.59 253.337 160.752 253.134 160.752C252.93 160.752 252.767 160.59 252.767 160.387Z" fill="#FFFAEF"/>
<path opacity="0.5" d="M121.836 181.74C121.836 181.537 121.999 181.375 122.202 181.375C122.406 181.375 122.568 181.537 122.568 181.74C122.568 181.943 122.406 182.105 122.202 182.105C122.005 182.105 121.836 181.943 121.836 181.74Z" fill="#FFFAEF"/>
<path opacity="0.5" d="M93.3866 198.799C93.3866 198.596 93.5494 198.433 93.7529 198.433C93.9564 198.433 94.1191 198.596 94.1191 198.799C94.1191 199.002 93.9564 199.164 93.7529 199.164C93.5494 199.164 93.3866 199.002 93.3866 198.799Z" fill="#FFFAEF"/>
<path d="M52.8124 165.314C52.8124 165.111 52.9751 164.949 53.1786 164.949C53.3821 164.949 53.5449 165.111 53.5449 165.314C53.5449 165.517 53.3821 165.68 53.1786 165.68C52.9751 165.68 52.8124 165.511 52.8124 165.314Z" fill="#FFFAEF"/>
<path opacity="0.5" d="M176.351 106.164C176.351 105.961 176.514 105.799 176.718 105.799C176.921 105.799 177.084 105.961 177.084 106.164C177.084 106.367 176.921 106.529 176.718 106.529C176.514 106.529 176.351 106.367 176.351 106.164Z" fill="#FFFAEF"/>
<path d="M181.701 116.443C181.701 116.24 181.864 116.078 182.067 116.078C182.271 116.078 182.434 116.24 182.434 116.443C182.434 116.646 182.271 116.809 182.067 116.809C181.864 116.802 181.701 116.639 181.701 116.443Z" fill="#FFFAEF"/>
<path d="M165.687 123.193C165.687 122.99 165.85 122.828 166.054 122.828C166.257 122.828 166.42 122.99 166.42 123.193C166.42 123.396 166.257 123.559 166.054 123.559C165.85 123.559 165.687 123.396 165.687 123.193Z" fill="#FFFAEF"/>
<path d="M183.689 139.549C183.689 139.346 183.852 139.183 184.056 139.183C184.259 139.183 184.422 139.346 184.422 139.549C184.422 139.752 184.259 139.914 184.056 139.914C183.852 139.914 183.689 139.752 183.689 139.549Z" fill="#FFFAEF"/>
<path d="M127.193 146.721C127.193 146.518 127.356 146.355 127.56 146.355C127.763 146.355 127.926 146.518 127.926 146.721C127.926 146.924 127.763 147.086 127.56 147.086C127.356 147.086 127.193 146.924 127.193 146.721Z" fill="#FFFAEF"/>
<path d="M141.939 137.978C141.939 137.775 142.102 137.613 142.306 137.613C142.509 137.613 142.672 137.775 142.672 137.978C142.672 138.181 142.509 138.344 142.306 138.344C142.102 138.344 141.939 138.181 141.939 137.978Z" fill="#FFFAEF"/>
<path d="M111.81 45.4198C111.81 45.2168 111.973 45.0544 112.177 45.0544C112.38 45.0544 112.543 45.2168 112.543 45.4198C112.543 45.6228 112.38 45.7852 112.177 45.7852C111.973 45.7852 111.81 45.6228 111.81 45.4198Z" fill="#FFFAEF"/>
<path d="M148.554 114.229C148.554 113.992 148.75 113.796 148.988 113.796C149.225 113.796 149.422 113.992 149.422 114.229C149.422 114.466 149.225 114.662 148.988 114.662C148.75 114.662 148.554 114.473 148.554 114.229Z" fill="#FFFAEF"/>
<path d="M159.868 84.9615C159.868 84.7247 160.065 84.5285 160.302 84.5285C160.54 84.5285 160.736 84.7247 160.736 84.9615C160.736 85.1983 160.54 85.3945 160.302 85.3945C160.058 85.3945 159.868 85.2051 159.868 84.9615Z" fill="#FFFAEF"/>
<path opacity="0.5" d="M173.854 180.989C173.854 180.752 174.051 180.556 174.289 180.556C174.526 180.556 174.723 180.752 174.723 180.989C174.723 181.226 174.526 181.422 174.289 181.422C174.051 181.422 173.854 181.226 173.854 180.989Z" fill="#FFFAEF"/>
<path d="M48.5224 54.7095C48.5224 54.4727 48.7191 54.2765 48.9565 54.2765C49.1939 54.2765 49.3906 54.4727 49.3906 54.7095C49.3906 54.9464 49.1939 55.1426 48.9565 55.1426C48.7191 55.1426 48.5224 54.9464 48.5224 54.7095Z" fill="#FFFAEF"/>
<path d="M102.714 72.2135C102.714 71.9766 102.91 71.7804 103.148 71.7804C103.385 71.7804 103.582 71.9766 103.582 72.2135C103.582 72.4503 103.385 72.6465 103.148 72.6465C102.91 72.6465 102.714 72.4503 102.714 72.2135Z" fill="#FFFAEF"/>
<path d="M54.7372 39.8248C54.7372 39.588 54.934 39.3917 55.1714 39.3917C55.4088 39.3917 55.6055 39.588 55.6055 39.8248C55.6055 40.0616 55.4088 40.2578 55.1714 40.2578C54.934 40.2578 54.7372 40.0616 54.7372 39.8248Z" fill="#FFFAEF"/>
<path d="M28.4535 169.649C28.4535 169.148 28.8605 168.749 29.3557 168.749C29.8576 168.749 30.2578 169.155 30.2578 169.649C30.2578 170.15 29.8508 170.549 29.3557 170.549C28.8605 170.549 28.4535 170.15 28.4535 169.649Z" fill="#FFFAEF"/>
<path d="M181.84 126.198C181.84 125.697 182.247 125.298 182.742 125.298C183.244 125.298 183.645 125.704 183.645 126.198C183.645 126.698 183.238 127.098 182.742 127.098C182.247 127.098 181.84 126.692 181.84 126.198Z" fill="#FFFAEF"/>
<path opacity="0.5" d="M304.205 120.643C304.205 120.142 304.612 119.743 305.108 119.743C305.61 119.743 306.01 120.149 306.01 120.643C306.01 121.144 305.603 121.543 305.108 121.543C304.612 121.543 304.205 121.144 304.205 120.643Z" fill="#FFFAEF"/>
<path d="M283.746 55.6236C283.746 55.1229 284.153 54.7237 284.649 54.7237C285.151 54.7237 285.551 55.1297 285.551 55.6236C285.551 56.1243 285.144 56.5234 284.649 56.5234C284.153 56.5234 283.746 56.1175 283.746 55.6236Z" fill="#FFFAEF"/>
<path opacity="0.5" d="M272.881 173.627C272.881 173.127 273.288 172.728 273.783 172.728C274.285 172.728 274.686 173.134 274.686 173.627C274.686 174.128 274.279 174.527 273.783 174.527C273.281 174.527 272.881 174.128 272.881 173.627Z" fill="#FFFAEF"/>
<path opacity="0.5" d="M200.899 189.956C200.899 189.455 201.306 189.056 201.801 189.056C202.303 189.056 202.703 189.462 202.703 189.956C202.703 190.456 202.296 190.855 201.801 190.855C201.306 190.855 200.899 190.45 200.899 189.956Z" fill="#FFFAEF"/>
<path d="M69.85 205.747C69.85 205.246 70.257 204.847 70.7522 204.847C71.2541 204.847 71.6543 205.253 71.6543 205.747C71.6543 206.247 71.2473 206.646 70.7522 206.646C70.257 206.646 69.85 206.241 69.85 205.747Z" fill="#FFFAEF"/>
<path d="M98.0609 134.577C98.0609 134.076 98.4679 133.677 98.9631 133.677C99.465 133.677 99.8652 134.083 99.8652 134.577C99.8652 135.077 99.4583 135.477 98.9631 135.477C98.4611 135.477 98.0609 135.077 98.0609 134.577Z" fill="#FFFAEF"/>
</g>
<defs>
<radialGradient id="paint0_radial_44_8212" cx="0" cy="0" r="1" gradientUnits="userSpaceOnUse" gradientTransform="translate(310.996 173.368) rotate(180) scale(3.90325 3.8934)">
<stop stop-color="white"/>
<stop offset="0.0767" stop-color="white" stop-opacity="0.9233"/>
<stop offset="1" stop-color="#272525" stop-opacity="0"/>
</radialGradient>
<radialGradient id="paint1_radial_44_8212" cx="0" cy="0" r="1" gradientUnits="userSpaceOnUse" gradientTransform="translate(214.695 72.5396) rotate(180) scale(3.90359 3.89374)">
<stop stop-color="white"/>
<stop offset="0.0767" stop-color="white" stop-opacity="0.9233"/>
<stop offset="1" stop-color="#272525" stop-opacity="0"/>
</radialGradient>
<radialGradient id="paint2_radial_44_8212" cx="0" cy="0" r="1" gradientUnits="userSpaceOnUse" gradientTransform="translate(132.233 76.3837) rotate(180) scale(3.90325 3.8934)">
<stop stop-color="white"/>
<stop offset="0.0767" stop-color="white" stop-opacity="0.9233"/>
<stop offset="1" stop-color="#272525" stop-opacity="0"/>
</radialGradient>
<radialGradient id="paint3_radial_44_8212" cx="0" cy="0" r="1" gradientUnits="userSpaceOnUse" gradientTransform="translate(146.207 64.493) rotate(180) scale(3.90359 3.89374)">
<stop stop-color="white"/>
<stop offset="0.0767" stop-color="white" stop-opacity="0.9233"/>
<stop offset="1" stop-color="#272525" stop-opacity="0"/>
</radialGradient>
<radialGradient id="paint4_radial_44_8212" cx="0" cy="0" r="1" gradientUnits="userSpaceOnUse" gradientTransform="translate(160.3 219.731) rotate(180) scale(3.90325 3.89341)">
<stop stop-color="white"/>
<stop offset="0.0767" stop-color="white" stop-opacity="0.9233"/>
<stop offset="1" stop-color="#272525" stop-opacity="0"/>
</radialGradient>
<radialGradient id="paint5_radial_44_8212" cx="0" cy="0" r="1" gradientUnits="userSpaceOnUse" gradientTransform="translate(7.91117 136.061) rotate(180) scale(1.95841 1.95347)">
<stop stop-color="white"/>
<stop offset="0.0767" stop-color="white" stop-opacity="0.9233"/>
<stop offset="1" stop-color="#272525" stop-opacity="0"/>
</radialGradient>
<radialGradient id="paint6_radial_44_8212" cx="0" cy="0" r="1" gradientUnits="userSpaceOnUse" gradientTransform="translate(30.1197 91.4121) rotate(180) scale(1.95841 1.95348)">
<stop stop-color="white"/>
<stop offset="0.0767" stop-color="white" stop-opacity="0.9233"/>
<stop offset="1" stop-color="#272525" stop-opacity="0"/>
</radialGradient>
<radialGradient id="paint7_radial_44_8212" cx="0" cy="0" r="1" gradientUnits="userSpaceOnUse" gradientTransform="translate(192.587 153.716) rotate(180) scale(1.95827 1.95333)">
<stop stop-color="white"/>
<stop offset="0.0767" stop-color="white" stop-opacity="0.9233"/>
<stop offset="1" stop-color="#272525" stop-opacity="0"/>
</radialGradient>
<radialGradient id="paint8_radial_44_8212" cx="0" cy="0" r="1" gradientUnits="userSpaceOnUse" gradientTransform="translate(218.615 100.382) rotate(180) scale(1.95854 1.95361)">
<stop stop-color="white"/>
<stop offset="0.0767" stop-color="white" stop-opacity="0.9233"/>
<stop offset="1" stop-color="#272525" stop-opacity="0"/>
</radialGradient>
<radialGradient id="paint9_radial_44_8212" cx="0" cy="0" r="1" gradientUnits="userSpaceOnUse" gradientTransform="translate(291.113 87.1883) rotate(180) scale(1.9582 1.95327)">
<stop stop-color="white"/>
<stop offset="0.0767" stop-color="white" stop-opacity="0.9233"/>
<stop offset="1" stop-color="#272525" stop-opacity="0"/>
</radialGradient>
<radialGradient id="paint10_radial_44_8212" cx="0" cy="0" r="1" gradientUnits="userSpaceOnUse" gradientTransform="translate(301.028 63.8214) rotate(180) scale(1.95827 1.95333)">
<stop stop-color="white"/>
<stop offset="0.0767" stop-color="white" stop-opacity="0.9233"/>
<stop offset="1" stop-color="#272525" stop-opacity="0"/>
</radialGradient>
<radialGradient id="paint11_radial_44_8212" cx="0" cy="0" r="1" gradientUnits="userSpaceOnUse" gradientTransform="translate(138.498 125.986) rotate(180) scale(1.95861 1.95367)">
<stop stop-color="white"/>
<stop offset="0.0767" stop-color="white" stop-opacity="0.9233"/>
<stop offset="1" stop-color="#272525" stop-opacity="0"/>
</radialGradient>
<radialGradient id="paint12_radial_44_8212" cx="0" cy="0" r="1" gradientUnits="userSpaceOnUse" gradientTransform="translate(88.6126 15.8722) rotate(180) scale(1.95841 1.95347)">
<stop stop-color="white"/>
<stop offset="0.0767" stop-color="white" stop-opacity="0.9233"/>
<stop offset="1" stop-color="#272525" stop-opacity="0"/>
</radialGradient>
<radialGradient id="paint13_radial_44_8212" cx="0" cy="0" r="1" gradientUnits="userSpaceOnUse" gradientTransform="translate(32.5753 28.1097) rotate(180) scale(1.95841 1.95347)">
<stop stop-color="white"/>
<stop offset="0.0767" stop-color="white" stop-opacity="0.9233"/>
<stop offset="1" stop-color="#272525" stop-opacity="0"/>
</radialGradient>
<radialGradient id="paint14_radial_44_8212" cx="0" cy="0" r="1" gradientUnits="userSpaceOnUse" gradientTransform="translate(5.38465 6.78845) rotate(180) scale(1.95841 1.95347)">
<stop stop-color="white"/>
<stop offset="0.0767" stop-color="white" stop-opacity="0.9233"/>
<stop offset="1" stop-color="#272525" stop-opacity="0"/>
</radialGradient>
<radialGradient id="paint15_radial_44_8212" cx="0" cy="0" r="1" gradientUnits="userSpaceOnUse" gradientTransform="translate(14.4447 146.004) rotate(180) scale(3.90345 3.89361)">
<stop stop-color="white"/>
<stop offset="0.0767" stop-color="white" stop-opacity="0.9233"/>
<stop offset="1" stop-color="#272525" stop-opacity="0"/>
</radialGradient>
</defs>
</svg>
