<svg width="20" height="15" viewBox="0 0 20 15" fill="none" xmlns="http://www.w3.org/2000/svg">
<rect x="0.000244141" width="19.9997" height="15" rx="3" fill="#303044"/>
<path d="M5.3329 6.50344C5.20105 6.50344 5.07216 6.46434 4.96253 6.39109C4.85291 6.31784 4.76746 6.21372 4.71701 6.09191C4.66655 5.9701 4.65335 5.83606 4.67907 5.70675C4.70479 5.57743 4.76828 5.45865 4.86151 5.36542C4.95475 5.27219 5.07353 5.2087 5.20285 5.18298C5.33216 5.15725 5.4662 5.17045 5.58801 5.22091C5.70982 5.27137 5.81394 5.35681 5.88719 5.46644C5.96044 5.57607 5.99954 5.70495 5.99954 5.8368V9.16998C5.99954 9.30183 5.96044 9.43072 5.88719 9.54034C5.81394 9.64997 5.70982 9.73542 5.58801 9.78587C5.4662 9.83633 5.33216 9.84953 5.20285 9.82381C5.07353 9.79809 4.95475 9.73459 4.86151 9.64136C4.76828 9.54813 4.70479 9.42935 4.67907 9.30004C4.65335 9.17072 4.66655 9.03668 4.71701 8.91487C4.76746 8.79306 4.85291 8.68894 4.96253 8.61569C5.07216 8.54244 5.20105 8.50335 5.3329 8.50335H8.6661C8.79795 8.50335 8.92684 8.54244 9.03647 8.61569C9.14609 8.68894 9.23154 8.79306 9.28199 8.91487C9.33245 9.03668 9.34565 9.17072 9.31993 9.30004C9.29421 9.42935 9.23072 9.54813 9.13749 9.64136C9.04425 9.73459 8.92547 9.79809 8.79615 9.82381C8.66684 9.84953 8.5328 9.83633 8.41099 9.78587C8.28917 9.73542 8.18506 9.64997 8.11181 9.54034C8.03856 9.43072 7.99946 9.30183 7.99946 9.16998V5.8368C7.99946 5.70495 8.03856 5.57607 8.11181 5.46644C8.18506 5.35681 8.28917 5.27137 8.41099 5.22091C8.5328 5.17045 8.66684 5.15725 8.79615 5.18298C8.92547 5.2087 9.04425 5.27219 9.13749 5.36542C9.23072 5.45865 9.29421 5.57743 9.31993 5.70675C9.34565 5.83606 9.33245 5.9701 9.28199 6.09191C9.23154 6.21372 9.14609 6.31784 9.03647 6.39109C8.92684 6.46434 8.79795 6.50344 8.6661 6.50344H5.3329Z" stroke="#787885" stroke-width="0.666638" stroke-linecap="round" stroke-linejoin="round"/>
<path d="M11.983 10V4.18182H12.8608V6.96023H12.9318L15.3722 4.18182H16.4773L14.1307 6.80114L16.4858 10H15.429L13.5483 7.40057L12.8608 8.19034V10H11.983Z" fill="#787885"/>
</svg>
